SplineFontDB: 3.2
FontName: UnowanCCI
FullName: Unowan CCI
FamilyName: Unowan CCI
Weight: Regular
Copyright: Shankar Sivarajan
UComments: "2023-6-18: Created with FontForge (http://fontforge.org)"
Version: 
ItalicAngle: 0
UnderlinePosition: -100
UnderlineWidth: 50
Ascent: 800
Descent: 200
InvalidEm: 0
LayerCount: 2
Layer: 0 0 "Back" 1
Layer: 1 0 "Fore" 0
XUID: [1021 146 -1796264217 10339]
FSType: 0
OS2Version: 0
OS2_WeightWidthSlopeOnly: 0
OS2_UseTypoMetrics: 1
CreationTime: 1687110331
ModificationTime: 1687655115
PfmFamily: 17
TTFWeight: 400
TTFWidth: 5
LineGap: 90
VLineGap: 0
OS2TypoAscent: 0
OS2TypoAOffset: 1
OS2TypoDescent: 0
OS2TypoDOffset: 1
OS2TypoLinegap: 90
OS2WinAscent: 0
OS2WinAOffset: 1
OS2WinDescent: 0
OS2WinDOffset: 1
HheadAscent: 0
HheadAOffset: 1
HheadDescent: 0
HheadDOffset: 1
OS2Vendor: 'PfEd'
MarkAttachClasses: 1
DEI: 91125
LangName: 1033
Encoding: UnicodeBmp
UnicodeInterp: none
NameList: AGL For New Fonts
DisplaySize: -48
AntiAlias: 1
FitToEm: 0
WinInfo: 702 39 14
BeginPrivate: 0
EndPrivate
TeXData: 1 0 0 419430 209715 139810 0 1048576 139810 783286 444596 497025 792723 393216 433062 380633 303038 157286 324010 404750 52429 2506097 1059062 262144
BeginChars: 65537 305

StartChar: A
Encoding: 65 65 0
Width: 500
Flags: HW
LayerCount: 2
Fore
SplineSet
248 800 m 0
 262 800 279 791 286 778 c 0
 290 771 296 750 303 719 c 0
 312 678 313 671 318 670 c 0
 321 669 333 663 346 657 c 0
 385 638 418 603 438 560 c 0
 450 534 455 513 457 483 c 0
 460 427 442 373 404 331 c 2
 391 317 l 1
 407 244 l 2
 438 110 451 47 449 36 c 0
 443 3 401 -10 375 13 c 0
 365 22 362 27 351 84 c 2
 343 127 l 1
 326 116 l 2
 277 82 207 84 166 120 c 0
 161 124 157 127 156 126 c 0
 155 125 151 103 146 78 c 0
 135 17 134 15 114 5 c 0
 101 -2 89 -1 74 6 c 0
 59 14 50 27 50 41 c 0
 50 47 57 83 66 122 c 0
 75 161 89 222 96 256 c 2
 108 318 l 1
 91 337 l 2
 72 357 53 392 46 420 c 0
 35 461 39 514 56 554 c 0
 74 597 112 637 153 657 c 0
 166 663 178 669 180 669 c 0
 185 669 186 672 197 723 c 0
 203 750 210 775 213 780 c 0
 219 790 236 800 248 800 c 0
248 593 m 0
 181 593 126 539 126 472 c 0
 126 405 181 350 248 350 c 0
 315 350 370 405 370 472 c 0
 370 539 315 593 248 593 c 0
248 303 m 0
 226 303 205 288 197 260 c 0
 189 231 201 198 227 185 c 0
 236 180 257 180 268 184 c 0
 294 194 309 230 300 262 c 0
 292 290 270 303 248 303 c 0
210 470 m 0
 210 494 229 513 253 513 c 0
 277 513 296 494 296 470 c 0
 296 446 277 427 253 427 c 0
 229 427 210 446 210 470 c 0
210 470 m 0
 210 446 229 427 253 427 c 0
 277 427 296 446 296 470 c 0
 296 494 277 513 253 513 c 0
 229 513 210 494 210 470 c 0
210 470 m 0
 210 494 229 513 253 513 c 0
 277 513 296 494 296 470 c 0
 296 446 277 427 253 427 c 0
 229 427 210 446 210 470 c 0
EndSplineSet
Validated: 37
EndChar

StartChar: B
Encoding: 66 66 1
Width: 550
Flags: HW
LayerCount: 2
Fore
SplineSet
226 800 m 1
 268 800 l 1
 309 800 l 1
 310 787 l 2
 311 775 312 775 321 772 c 0
 326 770 332 769 334 769 c 0
 336 769 348 764 362 757 c 0
 408 734 448 686 462 637 c 2
 466 620 l 1
 486 619 l 2
 507 618 514 614 525 600 c 0
 533 590 533 564 525 554 c 0
 514 540 507 536 486 535 c 2
 466 534 l 1
 460 515 l 2
 442 454 389 401 328 384 c 0
 316 381 312 379 311 375 c 0
 310 370 312 368 324 364 c 0
 354 354 375 342 400 317 c 0
 420 297 427 288 436 270 c 0
 449 243 455 218 455 186 c 0
 455 154 449 128 436 101 c 0
 427 83 420 74 400 54 c 0
 380 34 372 28 353 19 c 0
 319 3 279 -3 242 2 c 1
 242 2 l 1
 172 12 111 63 91 128 c 2
 87 143 l 1
 66 144 l 2
 37 146 22 159 20 183 c 0
 18 209 36 226 68 229 c 2
 87 231 l 1
 91 246 l 2
 107 299 156 346 211 364 c 0
 229 370 230 378 215 382 c 0
 209 384 204 385 202 385 c 0
 200 385 188 390 174 397 c 0
 153 408 145 413 123 435 c 0
 101 457 97 464 86 486 c 0
 69 521 63 545 65 586 c 0
 67 643 83 679 123 719 c 0
 151 747 172 759 206 769 c 2
 225 775 l 1
 226 788 l 1
 226 800 l 1
271 701 m 0
 204 701 149 646 149 579 c 0
 149 512 204 457 271 457 c 0
 338 457 393 512 393 579 c 0
 393 646 338 701 271 701 c 0
268 287 m 0
 246 287 241 286 228 280 c 0
 167 251 149 175 191 122 c 0
 202 109 224 94 241 89 c 0
 260 84 286 85 306 93 c 0
 326 100 348 121 357 140 c 0
 383 192 362 253 311 278 c 0
 295 286 291 287 268 287 c 0
234 578 m 0
 234 602 252 620 276 620 c 0
 300 620 319 602 319 578 c 0
 319 554 300 535 276 535 c 0
 252 535 234 554 234 578 c 0
234 578 m 0
 234 554 252 535 276 535 c 0
 300 535 319 554 319 578 c 0
 319 602 300 620 276 620 c 0
 252 620 234 602 234 578 c 0
234 578 m 0
 234 602 252 620 276 620 c 0
 300 620 319 602 319 578 c 0
 319 554 300 535 276 535 c 0
 252 535 234 554 234 578 c 0
EndSplineSet
Validated: 37
EndChar

StartChar: exclam
Encoding: 33 33 2
Width: 450
Flags: HW
LayerCount: 2
Fore
SplineSet
223 820 m 1
 223 820 l 1
 232 820 242 817 250 810 c 0
 269 794 267 806 269 586 c 2
 271 386 l 1
 292 379 l 2
 322 369 341 358 365 335 c 0
 437 267 454 168 409 82 c 0
 396 58 362 20 337 4 c 0
 291 -26 232 -37 179 -26 c 1
 179 -26 l 1
 100 -10 36 49 15 126 c 0
 8 152 8 209 15 234 c 0
 34 303 84 357 151 379 c 0
 158 382 167 384 169 384 c 0
 173 384 173 409 173 578 c 0
 173 712 174 776 176 785 c 0
 182 807 202 821 223 820 c 1
344 184 m 1
 100 184 l 1
 100 117 155 63 222 63 c 0
 289 63 344 117 344 184 c 1
184 183 m 0
 184 207 203 226 227 226 c 0
 251 226 270 207 270 183 c 0
 270 159 251 140 227 140 c 0
 203 140 184 159 184 183 c 0
184 183 m 0
 184 159 203 140 227 140 c 0
 251 140 270 159 270 183 c 0
 270 207 251 226 227 226 c 0
 203 226 184 207 184 183 c 0
184 183 m 0
 184 207 203 226 227 226 c 0
 251 226 270 207 270 183 c 0
 270 159 251 140 227 140 c 0
 203 140 184 159 184 183 c 0
EndSplineSet
Validated: 37
EndChar

StartChar: question
Encoding: 63 63 3
Width: 450
Flags: HW
LayerCount: 2
Fore
SplineSet
225 820 m 0
 250 820 279 815 302 806 c 0
 344 790 392 747 412 706 c 0
 429 672 433 652 433 609 c 0
 433 565 430 547 412 511 c 0
 402 491 395 482 373 460 c 0
 344 431 318 415 286 406 c 0
 271 402 269 400 268 394 c 0
 267 387 269 387 288 381 c 0
 317 372 342 358 366 335 c 0
 430 274 450 190 421 107 c 0
 402 51 353 1 297 -18 c 0
 260 -31 218 -33 178 -26 c 0
 137 -19 101 1 71 31 c 0
 28 74 6 130 10 191 c 0
 12 225 18 246 33 276 c 0
 43 295 50 305 72 327 c 0
 96 351 102 357 126 368 c 0
 141 375 157 381 163 382 c 2
 174 384 l 1
 174 419 l 2
 174 448 175 454 180 464 c 0
 189 481 196 486 228 490 c 0
 249 493 262 497 275 503 c 0
 297 514 319 537 329 559 c 0
 336 574 337 579 337 608 c 0
 337 638 336 642 329 656 c 0
 319 676 306 693 288 704 c 0
 267 717 250 721 213 722 c 0
 182 723 180 723 170 731 c 0
 140 754 144 799 176 813 c 0
 188 818 205 820 225 820 c 0
344 180 m 1
 100 180 l 1
 100 113 155 58 222 58 c 0
 289 58 344 113 344 180 c 1
184 178 m 0
 184 202 203 221 227 221 c 0
 251 221 270 202 270 178 c 0
 270 154 251 136 227 136 c 0
 203 136 184 154 184 178 c 0
184 178 m 0
 184 154 203 136 227 136 c 0
 251 136 270 154 270 178 c 0
 270 202 251 221 227 221 c 0
 203 221 184 202 184 178 c 0
184 178 m 0
 184 202 203 221 227 221 c 0
 251 221 270 202 270 178 c 0
 270 154 251 136 227 136 c 0
 203 136 184 154 184 178 c 0
EndSplineSet
Validated: 37
EndChar

StartChar: C
Encoding: 67 67 4
Width: 750
Flags: HW
LayerCount: 2
Fore
SplineSet
374 800 m 0
 421 800 443 797 485 784 c 0
 578 755 657 683 697 595 c 0
 725 533 739 444 723 423 c 0
 709 405 709 405 636 404 c 2
 570 403 l 1
 565 388 l 2
 550 335 502 281 450 260 c 0
 412 245 360 242 320 252 c 0
 267 266 216 307 192 356 c 0
 164 413 164 474 191 531 c 2
 203 556 l 1
 181 579 l 2
 169 592 158 603 157 603 c 0
 155 604 142 584 132 565 c 0
 80 462 104 332 191 251 c 0
 236 209 288 187 352 181 c 0
 388 178 399 174 408 161 c 0
 413 154 414 147 416 113 c 0
 418 65 417 33 411 22 c 0
 402 4 375 -5 357 3 c 1
 357 3 l 1
 347 8 338 17 334 27 c 0
 332 31 332 48 332 65 c 0
 332 95 332 96 326 97 c 0
 323 98 309 101 296 103 c 0
 227 116 164 150 114 203 c 0
 68 252 40 303 26 369 c 0
 18 406 18 479 25 513 c 0
 48 624 114 711 211 761 c 0
 266 790 310 800 374 800 c 0
371 715 m 0
 348 715 325 711 302 705 c 0
 281 699 247 684 228 672 c 2
 216 665 l 1
 241 641 l 1
 265 617 l 1
 284 627 l 2
 337 654 410 655 461 629 c 0
 513 603 551 557 566 505 c 2
 570 489 l 1
 603 489 l 2
 629 489 636 489 636 492 c 0
 636 501 622 545 612 565 c 0
 565 660 471 716 371 715 c 0
374 567 m 0
 307 567 252 513 252 446 c 0
 252 379 307 324 374 324 c 0
 441 324 496 379 496 446 c 0
 496 513 441 567 374 567 c 0
336 444 m 0
 336 468 355 487 379 487 c 0
 403 487 422 468 422 444 c 0
 422 420 403 401 379 401 c 0
 355 401 336 420 336 444 c 0
336 444 m 0
 336 420 355 401 379 401 c 0
 403 401 422 420 422 444 c 0
 422 468 403 487 379 487 c 0
 355 487 336 468 336 444 c 0
336 444 m 0
 336 468 355 487 379 487 c 0
 403 487 422 468 422 444 c 0
 422 420 403 401 379 401 c 0
 355 401 336 420 336 444 c 0
EndSplineSet
Validated: 37
EndChar

StartChar: D
Encoding: 68 68 5
Width: 650
Flags: HW
LayerCount: 2
Fore
SplineSet
248 775 m 0
 251 775 254 775 258 775 c 0
 340 774 424 741 490 684 c 0
 653 543 661 287 509 134 c 0
 451 76 377 40 293 29 c 0
 255 24 234 24 221 30 c 1
 221 30 l 1
 187 45 187 95 221 112 c 0
 225 114 241 117 261 118 c 0
 279 119 303 122 314 125 c 0
 401 146 480 217 511 302 c 0
 532 359 533 433 513 492 c 0
 490 560 434 624 370 655 c 0
 339 670 290 684 288 678 c 0
 288 677 288 661 288 642 c 2
 288 607 l 1
 297 605 l 2
 312 602 341 590 357 580 c 0
 386 562 419 525 434 495 c 0
 451 461 458 418 453 377 c 0
 447 323 428 282 390 246 c 0
 362 219 336 205 299 195 c 0
 270 187 214 187 186 195 c 0
 124 212 76 252 50 308 c 0
 38 335 32 356 30 386 c 0
 24 485 88 577 180 603 c 2
 196 608 l 1
 197 679 l 2
 198 758 199 759 217 770 c 0
 224 775 228 775 248 775 c 0
242 522 m 0
 175 522 120 467 120 400 c 0
 120 333 175 279 242 279 c 0
 309 279 364 333 364 400 c 0
 364 467 309 522 242 522 c 0
205 399 m 0
 205 423 223 442 247 442 c 0
 271 442 290 423 290 399 c 0
 290 375 271 356 247 356 c 0
 223 356 205 375 205 399 c 0
205 399 m 0
 205 375 223 356 247 356 c 0
 271 356 290 375 290 399 c 0
 290 423 271 442 247 442 c 0
 223 442 205 423 205 399 c 0
205 399 m 0
 205 423 223 442 247 442 c 0
 271 442 290 423 290 399 c 0
 290 375 271 356 247 356 c 0
 223 356 205 375 205 399 c 0
EndSplineSet
Validated: 37
EndChar

StartChar: E
Encoding: 69 69 6
Width: 650
Flags: HW
LayerCount: 2
Fore
SplineSet
474 765 m 0
 545 765 549 765 559 760 c 0
 587 747 593 708 570 687 c 0
 555 674 549 673 466 674 c 2
 392 674 l 1
 380 668 l 2
 370 663 366 660 361 649 c 0
 357 642 354 629 353 622 c 2
 352 609 l 1
 368 605 l 2
 401 597 431 580 459 553 c 0
 487 526 503 500 513 465 c 2
 518 447 l 1
 555 447 l 2
 587 447 594 446 602 442 c 0
 614 436 619 431 624 419 c 0
 633 398 623 373 602 362 c 0
 597 359 586 358 557 357 c 2
 518 355 l 1
 514 340 l 2
 495 272 439 218 370 200 c 2
 353 196 l 1
 354 187 l 2
 355 171 360 159 369 149 c 0
 384 131 384 131 473 131 c 2
 551 131 l 1
 563 124 l 2
 583 112 591 86 580 65 c 0
 574 54 568 49 557 44 c 0
 545 39 397 39 374 44 c 1
 374 44 l 1
 349 49 328 61 308 81 c 0
 281 108 269 138 264 183 c 2
 262 199 l 1
 250 202 l 2
 243 204 229 209 218 214 c 0
 166 239 126 287 112 343 c 2
 109 355 l 1
 70 357 l 2
 26 358 18 361 7 377 c 0
 -2 391 -2 412 7 426 c 0
 18 443 29 446 71 446 c 2
 108 446 l 1
 112 462 l 2
 128 524 179 580 243 600 c 2
 265 607 l 1
 265 622 l 2
 265 675 299 728 347 751 c 0
 372 763 390 765 474 765 c 0
314 524 m 0
 247 524 192 469 192 402 c 0
 192 335 247 281 314 281 c 0
 381 281 435 335 435 402 c 0
 435 469 381 524 314 524 c 0
276 401 m 0
 276 425 295 444 319 444 c 0
 343 444 361 425 361 401 c 0
 361 377 343 358 319 358 c 0
 295 358 276 377 276 401 c 0
276 401 m 0
 276 377 295 358 319 358 c 0
 343 358 361 377 361 401 c 0
 361 425 343 444 319 444 c 0
 295 444 276 425 276 401 c 0
276 401 m 0
 276 425 295 444 319 444 c 0
 343 444 361 425 361 401 c 0
 361 377 343 358 319 358 c 0
 295 358 276 377 276 401 c 0
EndSplineSet
Validated: 37
EndChar

StartChar: F
Encoding: 70 70 7
Width: 750
Flags: HW
LayerCount: 2
Fore
SplineSet
237 775 m 0
 260 775 284 772 307 764 c 0
 370 743 423 688 439 626 c 2
 443 608 l 1
 571 607 l 2
 690 606 699 606 708 602 c 0
 719 597 727 584 729 571 c 0
 732 552 727 544 625 440 c 0
 572 386 526 341 522 339 c 0
 513 334 492 334 483 339 c 0
 479 341 457 361 435 384 c 2
 395 425 l 1
 388 418 l 2
 371 398 328 371 300 364 c 2
 286 361 l 1
 285 332 l 1
 285 303 l 1
 335 302 l 2
 393 301 401 299 412 282 c 0
 426 260 420 231 398 218 c 0
 387 212 387 212 336 212 c 2
 285 212 l 1
 285 180 l 2
 285 149 285 148 292 138 c 0
 301 126 312 118 327 116 c 0
 350 112 367 94 367 71 c 0
 367 40 343 21 309 26 c 0
 295 28 270 41 253 53 c 2
 240 62 l 1
 227 53 l 2
 210 40 196 34 178 29 c 0
 161 24 152 24 139 28 c 1
 139 28 l 1
 121 35 110 50 110 70 c 0
 110 84 114 95 125 104 c 0
 133 111 140 113 160 118 c 0
 170 120 187 135 191 144 c 0
 194 151 195 171 195 255 c 2
 195 359 l 1
 169 367 l 2
 104 388 55 441 37 509 c 0
 22 567 32 632 62 679 c 0
 102 740 168 774 237 775 c 0
238 690 m 0
 171 690 116 636 116 569 c 0
 116 502 171 447 238 447 c 0
 305 447 360 502 360 569 c 0
 360 636 305 690 238 690 c 0
499 520 m 0
 475 520 451 520 444 519 c 2
 433 517 l 1
 467 480 l 2
 486 460 503 444 504 444 c 0
 505 444 521 460 539 480 c 1
 539 480 l 1
 573 516 l 1
 558 518 l 2
 548 519 523 520 499 520 c 0
200 567 m 0
 200 591 219 610 243 610 c 0
 267 610 286 591 286 567 c 0
 286 543 267 524 243 524 c 0
 219 524 200 543 200 567 c 0
200 567 m 0
 200 543 219 524 243 524 c 0
 267 524 286 543 286 567 c 0
 286 591 267 610 243 610 c 0
 219 610 200 591 200 567 c 0
200 567 m 0
 200 591 219 610 243 610 c 0
 267 610 286 591 286 567 c 0
 286 543 267 524 243 524 c 0
 219 524 200 543 200 567 c 0
EndSplineSet
Validated: 37
EndChar

StartChar: G
Encoding: 71 71 8
Width: 500
Flags: HW
LayerCount: 2
Fore
SplineSet
251 810 m 0
 276 810 302 809 318 805 c 0
 380 792 452 756 467 731 c 0
 478 713 471 695 430 626 c 0
 421 611 414 598 414 597 c 0
 414 596 419 587 426 577 c 0
 449 542 458 510 458 463 c 0
 458 388 430 333 373 296 c 0
 364 290 315 266 263 241 c 0
 211 216 169 195 169 194 c 0
 169 193 182 186 198 179 c 0
 253 154 410 76 423 68 c 0
 438 59 444 45 444 28 c 0
 444 4 429 -13 406 -15 c 0
 394 -16 384 -12 217 71 c 0
 120 119 38 162 34 165 c 0
 16 181 16 207 33 225 c 0
 37 229 64 244 94 258 c 0
 124 272 149 284 149 285 c 0
 149 286 142 291 133 297 c 0
 99 319 68 361 54 402 c 0
 44 431 42 482 49 512 c 0
 54 535 70 570 83 586 c 2
 91 597 l 1
 70 632 l 2
 29 698 26 709 36 729 c 0
 49 754 121 791 185 805 c 0
 201 809 226 810 251 810 c 0
254 721 m 0
 230 721 205 719 189 715 c 0
 165 709 136 698 136 694 c 0
 136 692 153 661 158 655 c 0
 160 653 164 653 175 658 c 0
 183 661 198 667 209 669 c 0
 247 678 294 673 330 657 c 2
 342 652 l 1
 355 672 l 2
 362 683 367 694 367 695 c 0
 367 698 325 714 304 718 c 0
 291 720 273 721 254 721 c 0
252 588 m 0
 185 588 130 534 130 467 c 0
 130 400 185 345 252 345 c 0
 319 345 374 400 374 467 c 0
 374 534 319 588 252 588 c 0
214 465 m 0
 214 489 233 508 257 508 c 0
 281 508 300 489 300 465 c 0
 300 441 281 422 257 422 c 0
 233 422 214 441 214 465 c 0
214 465 m 0
 214 441 233 422 257 422 c 0
 281 422 300 441 300 465 c 0
 300 489 281 508 257 508 c 0
 233 508 214 489 214 465 c 0
214 465 m 0
 214 489 233 508 257 508 c 0
 281 508 300 489 300 465 c 0
 300 441 281 422 257 422 c 0
 233 422 214 441 214 465 c 0
EndSplineSet
Validated: 37
EndChar

StartChar: H
Encoding: 72 72 9
Width: 800
Flags: HW
LayerCount: 2
Fore
SplineSet
309 750 m 0
 314 750 318 749 323 747 c 0
 340 740 350 725 350 706 c 0
 350 683 338 670 308 660 c 0
 266 646 232 625 202 595 c 0
 180 573 155 537 142 509 c 0
 134 491 122 451 124 446 c 0
 125 444 135 443 158 444 c 2
 190 445 l 1
 195 461 l 2
 197 470 203 485 208 495 c 0
 252 585 356 629 453 598 c 0
 516 578 570 523 587 461 c 2
 591 445 l 1
 624 444 l 1
 658 443 l 1
 658 450 l 2
 658 460 647 497 638 516 c 0
 619 557 580 601 542 626 c 0
 515 643 507 648 477 658 c 0
 463 663 449 669 446 672 c 0
 433 684 428 706 435 723 c 0
 440 735 446 741 457 746 c 0
 470 752 478 752 504 743 c 0
 631 701 721 600 746 468 c 0
 752 438 752 371 746 338 c 0
 726 226 654 128 553 78 c 0
 530 67 484 50 475 50 c 0
 466 50 450 58 443 66 c 0
 434 76 431 94 434 107 c 0
 438 122 450 132 473 140 c 0
 484 144 500 150 509 154 c 0
 559 177 609 226 637 282 c 0
 647 301 657 333 658 347 c 2
 659 357 l 1
 649 357 l 2
 643 357 628 356 615 356 c 2
 591 356 l 1
 589 345 l 2
 588 339 584 327 580 317 c 0
 555 260 500 214 437 199 c 0
 409 192 358 194 332 202 c 0
 284 217 243 246 217 287 c 0
 206 304 195 331 192 347 c 2
 191 355 l 1
 158 356 l 2
 140 357 124 357 123 357 c 0
 121 356 127 327 135 305 c 0
 149 266 172 232 205 201 c 0
 236 171 274 150 314 138 c 0
 348 128 362 96 344 69 c 0
 337 58 321 50 308 50 c 0
 303 50 287 54 274 58 c 1
 274 58 l 1
 189 86 122 142 76 222 c 0
 26 309 16 419 50 521 c 0
 67 573 94 615 136 657 c 0
 177 698 219 724 274 742 c 0
 291 748 301 750 309 750 c 0
390 522 m 0
 323 522 269 467 269 400 c 0
 269 333 323 278 390 278 c 0
 457 278 512 333 512 400 c 0
 512 467 457 522 390 522 c 0
353 399 m 0
 353 423 371 441 395 441 c 0
 419 441 438 423 438 399 c 0
 438 375 419 356 395 356 c 0
 371 356 353 375 353 399 c 0
353 399 m 0
 353 375 371 356 395 356 c 0
 419 356 438 375 438 399 c 0
 438 423 419 441 395 441 c 0
 371 441 353 423 353 399 c 0
353 399 m 0
 353 423 371 441 395 441 c 0
 419 441 438 423 438 399 c 0
 438 375 419 356 395 356 c 0
 371 356 353 375 353 399 c 0
EndSplineSet
Validated: 37
EndChar

StartChar: I
Encoding: 73 73 10
Width: 450
Flags: HW
LayerCount: 2
Fore
SplineSet
221 800 m 0
 235 800 248 794 258 781 c 0
 263 774 263 769 264 687 c 2
 265 601 l 1
 282 596 l 2
 347 578 403 521 422 451 c 0
 428 427 428 373 422 349 c 0
 403 279 347 221 282 203 c 2
 265 199 l 1
 265 114 l 2
 265 31 265 30 259 21 c 0
 256 16 250 9 246 6 c 0
 237 -1 213 -2 202 3 c 1
 202 3 l 1
 191 8 180 21 178 33 c 0
 177 38 177 68 178 99 c 0
 179 130 179 165 178 177 c 2
 176 199 l 1
 154 206 l 2
 123 216 102 229 77 254 c 0
 17 313 -2 396 28 475 c 0
 49 531 100 579 155 595 c 2
 177 601 l 1
 177 683 l 2
 177 762 177 764 183 776 c 0
 191 792 206 800 221 800 c 0
220 522 m 0
 153 522 99 467 99 400 c 0
 99 333 153 278 220 278 c 0
 287 278 342 333 342 400 c 0
 342 467 287 522 220 522 c 0
183 399 m 0
 183 423 201 441 225 441 c 0
 249 441 268 423 268 399 c 0
 268 375 249 356 225 356 c 0
 201 356 183 375 183 399 c 0
183 399 m 0
 183 375 201 356 225 356 c 0
 249 356 268 375 268 399 c 0
 268 423 249 441 225 441 c 0
 201 441 183 423 183 399 c 0
183 399 m 0
 183 423 201 441 225 441 c 0
 249 441 268 423 268 399 c 0
 268 375 249 356 225 356 c 0
 201 356 183 375 183 399 c 0
EndSplineSet
Validated: 37
EndChar

StartChar: J
Encoding: 74 74 11
Width: 550
Flags: HW
LayerCount: 2
Fore
SplineSet
476 765 m 0
 478 765 481 764 483 764 c 0
 497 762 511 751 517 739 c 0
 528 714 522 700 482 662 c 2
 453 634 l 1
 464 614 l 2
 498 550 494 466 454 406 c 0
 429 368 386 337 342 324 c 2
 323 318 l 1
 322 223 l 2
 321 141 320 127 316 115 c 0
 292 42 220 2 142 19 c 0
 88 31 44 74 33 129 c 0
 26 164 30 186 47 198 c 0
 54 203 59 204 75 204 c 0
 90 204 95 203 101 199 c 0
 113 190 117 182 120 164 c 0
 123 140 126 132 136 121 c 0
 148 109 160 104 177 104 c 0
 194 104 209 111 219 124 c 0
 232 140 233 144 234 234 c 2
 235 317 l 1
 228 319 l 2
 191 327 159 343 134 367 c 0
 89 409 70 457 70 522 c 0
 70 596 102 655 163 696 c 0
 225 737 308 741 375 705 c 2
 390 697 l 1
 422 728 l 2
 452 757 462 765 476 765 c 0
278 642 m 0
 211 642 156 587 156 520 c 0
 156 453 211 398 278 398 c 0
 345 398 400 453 400 520 c 0
 400 587 345 642 278 642 c 0
240 519 m 0
 240 543 259 561 283 561 c 0
 307 561 326 543 326 519 c 0
 326 495 307 476 283 476 c 0
 259 476 240 495 240 519 c 0
240 519 m 0
 240 495 259 476 283 476 c 0
 307 476 326 495 326 519 c 0
 326 543 307 561 283 561 c 0
 259 561 240 543 240 519 c 0
240 519 m 0
 240 543 259 561 283 561 c 0
 307 561 326 543 326 519 c 0
 326 495 307 476 283 476 c 0
 259 476 240 495 240 519 c 0
EndSplineSet
Validated: 37
EndChar

StartChar: K
Encoding: 75 75 12
Width: 600
Flags: HW
LayerCount: 2
Fore
SplineSet
217 750 m 0
 228 750 240 746 248 738 c 0
 261 725 262 720 262 658 c 2
 262 601 l 1
 272 599 l 2
 326 585 372 548 398 498 c 2
 408 480 l 1
 456 528 l 2
 482 554 507 577 511 579 c 0
 527 587 547 582 560 568 c 0
 569 559 572 551 572 539 c 0
 572 522 565 512 507 456 c 2
 451 401 l 1
 506 346 l 2
 573 279 579 270 568 245 c 0
 557 221 531 212 508 223 c 0
 502 226 481 244 453 273 c 0
 428 298 408 318 408 318 c 0
 408 318 403 309 397 298 c 0
 373 252 324 214 274 202 c 2
 262 199 l 1
 262 143 l 2
 262 81 261 76 248 63 c 0
 237 52 217 47 202 53 c 0
 191 57 182 65 178 74 c 0
 174 82 173 90 173 141 c 2
 173 198 l 1
 157 203 l 2
 124 211 95 229 69 256 c 0
 42 285 26 312 17 348 c 0
 -12 460 57 576 167 600 c 2
 173 601 l 1
 173 659 l 2
 173 711 174 717 178 726 c 0
 185 741 201 750 217 750 c 0
216 522 m 0
 149 522 95 467 95 400 c 0
 95 333 149 278 216 278 c 0
 283 278 338 333 338 400 c 0
 338 467 283 522 216 522 c 0
179 399 m 0
 179 423 197 441 221 441 c 0
 245 441 264 423 264 399 c 0
 264 375 245 356 221 356 c 0
 197 356 179 375 179 399 c 0
179 399 m 0
 179 375 197 356 221 356 c 0
 245 356 264 375 264 399 c 0
 264 423 245 441 221 441 c 0
 197 441 179 423 179 399 c 0
179 399 m 0
 179 423 197 441 221 441 c 0
 245 441 264 423 264 399 c 0
 264 375 245 356 221 356 c 0
 197 356 179 375 179 399 c 0
EndSplineSet
Validated: 37
EndChar

StartChar: L
Encoding: 76 76 13
Width: 600
Flags: HW
LayerCount: 2
Fore
SplineSet
67 760 m 0
 81 760 92 752 122 722 c 2
 153 691 l 1
 173 701 l 2
 200 716 223 721 257 723 c 0
 320 726 370 708 413 667 c 0
 443 638 462 610 473 572 c 0
 478 556 478 548 478 514 c 0
 478 473 476 462 465 431 c 0
 444 374 388 324 330 309 c 2
 313 305 l 1
 312 258 l 2
 311 232 310 198 310 184 c 2
 310 158 l 1
 323 169 l 2
 353 193 388 205 431 205 c 0
 478 205 506 195 534 167 c 0
 572 129 583 69 557 46 c 0
 545 35 541 35 397 35 c 0
 314 35 257 37 252 38 c 0
 239 42 231 48 227 59 c 0
 224 68 223 84 223 187 c 2
 223 304 l 1
 206 309 l 2
 151 323 101 364 75 419 c 0
 46 478 50 562 83 615 c 2
 90 626 l 1
 57 659 l 2
 22 694 19 702 21 720 c 0
 24 740 41 757 61 760 c 0
 63 760 65 760 67 760 c 0
267 633 m 0
 200 633 145 579 145 512 c 0
 145 445 200 390 267 390 c 0
 334 390 388 445 388 512 c 0
 388 579 334 633 267 633 c 0
229 510 m 0
 229 534 248 553 272 553 c 0
 296 553 314 534 314 510 c 0
 314 486 296 467 272 467 c 0
 248 467 229 486 229 510 c 0
229 510 m 0
 229 486 248 467 272 467 c 0
 296 467 314 486 314 510 c 0
 314 534 296 553 272 553 c 0
 248 553 229 534 229 510 c 0
229 510 m 0
 229 534 248 553 272 553 c 0
 296 553 314 534 314 510 c 0
 314 486 296 467 272 467 c 0
 248 467 229 486 229 510 c 0
EndSplineSet
Validated: 37
EndChar

StartChar: M
Encoding: 77 77 14
Width: 800
Flags: HW
LayerCount: 2
Fore
SplineSet
400 670 m 0
 421 670 442 669 457 666 c 0
 505 657 554 637 595 609 c 2
 618 593 l 1
 638 613 l 2
 662 639 671 644 688 644 c 0
 709 644 724 632 731 612 c 0
 737 593 729 577 701 550 c 2
 680 530 l 1
 685 525 l 2
 702 506 726 460 739 421 c 0
 770 329 763 234 720 144 c 0
 703 109 690 97 668 97 c 0
 648 97 631 111 625 129 c 0
 621 142 622 150 639 184 c 0
 658 224 666 252 668 295 c 0
 671 372 651 430 600 489 c 0
 561 535 512 562 444 577 c 2
 437 579 l 1
 437 545 l 1
 437 511 l 1
 444 509 l 2
 488 499 529 473 557 438 c 0
 575 415 584 399 593 372 c 0
 601 349 601 348 601 306 c 0
 601 269 601 262 596 245 c 0
 579 185 531 132 474 110 c 0
 443 98 396 92 367 97 c 1
 367 97 l 2
 348 100 323 106 310 111 c 0
 274 126 234 161 214 195 c 0
 172 266 176 364 224 429 c 0
 254 469 289 494 331 506 c 0
 341 509 349 511 349 511 c 0
 350 512 351 576 350 577 c 0
 347 580 300 566 278 556 c 0
 236 536 202 509 174 471 c 0
 137 422 120 370 120 306 c 0
 120 253 128 226 152 177 c 0
 169 143 170 128 155 112 c 0
 134 89 99 93 81 121 c 0
 62 151 43 201 35 244 c 0
 28 279 29 341 36 374 c 0
 47 424 65 467 92 508 c 2
 107 530 l 1
 84 554 l 2
 69 569 60 580 59 585 c 0
 58 589 57 594 56 596 c 0
 52 609 69 635 84 641 c 0
 105 650 121 643 150 614 c 2
 171 594 l 1
 190 607 l 2
 229 634 275 653 325 664 c 0
 344 668 373 670 400 670 c 0
394 425 m 0
 327 425 272 371 272 304 c 0
 272 237 327 182 394 182 c 0
 461 182 516 237 516 304 c 0
 516 371 461 425 394 425 c 0
356 302 m 0
 356 326 375 345 399 345 c 0
 423 345 442 326 442 302 c 0
 442 278 423 259 399 259 c 0
 375 259 356 278 356 302 c 0
356 302 m 0
 356 278 375 259 399 259 c 0
 423 259 442 278 442 302 c 0
 442 326 423 345 399 345 c 0
 375 345 356 326 356 302 c 0
356 302 m 0
 356 326 375 345 399 345 c 0
 423 345 442 326 442 302 c 0
 442 278 423 259 399 259 c 0
 375 259 356 278 356 302 c 0
EndSplineSet
Validated: 37
EndChar

StartChar: N
Encoding: 78 78 15
Width: 800
Flags: HW
LayerCount: 2
Fore
SplineSet
708 720 m 0
 720 720 732 715 740 705 c 0
 750 692 750 685 745 627 c 0
 739 561 727 420 713 247 c 0
 707 175 701 111 700 107 c 0
 697 90 675 76 655 76 c 0
 639 76 631 83 569 146 c 2
 508 209 l 1
 501 204 l 2
 447 166 359 161 297 192 c 0
 243 219 199 271 184 328 c 0
 180 343 179 353 179 380 c 0
 179 420 182 437 198 470 c 2
 209 493 l 1
 184 518 l 2
 168 534 159 541 158 539 c 0
 157 537 156 523 155 506 c 0
 152 441 130 187 121 107 c 0
 119 90 116 74 114 70 c 0
 103 48 76 39 53 49 c 0
 42 54 35 64 31 76 c 0
 29 83 32 138 52 365 c 0
 65 519 77 649 78 654 c 0
 82 681 112 697 138 686 c 0
 144 684 169 660 209 620 c 2
 271 558 l 1
 280 564 l 2
 313 584 348 593 388 593 c 0
 419 593 438 590 464 581 c 0
 517 562 566 514 585 463 c 0
 596 434 599 410 598 374 c 0
 597 337 593 322 579 292 c 2
 569 272 l 1
 594 247 l 2
 608 233 619 223 620 223 c 0
 621 223 622 233 623 247 c 0
 632 379 657 671 661 687 c 0
 666 708 688 720 708 720 c 0
389 504 m 0
 322 504 268 449 268 382 c 0
 268 315 322 261 389 261 c 0
 456 261 511 315 511 382 c 0
 511 449 456 504 389 504 c 0
352 381 m 0
 352 405 370 424 394 424 c 0
 418 424 437 405 437 381 c 0
 437 357 418 338 394 338 c 0
 370 338 352 357 352 381 c 0
352 381 m 0
 352 357 370 338 394 338 c 0
 418 338 437 357 437 381 c 0
 437 405 418 424 394 424 c 0
 370 424 352 405 352 381 c 0
352 381 m 0
 352 405 370 424 394 424 c 0
 418 424 437 405 437 381 c 0
 437 357 418 338 394 338 c 0
 370 338 352 357 352 381 c 0
EndSplineSet
Validated: 37
EndChar

StartChar: O
Encoding: 79 79 16
Width: 800
Flags: HW
LayerCount: 2
Fore
SplineSet
396 780 m 0
 470 780 543 758 607 716 c 0
 634 698 676 658 697 630 c 0
 747 563 774 473 770 388 c 0
 765 290 728 207 660 139 c 0
 606 85 544 51 468 36 c 0
 435 29 375 28 343 33 c 0
 258 46 188 81 129 139 c 0
 74 194 41 256 26 333 c 0
 18 371 18 434 25 471 c 0
 50 603 138 710 263 756 c 0
 306 772 351 780 396 780 c 0
405 688 m 0
 376 688 342 685 322 680 c 0
 276 668 239 646 202 611 c 0
 160 571 133 527 119 473 c 0
 80 325 173 168 323 129 c 0
 352 121 350 119 350 160 c 2
 350 196 l 1
 334 200 l 2
 267 219 210 274 190 340 c 0
 180 374 179 423 187 460 c 0
 203 531 261 591 334 611 c 0
 369 621 425 620 458 610 c 0
 523 590 577 539 598 475 c 0
 620 410 612 343 576 289 c 0
 547 246 499 211 450 199 c 2
 440 197 l 1
 440 160 l 2
 440 131 440 124 443 124 c 0
 453 124 499 138 517 147 c 0
 591 182 648 250 669 328 c 0
 677 357 681 397 678 428 c 0
 667 555 564 665 439 685 c 0
 430 687 418 688 405 688 c 0
395 527 m 0
 328 527 273 472 273 405 c 0
 273 338 328 283 395 283 c 0
 462 283 517 338 517 405 c 0
 517 472 462 527 395 527 c 0
357 404 m 0
 357 428 376 446 400 446 c 0
 424 446 443 428 443 404 c 0
 443 380 424 361 400 361 c 0
 376 361 357 380 357 404 c 0
357 404 m 0
 357 380 376 361 400 361 c 0
 424 361 443 380 443 404 c 0
 443 428 424 446 400 446 c 0
 376 446 357 428 357 404 c 0
357 404 m 0
 357 428 376 446 400 446 c 0
 424 446 443 428 443 404 c 0
 443 380 424 361 400 361 c 0
 376 361 357 380 357 404 c 0
EndSplineSet
Validated: 37
EndChar

StartChar: P
Encoding: 80 80 17
Width: 500
Flags: HW
LayerCount: 2
Fore
SplineSet
66 750 m 0
 71 750 76 749 81 747 c 0
 89 744 99 736 122 712 c 0
 144 689 154 680 156 682 c 0
 163 688 194 702 211 707 c 0
 234 713 276 716 300 712 c 0
 343 705 381 686 414 655 c 0
 461 610 483 556 479 492 c 0
 476 432 454 385 412 346 c 0
 372 309 325 291 267 291 c 0
 227 291 191 301 157 322 c 2
 146 329 l 1
 145 192 l 1
 144 55 l 1
 138 45 l 2
 126 27 101 20 81 29 c 1
 81 29 l 1
 69 34 59 47 57 57 c 0
 56 61 56 172 56 304 c 2
 57 544 l 1
 63 562 l 2
 66 572 73 588 78 599 c 2
 88 618 l 1
 58 648 l 2
 24 680 18 689 20 707 c 0
 22 732 44 750 66 750 c 0
267 623 m 0
 200 623 145 569 145 502 c 0
 145 435 200 380 267 380 c 0
 334 380 389 435 389 502 c 0
 389 569 334 623 267 623 c 0
229 500 m 0
 229 524 248 543 272 543 c 0
 296 543 315 524 315 500 c 0
 315 476 296 457 272 457 c 0
 248 457 229 476 229 500 c 0
229 500 m 0
 229 476 248 457 272 457 c 0
 296 457 315 476 315 500 c 0
 315 524 296 543 272 543 c 0
 248 543 229 524 229 500 c 0
229 500 m 0
 229 524 248 543 272 543 c 0
 296 543 315 524 315 500 c 0
 315 476 296 457 272 457 c 0
 248 457 229 476 229 500 c 0
EndSplineSet
Validated: 37
EndChar

StartChar: Q
Encoding: 81 81 18
Width: 600
Flags: HW
LayerCount: 2
Fore
SplineSet
221 680 m 0
 253 680 283 672 312 658 c 0
 367 631 404 585 420 522 c 0
 426 499 426 455 421 432 c 0
 416 412 409 390 399 374 c 2
 391 361 l 1
 433 319 l 2
 456 296 475 278 476 278 c 0
 477 278 485 285 494 294 c 0
 504 305 515 312 521 315 c 0
 559 333 598 294 579 257 c 0
 577 253 567 242 557 232 c 2
 539 214 l 1
 558 194 l 2
 584 168 589 157 583 137 c 0
 578 120 557 105 540 105 c 0
 536 105 529 107 524 109 c 0
 517 112 493 135 422 206 c 2
 329 299 l 1
 319 293 l 2
 305 284 284 276 265 271 c 0
 251 267 244 267 218 267 c 0
 191 267 185 268 168 273 c 0
 62 302 -4 399 12 505 c 0
 19 554 36 587 71 621 c 0
 109 658 152 677 207 680 c 0
 212 680 216 680 221 680 c 0
217 596 m 0
 150 596 95 541 95 474 c 0
 95 407 150 352 217 352 c 0
 284 352 339 407 339 474 c 0
 339 541 284 596 217 596 c 0
180 472 m 0
 180 496 198 515 222 515 c 0
 246 515 265 496 265 472 c 0
 265 448 246 430 222 430 c 0
 198 430 180 448 180 472 c 0
180 472 m 0
 180 448 198 430 222 430 c 0
 246 430 265 448 265 472 c 0
 265 496 246 515 222 515 c 0
 198 515 180 496 180 472 c 0
180 472 m 0
 180 496 198 515 222 515 c 0
 246 515 265 496 265 472 c 0
 265 448 246 430 222 430 c 0
 198 430 180 448 180 472 c 0
EndSplineSet
Validated: 37
EndChar

StartChar: R
Encoding: 82 82 19
Width: 550
Flags: HW
LayerCount: 2
Fore
SplineSet
251 720 m 0
 290 720 308 716 339 701 c 0
 362 690 374 682 393 664 c 0
 412 646 426 628 438 602 c 0
 454 569 456 557 456 515 c 0
 456 472 452 456 434 422 c 2
 423 401 l 1
 464 361 l 2
 516 310 522 297 511 273 c 0
 501 250 470 240 449 252 c 0
 447 253 426 273 403 296 c 2
 361 338 l 1
 339 327 l 2
 307 311 287 305 251 305 c 0
 208 305 174 314 143 334 c 0
 136 338 129 342 129 342 c 0
 129 342 130 284 130 214 c 0
 131 123 130 84 128 77 c 0
 121 53 96 39 70 47 c 1
 70 47 l 2
 59 50 45 64 42 76 c 0
 40 84 39 141 40 318 c 2
 41 549 l 1
 46 567 l 2
 67 641 124 697 197 715 c 0
 213 719 223 720 251 720 c 0
249 632 m 0
 182 632 128 578 128 511 c 0
 128 444 182 389 249 389 c 0
 316 389 371 444 371 511 c 0
 371 578 316 632 249 632 c 0
212 509 m 0
 212 533 231 552 255 552 c 0
 279 552 297 533 297 509 c 0
 297 485 279 466 255 466 c 0
 231 466 212 485 212 509 c 0
212 509 m 0
 212 485 231 466 255 466 c 0
 279 466 297 485 297 509 c 0
 297 533 279 552 255 552 c 0
 231 552 212 533 212 509 c 0
212 509 m 0
 212 533 231 552 255 552 c 0
 279 552 297 533 297 509 c 0
 297 485 279 466 255 466 c 0
 231 466 212 485 212 509 c 0
EndSplineSet
Validated: 37
EndChar

StartChar: S
Encoding: 83 83 20
Width: 700
Flags: HW
LayerCount: 2
Fore
SplineSet
350 825 m 0
 365 825 379 819 388 806 c 0
 394 797 394 793 394 743 c 0
 394 696 394 690 389 682 c 0
 378 664 343 655 328 667 c 0
 319 674 309 673 280 666 c 0
 224 652 169 616 134 571 c 2
 125 559 l 1
 149 543 l 2
 162 534 174 527 176 526 c 0
 178 525 186 533 194 542 c 0
 218 571 251 594 291 605 c 0
 323 614 378 614 408 605 c 0
 479 583 529 533 553 461 c 0
 559 444 560 435 560 400 c 2
 560 359 l 1
 585 343 l 2
 661 293 676 280 679 262 c 0
 682 247 678 234 655 200 c 0
 601 118 518 63 420 43 c 2
 395 38 l 1
 394 20 l 2
 392 -7 376 -23 352 -25 c 0
 341 -26 337 -24 328 -19 c 2
 328 -19 l 1
 309 -8 306 0 305 60 c 0
 305 109 305 113 311 121 c 0
 319 132 332 139 348 141 c 0
 360 142 363 141 372 135 c 0
 385 126 395 126 432 138 c 0
 477 152 510 174 547 212 c 0
 561 227 573 240 572 242 c 0
 571 244 560 252 547 261 c 2
 523 277 l 1
 503 256 l 2
 468 218 427 197 373 190 c 0
 316 183 258 201 213 239 c 0
 191 258 175 279 161 308 c 0
 144 343 140 359 140 403 c 2
 140 442 l 1
 88 478 l 2
 59 498 32 517 28 522 c 0
 13 541 18 560 47 603 c 0
 100 683 192 743 285 759 c 2
 305 762 l 1
 306 779 l 2
 308 800 315 813 330 820 c 0
 337 823 343 825 350 825 c 0
350 522 m 0
 283 522 228 467 228 400 c 0
 228 333 283 278 350 278 c 0
 417 278 472 333 472 400 c 0
 472 467 417 522 350 522 c 0
312 399 m 0
 312 423 331 441 355 441 c 0
 379 441 398 423 398 399 c 0
 398 375 379 356 355 356 c 0
 331 356 312 375 312 399 c 0
312 399 m 0
 312 375 331 356 355 356 c 0
 379 356 398 375 398 399 c 0
 398 423 379 441 355 441 c 0
 331 441 312 423 312 399 c 0
312 399 m 0
 312 423 331 441 355 441 c 0
 379 441 398 423 398 399 c 0
 398 375 379 356 355 356 c 0
 331 356 312 375 312 399 c 0
EndSplineSet
Validated: 37
EndChar

StartChar: T
Encoding: 84 84 21
Width: 500
Flags: HW
LayerCount: 2
Fore
SplineSet
248 710 m 0
 346 710 442 710 448 708 c 0
 459 705 473 693 477 681 c 0
 484 663 477 641 461 629 c 2
 451 622 l 1
 370 621 l 1
 288 620 l 1
 288 546 l 1
 288 471 l 1
 306 466 l 2
 369 448 420 397 442 332 c 0
 450 309 452 289 451 257 c 0
 449 216 440 187 420 155 c 0
 406 133 375 102 353 89 c 0
 311 64 256 54 208 63 c 1
 208 63 l 1
 185 67 169 72 151 81 c 0
 97 108 58 156 43 213 c 0
 38 231 37 239 37 267 c 0
 37 314 46 346 68 381 c 0
 96 424 136 454 182 466 c 2
 199 471 l 1
 201 512 l 2
 202 535 202 568 202 586 c 2
 201 620 l 1
 120 621 l 2
 50 622 38 623 32 626 c 0
 -3 646 5 699 45 708 c 0
 52 710 150 710 248 710 c 0
245 388 m 0
 178 388 123 333 123 266 c 0
 123 199 178 144 245 144 c 0
 312 144 367 199 367 266 c 0
 367 333 312 388 245 388 c 0
207 265 m 0
 207 289 226 307 250 307 c 0
 274 307 292 289 292 265 c 0
 292 241 274 222 250 222 c 0
 226 222 207 241 207 265 c 0
207 265 m 0
 207 241 226 222 250 222 c 0
 274 222 293 241 293 265 c 0
 293 289 274 307 250 307 c 0
 226 307 207 289 207 265 c 0
207 265 m 0
 207 289 226 307 250 307 c 0
 274 307 292 289 292 265 c 0
 292 241 274 222 250 222 c 0
 226 222 207 241 207 265 c 0
EndSplineSet
Validated: 37
EndChar

StartChar: U
Encoding: 85 85 22
Width: 800
Flags: HW
LayerCount: 2
Fore
SplineSet
394 700 m 0
 401 700 407 699 414 696 c 0
 426 690 435 681 438 667 c 0
 441 657 441 656 455 653 c 0
 474 649 511 630 530 615 c 0
 563 589 592 542 603 499 c 0
 615 450 607 391 582 349 c 2
 574 335 l 1
 600 310 l 2
 614 296 625 284 626 285 c 0
 652 317 675 378 677 426 c 0
 679 463 682 474 693 484 c 0
 701 491 717 498 725 498 c 0
 733 498 748 492 756 484 c 0
 772 470 774 451 767 400 c 0
 756 315 722 246 662 186 c 0
 602 126 531 90 445 78 c 0
 422 75 380 74 358 76 c 0
 297 83 235 105 184 139 c 0
 151 161 104 208 83 240 c 0
 45 297 25 357 21 427 c 0
 19 458 22 472 34 484 c 0
 54 504 90 500 105 476 c 0
 109 469 111 462 113 436 c 0
 117 384 129 341 151 305 c 0
 157 295 163 286 164 285 c 0
 165 284 177 296 191 310 c 2
 217 336 l 1
 209 350 l 2
 160 433 182 549 259 614 c 0
 279 631 314 649 335 653 c 0
 349 656 351 657 352 664 c 0
 356 685 374 699 394 700 c 0
395 572 m 0
 328 572 274 518 274 451 c 0
 274 384 328 329 395 329 c 0
 462 329 517 384 517 451 c 0
 517 518 462 572 395 572 c 0
281 271 m 1
 255 247 l 2
 241 234 230 222 230 221 c 0
 230 217 267 195 289 187 c 0
 307 180 340 170 347 170 c 0
 349 170 350 179 350 206 c 2
 350 241 l 1
 336 246 l 2
 328 248 312 255 301 261 c 2
 281 271 l 1
510 270 m 1
 491 261 l 2
 480 256 465 249 456 246 c 2
 440 241 l 1
 440 206 l 2
 440 186 442 170 443 170 c 0
 444 170 453 172 464 175 c 0
 502 185 536 200 560 219 c 0
 560 219 550 231 536 245 c 2
 510 270 l 1
358 446 m 0
 358 470 376 488 400 488 c 0
 424 488 443 470 443 446 c 0
 443 422 424 403 400 403 c 0
 376 403 358 422 358 446 c 0
358 446 m 0
 358 422 376 403 400 403 c 0
 424 403 443 422 443 446 c 0
 443 470 424 488 400 488 c 0
 376 488 358 470 358 446 c 0
358 446 m 0
 358 470 376 488 400 488 c 0
 424 488 443 470 443 446 c 0
 443 422 424 403 400 403 c 0
 376 403 358 422 358 446 c 0
EndSplineSet
Validated: 37
EndChar

StartChar: V
Encoding: 86 86 23
Width: 700
Flags: HW
LayerCount: 2
Fore
SplineSet
286 770 m 0
 294 770 301 770 309 770 c 0
 382 767 442 749 486 719 c 0
 495 713 504 708 505 708 c 0
 506 708 519 718 534 728 c 0
 549 738 571 751 582 756 c 0
 600 765 604 766 616 765 c 0
 634 764 645 756 653 739 c 0
 665 715 654 691 627 678 c 0
 607 669 558 639 554 635 c 0
 552 633 552 626 554 614 c 0
 558 581 549 539 528 498 c 0
 509 461 483 430 447 407 c 0
 436 400 426 394 426 394 c 0
 426 394 433 385 442 375 c 0
 540 274 513 105 389 42 c 0
 378 36 360 29 349 26 c 0
 323 19 278 18 252 23 c 0
 174 38 111 95 89 171 c 0
 84 188 84 197 84 231 c 0
 84 269 84 272 92 295 c 0
 103 328 119 354 141 376 c 0
 156 391 159 395 155 396 c 0
 152 397 144 402 136 407 c 0
 49 463 6 587 45 665 c 0
 77 728 172 769 286 770 c 0
294 680 m 0
 241 680 188 670 156 651 c 0
 128 634 120 624 120 600 c 0
 120 505 213 438 322 453 c 0
 385 462 436 500 455 552 c 0
 458 561 461 577 463 589 c 0
 466 609 466 610 461 621 c 0
 455 633 440 645 419 656 c 0
 387 672 341 680 294 680 c 0
290 354 m 0
 223 354 169 299 169 232 c 0
 169 165 223 110 290 110 c 0
 357 110 412 165 412 232 c 0
 412 299 357 354 290 354 c 0
253 230 m 0
 253 254 271 273 295 273 c 0
 319 273 338 254 338 230 c 0
 338 206 319 188 295 188 c 0
 271 188 253 206 253 230 c 0
253 230 m 0
 253 206 271 188 295 188 c 0
 319 188 338 206 338 230 c 0
 338 254 319 273 295 273 c 0
 271 273 253 254 253 230 c 0
253 230 m 0
 253 254 271 273 295 273 c 0
 319 273 338 254 338 230 c 0
 338 206 319 188 295 188 c 0
 271 188 253 206 253 230 c 0
EndSplineSet
Validated: 37
EndChar

StartChar: W
Encoding: 87 87 24
Width: 750
Flags: HW
LayerCount: 2
Fore
SplineSet
369 730 m 0
 389 730 409 716 414 700 c 0
 415 695 416 647 416 582 c 2
 416 471 l 1
 426 469 l 2
 461 460 495 440 521 412 c 2
 539 392 l 1
 555 405 l 2
 596 438 621 482 625 535 c 0
 627 562 628 566 636 575 c 0
 646 587 655 591 671 591 c 0
 687 591 697 587 707 575 c 0
 720 561 722 545 716 506 c 0
 705 433 662 367 597 324 c 0
 583 315 577 309 577 306 c 0
 577 304 578 289 579 273 c 0
 582 210 561 159 516 115 c 0
 488 87 456 69 418 60 c 0
 397 55 354 53 333 57 c 1
 333 57 l 1
 286 66 241 91 213 124 c 0
 178 165 162 205 160 258 c 0
 159 275 161 293 162 298 c 2
 164 308 l 1
 144 321 l 2
 82 362 35 434 23 506 c 0
 17 543 19 559 30 574 c 0
 45 595 88 596 104 575 c 0
 110 567 112 557 115 528 c 0
 120 477 144 435 183 404 c 0
 191 398 198 392 199 392 c 0
 200 392 205 397 210 404 c 0
 232 432 273 459 313 469 c 2
 323 471 l 1
 323 583 l 2
 323 656 323 697 325 701 c 0
 331 717 351 730 369 730 c 0
370 389 m 0
 303 389 248 334 248 267 c 0
 248 200 303 145 370 145 c 0
 437 145 492 200 492 267 c 0
 492 334 437 389 370 389 c 0
332 266 m 0
 332 290 351 308 375 308 c 0
 399 308 418 290 418 266 c 0
 418 242 399 223 375 223 c 0
 351 223 332 242 332 266 c 0
332 266 m 0
 332 242 351 223 375 223 c 0
 399 223 418 242 418 266 c 0
 418 290 399 308 375 308 c 0
 351 308 332 290 332 266 c 0
332 266 m 0
 332 290 351 308 375 308 c 0
 399 308 418 290 418 266 c 0
 418 242 399 223 375 223 c 0
 351 223 332 242 332 266 c 0
EndSplineSet
Validated: 37
EndChar

StartChar: X
Encoding: 88 88 25
Width: 650
Flags: HW
LayerCount: 2
Fore
SplineSet
554 650 m 0
 561 650 568 649 574 646 c 0
 583 641 591 632 596 623 c 0
 601 614 601 596 596 586 c 0
 594 582 574 560 547 532 c 2
 502 486 l 1
 511 470 l 2
 528 438 536 404 534 366 c 0
 532 330 525 301 509 275 c 2
 501 263 l 1
 547 217 l 2
 593 172 598 166 600 152 c 0
 603 130 585 106 561 101 c 0
 553 99 550 99 541 102 c 0
 530 106 527 107 467 169 c 2
 438 199 l 1
 432 195 l 2
 371 157 280 157 222 194 c 2
 212 201 l 1
 195 183 l 2
 137 122 122 108 113 104 c 0
 104 100 94 99 85 102 c 2
 85 102 l 1
 59 110 43 137 52 160 c 0
 55 167 63 177 102 216 c 2
 149 262 l 1
 141 277 l 2
 131 294 126 306 121 327 c 0
 115 350 115 399 121 422 c 0
 126 442 134 463 143 477 c 2
 149 488 l 1
 103 534 l 2
 78 559 56 583 54 586 c 0
 40 614 64 650 96 650 c 0
 114 650 120 644 169 594 c 2
 212 550 l 1
 221 556 l 2
 280 593 366 593 426 557 c 2
 438 550 l 1
 482 595 l 2
 506 620 529 642 534 645 c 0
 539 648 547 650 554 650 c 0
325 497 m 0
 258 497 204 442 204 375 c 0
 204 308 258 253 325 253 c 0
 392 253 447 308 447 375 c 0
 447 442 392 497 325 497 c 0
288 374 m 0
 288 398 306 416 330 416 c 0
 354 416 373 398 373 374 c 0
 373 350 354 331 330 331 c 0
 306 331 288 350 288 374 c 0
288 374 m 0
 288 350 306 331 330 331 c 0
 354 331 373 350 373 374 c 0
 373 398 354 416 330 416 c 0
 306 416 288 398 288 374 c 0
288 374 m 0
 288 398 306 416 330 416 c 0
 354 416 373 398 373 374 c 0
 373 350 354 331 330 331 c 0
 306 331 288 350 288 374 c 0
EndSplineSet
Validated: 37
EndChar

StartChar: Y
Encoding: 89 89 26
Width: 550
Flags: HW
LayerCount: 2
Fore
SplineSet
75 760 m 0
 89 760 103 749 131 722 c 2
 162 692 l 1
 183 703 l 2
 243 733 316 731 373 700 c 2
 388 692 l 1
 420 723 l 2
 454 757 463 762 482 759 c 0
 502 756 520 734 520 714 c 0
 520 699 514 689 483 658 c 2
 452 628 l 1
 462 608 l 2
 476 581 481 557 483 522 c 0
 484 488 481 463 470 435 c 0
 446 374 390 325 332 313 c 2
 320 310 l 1
 320 232 l 2
 321 155 321 154 327 145 c 0
 333 135 345 129 361 126 c 0
 385 122 402 106 404 85 c 0
 407 57 387 35 358 35 c 0
 336 35 296 52 284 67 c 0
 279 73 278 73 265 63 c 0
 250 51 235 44 217 39 c 0
 199 34 187 34 174 39 c 1
 174 39 l 1
 162 43 151 53 148 66 c 0
 141 92 159 116 193 126 c 0
 214 132 225 141 228 153 c 0
 229 158 230 193 230 236 c 2
 230 309 l 1
 212 315 l 2
 177 325 138 350 115 378 c 0
 82 417 66 461 66 512 c 0
 66 551 75 588 92 616 c 2
 98 627 l 1
 68 658 l 2
 51 676 36 693 34 698 c 0
 24 721 34 744 58 755 c 0
 64 758 69 760 75 760 c 0
275 638 m 0
 208 638 153 584 153 517 c 0
 153 450 208 395 275 395 c 0
 342 395 397 450 397 517 c 0
 397 584 342 638 275 638 c 0
238 515 m 0
 238 539 256 558 280 558 c 0
 304 558 323 539 323 515 c 0
 323 491 304 473 280 473 c 0
 256 473 238 491 238 515 c 0
238 515 m 0
 238 491 256 472 280 472 c 0
 304 472 323 491 323 515 c 0
 323 539 304 558 280 558 c 0
 256 558 238 539 238 515 c 0
238 515 m 0
 238 539 256 558 280 558 c 0
 304 558 323 539 323 515 c 0
 323 491 304 473 280 473 c 0
 256 473 238 491 238 515 c 0
EndSplineSet
Validated: 37
EndChar

StartChar: Z
Encoding: 90 90 27
Width: 500
Flags: HW
LayerCount: 2
Fore
SplineSet
142 760 m 0
 176 760 181 750 286 645 c 0
 348 584 403 527 409 519 c 0
 442 473 455 411 444 358 c 0
 435 314 418 280 390 251 c 0
 363 223 324 200 293 195 c 0
 288 194 282 194 280 193 c 0
 278 192 288 180 310 158 c 2
 343 124 l 1
 369 126 l 2
 406 128 421 121 430 101 c 0
 440 79 433 54 413 42 c 0
 402 36 400 36 358 35 c 0
 320 34 314 35 306 39 c 0
 294 45 84 253 69 274 c 0
 55 294 42 321 35 345 c 0
 31 361 30 371 30 398 c 0
 30 428 31 435 37 454 c 0
 55 514 91 558 142 584 c 0
 160 593 188 602 197 602 c 0
 203 602 200 606 170 636 c 2
 136 670 l 1
 106 670 l 2
 67 670 56 675 47 697 c 0
 39 717 45 739 62 751 c 0
 72 758 74 758 113 759 c 0
 125 759 134 760 142 760 c 0
239 519 m 0
 172 519 117 465 117 398 c 0
 117 331 172 276 239 276 c 0
 306 276 361 331 361 398 c 0
 361 465 306 519 239 519 c 0
201 396 m 0
 201 420 220 439 244 439 c 0
 268 439 287 420 287 396 c 0
 287 372 268 353 244 353 c 0
 220 353 201 372 201 396 c 0
201 396 m 0
 201 372 220 353 244 353 c 0
 268 353 287 372 287 396 c 0
 287 420 268 439 244 439 c 0
 220 439 201 420 201 396 c 0
201 396 m 0
 201 420 220 439 244 439 c 0
 268 439 287 420 287 396 c 0
 287 372 268 353 244 353 c 0
 220 353 201 372 201 396 c 0
EndSplineSet
Validated: 37
EndChar

StartChar: uni0394
Encoding: 916 916 32
Width: 1050
Flags: HW
LayerCount: 2
Fore
SplineSet
892.0859375 64.076171875 m 0
 894.2109375 39.64453125 881.725585938 33.7216796875 807.311523438 24.025390625 c 0
 775.803710938 19.9208984375 707.856445312 14.8984375 656.32421875 12.8671875 c 2
 656.32421875 12.8671875 562.000976562 10.8642578125 561.684570312 10.8388671875 c 0
 561.665039062 10.8583984375 656.325195312 12.8291015625 656.325195312 12.8291015625 c 2
 707.859375 14.861328125 775.806640625 19.8828125 807.31640625 23.9892578125 c 0
 881.705078125 33.681640625 894.251953125 39.6025390625 892.123046875 64.0791015625 c 0
 890.274414062 85.2978515625 875.043945312 134.610351562 853.115234375 190.35546875 c 0
 839.607421875 224.693359375 776.633789062 355.594726562 770.725585938 361.607421875 c 0
 770.72265625 361.610351562 765.661132812 369.736328125 765.661132812 369.736328125 c 1
 724.6796875 346.059570312 l 1
 751.700195312 231.130859375 677.700195312 116.356445312 561.665039062 93.447265625 c 1
 561.702148438 93.447265625 l 1
 677.795898438 116.368164062 751.731445312 231.162109375 724.715820312 346.068359375 c 1
 765.6796875 369.704101562 l 1
 770.693359375 361.587890625 l 1
 776.5859375 355.591796875 839.575195312 224.672851562 853.081054688 190.342773438 c 0
 875.008789062 134.599609375 890.23828125 85.28515625 892.0859375 64.076171875 c 0
437.595703125 11.4501953125 m 0
 437.595703125 11.4501953125 4681.47558594 -69.865234375 479.614257812 10.6455078125 c 1
 437.596679688 11.48828125 l 2
 368.307617188 13.1083984375 248.252929688 21.0166015625 207.208007812 26.6630859375 c 0
 153.37890625 34.072265625 130.05859375 41.4306640625 130.05859375 50.9501953125 c 0
 130.05859375 65.384765625 162.99609375 161.099609375 188.23828125 220.000976562 c 0
 227.986328125 308.442382812 265.008789062 376.915039062 264.828125 377.008789062 c 0
 237.5078125 325.078125 211.155273438 271.083007812 188.204101562 220.015625 c 0
 162.959960938 161.110351562 130.021484375 65.404296875 130.021484375 50.9501953125 c 0
 130.021484375 41.380859375 153.391601562 34.0322265625 207.203125 26.626953125 c 0
 248.251953125 20.978515625 368.3046875 13.0712890625 437.595703125 11.4501953125 c 1024
521.061523438 419.489257812 m 0
 588.270507812 419.489257812 642.752929688 365.005859375 642.752929688 297.797851562 c 0
 642.752929688 230.588867188 588.26953125 176.106445312 521.061523438 176.106445312 c 0
 453.853515625 176.106445312 399.369140625 230.588867188 399.369140625 297.797851562 c 0
 399.369140625 365.005859375 453.853515625 419.489257812 521.061523438 419.489257812 c 0
521.061523438 419.52734375 m 0
 453.833007812 419.52734375 399.33203125 365.026367188 399.33203125 297.797851562 c 0
 399.33203125 230.568359375 453.833007812 176.068359375 521.061523438 176.068359375 c 0
 588.290039062 176.068359375 642.790039062 230.568359375 642.790039062 297.797851562 c 0
 642.790039062 365.026367188 588.291015625 419.52734375 521.061523438 419.52734375 c 0
516.061523438 734.42578125 m 0
 526.484375 734.42578125 562.153320312 691.456054688 608.478515625 623.040039062 c 1
 608.478515625 623.040039062 722.513671875 439.278320312 722.831054688 438.802734375 c 0
 722.82421875 438.776367188 608.508789062 623.060546875 608.508789062 623.060546875 c 1
 562.1875 691.470703125 526.524414062 734.463867188 516.061523438 734.463867188 c 0
 500.584960938 734.463867188 396.4609375 600.91015625 337.383789062 505.31640625 c 0
 326.317382812 487.352539062 315.072265625 468.112304688 303.807617188 448.299804688 c 1
 303.80078125 448.325195312 351.994140625 420.498046875 351.994140625 420.498046875 c 1
 435.29296875 536.090820312 607.747070312 535.94140625 690.895507812 420.342773438 c 1
 690.876953125 420.346679688 709.416015625 431.055664062 718.251953125 436.158203125 c 1
 709.440429688 431.072265625 690.895507812 420.37109375 690.876953125 420.375 c 0
 607.670898438 536.053710938 435.229492188 536.06640625 351.963867188 420.520507812 c 1
 351.963867188 420.520507812 303.833007812 448.306640625 303.826171875 448.33203125 c 0
 315.090820312 468.14453125 326.349609375 487.333984375 337.416015625 505.297851562 c 0
 396.49609375 600.895507812 500.62890625 734.42578125 516.061523438 734.42578125 c 0
489.791992188 841.119140625 m 0
 513.364257812 852.53125 514.21484375 852.564453125 538.561523438 843.266601562 c 0
 654.235351562 799.090820312 950.65625 313.040039062 1008.14160156 73.26171875 c 0
 1022.30859375 14.1611328125 1021.71191406 0.478515625 1004.12109375 -20.2685546875 c 0
 970.576171875 -59.837890625 865.000976562 -84.00390625 675.515625 -95.4716796875 c 0
 587.08203125 -100.826171875 517.348632812 -102.174804688 393.463867188 -95.283203125 c 0
 380.557617188 -94.669921875 367.073242188 -94.2265625 353.139648438 -93.767578125 c 0
 252.831054688 -90.462890625 129.280273438 -86.3916015625 30.9248046875 -12.966796875 c 1
 5.91796875 25.1982421875 49.513671875 163.588867188 151.072265625 364.576171875 c 0
 268.999023438 597.953125 416.688476562 805.731445312 489.791992188 841.119140625 c 0
23.982421875 18.259765625 m 0
 23.982421875 4.5888671875 26.263671875 -5.91796875 30.90234375 -12.9970703125 c 0
 129.26953125 -86.4306640625 252.831054688 -90.5 353.138671875 -93.8046875 c 0
 367.071289062 -94.263671875 380.555664062 -94.7080078125 393.461914062 -95.3203125 c 0
 490.689453125 -100.728515625 563.299804688 -102.302734375 675.518554688 -95.5087890625 c 0
 865.001953125 -84.0419921875 970.588867188 -59.8818359375 1004.14941406 -20.29296875 c 0
 1021.75976562 0.4775390625 1022.33984375 14.19140625 1008.17773438 73.2705078125 c 0
 950.690429688 313.056640625 654.276367188 799.115234375 538.57421875 843.30078125 c 0
 514.208007812 852.607421875 513.352539062 852.56640625 489.775390625 841.153320312 c 0
 416.65234375 805.755859375 268.966796875 597.971679688 151.0390625 364.592773438 c 0
 68.6630859375 201.567382812 23.982421875 78.8115234375 23.982421875 18.259765625 c 0
561.68359375 17.4384765625 m 1
 561.68359375 13.6181640625 561.684570312 11.2001953125 561.68359375 10.876953125 c 1
 561.68359375 10.876953125 561.68359375 13.3486328125 561.68359375 17.4384765625 c 1
270.469726562 373.752929688 m 1
 284.09375 365.884765625 317.819335938 346.407226562 317.826171875 346.390625 c 0
 290.395507812 231.373046875 364.52734375 116.508789062 480.434570312 93.47265625 c 1
 480.434570312 93.47265625 480.438476562 10.91015625 480.456054688 10.6298828125 c 0
 480.4375 10.6103515625 480.44140625 93.5087890625 480.44140625 93.5087890625 c 1
 364.29296875 116.592773438 290.483398438 231.697265625 317.844726562 346.422851562 c 1
 317.8515625 346.40625 284.127929688 365.870117188 270.469726562 373.752929688 c 1
722.798828125 438.783203125 m 1
 722.798828125 438.783203125 720.998046875 437.743164062 718.251953125 436.158203125 c 1
 720.801757812 437.630859375 722.543945312 438.63671875 722.798828125 438.783203125 c 1
513.881835938 849.978515625 m 0
 520.0859375 850.251953125 526.388671875 847.935546875 538.567382812 843.284179688 c 0
 654.255859375 799.103515625 950.672851562 313.048828125 1008.15917969 73.2666015625 c 0
 1022.32421875 14.1767578125 1021.73535156 0.478515625 1004.13476562 -20.2802734375 c 0
 970.58203125 -59.859375 865.000976562 -84.0224609375 675.516601562 -95.490234375 c 0
 575.456054688 -101.547851562 505.265625 -101.520507812 393.462890625 -95.3017578125 c 0
 287.641601562 -90.2734375 142.9375 -96.6103515625 30.9130859375 -12.9814453125 c 1
 5.7470703125 25.4267578125 50.0810546875 164.75390625 151.055664062 364.584960938 c 0
 268.982421875 597.962890625 416.669921875 805.744140625 489.783203125 841.13671875 c 0
 501.5703125 846.842773438 507.676757812 849.705078125 513.881835938 849.978515625 c 0
516.061523438 734.4453125 m 0
 500.606445312 734.4453125 396.478515625 600.903320312 337.399414062 505.307617188 c 0
 326.333007812 487.34375 315.081054688 468.12890625 303.81640625 448.31640625 c 1
 351.978515625 420.509765625 l 1
 391.188476562 474.920898438 454.123046875 507.217773438 521.190429688 507.344726562 c 0
 588.455078125 507.337890625 651.608398438 474.965820312 690.885742188 420.359375 c 1
 722.814453125 438.79296875 l 1
 608.493164062 623.05078125 l 2
 562.169921875 691.463867188 526.50390625 734.4453125 516.061523438 734.4453125 c 0
521.061523438 419.508789062 m 0
 453.842773438 419.508789062 399.350585938 365.016601562 399.350585938 297.797851562 c 0
 399.350585938 230.579101562 453.842773438 176.087890625 521.061523438 176.087890625 c 0
 588.279296875 176.087890625 642.771484375 230.579101562 642.771484375 297.797851562 c 0
 642.771484375 365.016601562 588.280273438 419.508789062 521.061523438 419.508789062 c 0
264.844726562 377.000976562 m 1
 237.524414062 325.0703125 211.171875 271.076171875 188.220703125 220.008789062 c 0
 162.977539062 161.10546875 130.040039062 65.39453125 130.040039062 50.9501953125 c 0
 130.040039062 41.40625 153.384765625 34.052734375 207.205078125 26.6455078125 c 0
 248.251953125 20.998046875 368.305664062 13.08984375 437.595703125 11.4697265625 c 2
 480.4375 10.6298828125 l 1
 480.4375 93.4912109375 l 1
 382.6953125 112.916992188 312.251953125 198.6328125 312.131835938 298.287109375 c 0
 312.161132812 314.494140625 314.075195312 330.642578125 317.834960938 346.407226562 c 1
 264.844726562 377.000976562 l 1
765.669921875 369.720703125 m 1
 724.697265625 346.064453125 l 1
 728.37890625 330.405273438 730.23828125 314.373046875 730.248046875 298.287109375 c 0
 730.124023438 198.536132812 659.544921875 112.768554688 561.68359375 93.447265625 c 1
 561.68359375 10.8583984375 l 1
 656.32421875 12.8486328125 l 2
 707.857421875 14.8798828125 775.8046875 19.90234375 807.313476562 24.0078125 c 0
 881.70703125 33.701171875 894.231445312 39.62109375 892.104492188 64.078125 c 0
 890.255859375 85.2919921875 875.026367188 134.60546875 853.09765625 190.349609375 c 0
 839.590820312 224.68359375 776.609375 355.59375 770.708984375 361.59765625 c 2
 765.669921875 369.720703125 l 1
483.400390625 296.34375 m 0
 483.400390625 319.915039062 502.508789062 339.022460938 526.079101562 339.022460938 c 0
 549.649414062 339.022460938 568.756835938 319.915039062 568.756835938 296.34375 c 0
 568.756835938 272.772460938 549.649414062 253.666015625 526.079101562 253.666015625 c 0
 502.508789062 253.666015625 483.400390625 272.772460938 483.400390625 296.34375 c 0
483.389648438 296.34375 m 0
 483.389648438 272.767578125 502.502929688 253.655273438 526.079101562 253.655273438 c 0
 549.655273438 253.655273438 568.767578125 272.767578125 568.767578125 296.34375 c 0
 568.767578125 319.919921875 549.655273438 339.033203125 526.079101562 339.033203125 c 0
 502.502929688 339.033203125 483.389648438 319.919921875 483.389648438 296.34375 c 0
483.395507812 296.34375 m 0
 483.395507812 319.916992188 502.505859375 339.02734375 526.079101562 339.02734375 c 0
 549.65234375 339.02734375 568.762695312 319.916992188 568.762695312 296.34375 c 0
 568.762695312 272.76953125 549.65234375 253.66015625 526.079101562 253.66015625 c 0
 502.505859375 253.66015625 483.395507812 272.76953125 483.395507812 296.34375 c 0
EndSplineSet
Validated: 43
EndChar

StartChar: Theta
Encoding: 920 920 36
Width: 800
Flags: HW
LayerCount: 2
Fore
SplineSet
406 770 m 0
 627 770 805 582 780 352 c 0
 763 196 647 63 496 28 c 0
 453 18 357 17 318 27 c 1
 318 27 l 1
 208 55 120 126 71 225 c 0
 5 358 19 507 109 626 c 0
 157 690 245 745 323 761 c 0
 351 767 379 770 406 770 c 0
406 681 m 0
 331 681 256 652 200 594 c 0
 54 444 113 194 311 123 c 0
 327 117 345 113 352 113 c 0
 364 113 365 114 363 149 c 1
 363 149 l 1
 362 185 l 1
 332 196 l 2
 272 218 227 264 206 322 c 2
 196 351 l 1
 168 352 l 2
 142 354 140 355 134 374 c 0
 129 389 129 398 134 414 c 0
 140 434 141 435 168 437 c 0
 196 439 196 439 204 463 c 0
 221 513 272 569 319 590 c 0
 351 604 420 609 460 600 c 0
 523 586 581 532 606 466 c 2
 618 434 l 1
 639 437 l 2
 651 439 663 438 668 434 c 0
 680 425 685 390 677 370 c 0
 671 356 667 353 645 352 c 0
 629 351 618 347 616 342 c 0
 591 287 574 258 558 242 c 0
 541 225 488 195 462 187 c 0
 454 185 452 177 452 147 c 2
 452 111 l 1
 475 115 l 2
 534 124 615 184 651 243 c 0
 722 360 702 511 603 603 c 0
 547 655 476 681 406 681 c 0
406 517 m 0
 339 517 284 462 284 395 c 0
 284 328 339 273 406 273 c 0
 473 273 528 328 528 395 c 0
 528 462 473 517 406 517 c 0
368 394 m 0
 368 418 387 436 411 436 c 0
 435 436 454 418 454 394 c 0
 454 370 435 351 411 351 c 0
 387 351 368 370 368 394 c 0
368 394 m 0
 368 370 387 351 411 351 c 0
 435 351 454 370 454 394 c 0
 454 418 435 436 411 436 c 0
 387 436 368 418 368 394 c 0
368 394 m 0
 368 418 387 436 411 436 c 0
 435 436 454 418 454 394 c 0
 454 370 435 351 411 351 c 0
 387 351 368 370 368 394 c 0
EndSplineSet
Validated: 37
EndChar

StartChar: Lambda
Encoding: 923 923 39
Width: 700
Flags: HW
LayerCount: 2
Fore
SplineSet
292 770 m 0
 341 770 349 769 382 753 c 0
 428 731 463 696 485 650 c 0
 501 617 502 609 502 560 c 0
 502 512 500 503 487 476 c 0
 479 459 461 434 448 419 c 2
 424 392 l 1
 458 368 l 2
 498 339 515 319 535 281 c 0
 547 258 550 245 552 202 c 0
 554 150 554 150 572 136 c 0
 582 128 602 116 617 109 c 0
 654 92 661 86 661 65 c 0
 661 43 640 20 620 20 c 0
 603 20 570 37 535 62 c 2
 510 80 l 1
 465 58 l 2
 440 45 404 33 380 28 c 0
 332 18 252 18 206 27 c 1
 206 27 l 1
 129 42 69 77 44 120 c 0
 32 140 30 151 30 178 c 0
 30 261 71 330 155 387 c 2
 168 396 l 1
 157 404 l 2
 137 419 108 463 96 497 c 0
 61 600 110 710 211 757 c 0
 233 767 247 770 292 770 c 0
295 685 m 0
 228 685 174 630 174 563 c 0
 174 496 228 441 295 441 c 0
 362 441 417 496 417 563 c 0
 417 630 362 685 295 685 c 0
295 334 m 0
 260 334 250 332 219 317 c 0
 114 265 84 166 161 126 c 0
 205 103 289 95 359 106 c 0
 453 121 490 168 459 232 c 0
 442 266 413 293 367 317 c 0
 339 331 330 334 295 334 c 0
258 562 m 0
 258 586 276 604 300 604 c 0
 324 604 343 586 343 562 c 0
 343 538 324 519 300 519 c 0
 276 519 258 538 258 562 c 0
258 562 m 0
 258 538 276 519 300 519 c 0
 324 519 343 538 343 562 c 0
 343 586 324 604 300 604 c 0
 276 604 258 586 258 562 c 0
258 562 m 0
 258 586 276 604 300 604 c 0
 324 604 343 586 343 562 c 0
 343 538 324 519 300 519 c 0
 276 519 258 538 258 562 c 0
EndSplineSet
Validated: 37
EndChar

StartChar: Xi
Encoding: 926 926 42
Width: 700
Flags: HW
LayerCount: 2
Fore
SplineSet
370 830 m 0
 554 830 566 829 577 818 c 0
 584 811 588 799 588 785 c 0
 588 771 584 760 577 753 c 0
 567 743 559 743 478 743 c 2
 389 743 l 1
 389 671 l 1
 389 600 l 1
 418 590 l 2
 476 570 525 521 543 465 c 2
 552 436 l 1
 594 436 l 2
 646 436 658 428 658 391 c 0
 658 359 649 354 597 351 c 2
 554 348 l 1
 543 320 l 2
 520 261 475 216 418 197 c 2
 389 187 l 1
 389 127 l 1
 389 66 l 1
 475 66 l 2
 553 66 561 65 574 55 c 0
 591 42 594 11 580 -8 c 2
 571 -20 l 1
 350 -20 l 2
 146 -20 127 -20 120 -11 c 1
 120 -11 l 1
 101 11 105 49 129 60 c 0
 137 64 174 66 223 66 c 2
 303 66 l 1
 303 127 l 1
 303 189 l 1
 283 194 l 2
 265 199 228 220 206 239 c 0
 187 254 160 297 151 323 c 2
 142 351 l 1
 97 351 l 2
 55 351 51 352 41 365 c 0
 26 384 27 407 43 423 c 0
 55 435 61 436 99 436 c 2
 142 436 l 1
 148 458 l 2
 157 490 195 543 225 563 c 0
 239 573 263 586 277 591 c 2
 303 600 l 1
 303 671 l 1
 303 743 l 1
 218 743 l 2
 143 743 132 743 121 752 c 0
 105 765 103 803 119 819 c 0
 129 829 138 830 280 830 c 0
 314 830 344 830 370 830 c 0
344 516 m 0
 277 516 222 461 222 394 c 0
 222 327 277 273 344 273 c 0
 411 273 466 327 466 394 c 0
 466 461 411 516 344 516 c 0
306 393 m 0
 306 417 325 436 349 436 c 0
 373 436 392 417 392 393 c 0
 392 369 373 350 349 350 c 0
 325 350 306 369 306 393 c 0
306 393 m 0
 306 369 325 350 349 350 c 0
 373 350 392 369 392 393 c 0
 392 417 373 436 349 436 c 0
 325 436 306 417 306 393 c 0
306 393 m 0
 306 417 325 436 349 436 c 0
 373 436 392 417 392 393 c 0
 392 369 373 350 349 350 c 0
 325 350 306 369 306 393 c 0
EndSplineSet
Validated: 37
EndChar

StartChar: Pi
Encoding: 928 928 44
Width: 800
Flags: HW
LayerCount: 2
Fore
SplineSet
380 770 m 0
 388 770 397 769 406 769 c 0
 505 764 571 736 645 662 c 0
 686 621 697 606 718 563 c 0
 757 483 769 399 751 314 c 0
 742 271 707 196 680 163 c 0
 643 118 558 65 496 49 c 0
 461 40 443 46 434 73 c 0
 424 105 433 117 481 136 c 0
 528 155 580 190 606 222 c 0
 692 327 683 493 584 592 c 0
 552 624 481 664 449 666 c 2
 430 667 l 1
 430 638 l 2
 430 606 429 608 477 587 c 0
 558 552 610 451 593 364 c 0
 567 230 436 157 307 205 c 0
 283 214 267 225 240 252 c 0
 194 298 181 332 180 400 c 0
 180 446 180 451 199 489 c 0
 227 545 268 580 333 602 c 0
 341 605 342 611 342 637 c 0
 342 655 340 670 338 670 c 0
 323 670 266 645 237 626 c 0
 156 573 112 494 112 400 c 0
 112 288 169 196 269 146 c 0
 292 134 314 125 318 125 c 0
 322 125 331 118 337 110 c 0
 349 94 349 67 336 52 c 0
 327 41 291 43 254 57 c 1
 254 57 l 1
 143 100 62 190 31 305 c 0
 23 336 20 362 20 410 c 0
 20 467 21 479 35 519 c 0
 66 611 134 688 222 731 c 0
 278 759 321 770 380 770 c 0
390 519 m 0
 323 519 268 464 268 397 c 0
 268 330 323 275 390 275 c 0
 457 275 511 330 511 397 c 0
 511 464 457 519 390 519 c 0
352 395 m 0
 352 419 371 438 395 438 c 0
 419 438 437 419 437 395 c 0
 437 371 419 353 395 353 c 0
 371 353 352 371 352 395 c 0
352 395 m 0
 352 371 371 353 395 353 c 0
 419 353 437 371 437 395 c 0
 437 419 419 438 395 438 c 0
 371 438 352 419 352 395 c 0
352 395 m 0
 352 419 371 438 395 438 c 0
 419 438 437 419 437 395 c 0
 437 371 419 353 395 353 c 0
 371 353 352 371 352 395 c 0
EndSplineSet
Validated: 37
EndChar

StartChar: Sigma
Encoding: 931 931 46
Width: 550
Flags: HW
LayerCount: 2
Fore
SplineSet
246 760 m 0
 292 760 339 750 379 731 c 2
 410 717 l 1
 426 736 l 2
 446 760 459 764 480 753 c 0
 499 743 507 730 507 711 c 0
 507 697 446 609 432 602 c 0
 417 595 393 607 386 625 c 0
 372 662 256 686 183 668 c 0
 169 665 156 659 155 655 c 0
 154 651 158 635 165 620 c 0
 175 596 178 593 188 597 c 0
 194 599 222 601 249 601 c 0
 309 601 345 585 388 545 c 0
 498 442 467 261 329 197 c 0
 303 185 290 182 249 182 c 0
 222 182 193 184 185 186 c 0
 172 190 170 188 161 165 c 0
 150 136 152 134 193 125 c 0
 243 114 288 119 350 142 c 0
 373 150 382 156 384 166 c 0
 388 184 411 197 428 193 c 0
 446 188 507 101 507 80 c 0
 507 59 484 38 461 38 c 0
 447 38 440 42 427 58 c 2
 411 78 l 1
 379 64 l 2
 322 39 266 30 201 38 c 1
 201 38 l 1
 159 43 96 60 65 76 c 0
 38 90 38 102 66 174 c 0
 78 205 88 232 88 235 c 0
 88 238 80 253 70 268 c 0
 35 322 23 375 34 428 c 0
 41 464 65 515 82 530 c 0
 88 536 94 542 94 546 c 0
 94 550 83 581 69 616 c 0
 38 694 38 706 72 722 c 0
 108 739 177 755 227 759 c 0
 233 759 239 760 246 760 c 0
245 513 m 0
 178 513 123 458 123 391 c 0
 123 324 178 270 245 270 c 0
 312 270 367 324 367 391 c 0
 367 458 312 513 245 513 c 0
207 390 m 0
 207 414 226 433 250 433 c 0
 274 433 293 414 293 390 c 0
 293 366 274 347 250 347 c 0
 226 347 207 366 207 390 c 0
207 390 m 0
 207 366 226 347 250 347 c 0
 274 347 293 366 293 390 c 0
 293 414 274 433 250 433 c 0
 226 433 207 414 207 390 c 0
207 390 m 0
 207 414 226 433 250 433 c 0
 274 433 293 414 293 390 c 0
 293 366 274 347 250 347 c 0
 226 347 207 366 207 390 c 0
EndSplineSet
Validated: 37
EndChar

StartChar: Phi
Encoding: 934 934 49
Width: 800
Flags: HW
LayerCount: 2
Fore
SplineSet
394 880 m 0
 432 880 438 871 438 814 c 2
 438 768 l 1
 478 759 l 2
 646 723 768 570 768 396 c 0
 768 288 735 208 660 132 c 0
 599 71 540 39 453 22 c 2
 438 19 l 1
 438 -29 l 2
 438 -68 436 -79 428 -86 c 0
 414 -99 376 -98 362 -84 c 1
 362 -84 l 1
 353 -75 351 -66 351 -28 c 2
 351 18 l 1
 311 27 l 2
 144 64 21 217 20 389 c 0
 19 492 52 577 120 651 c 0
 169 704 262 754 326 763 c 2
 351 767 l 1
 351 811 l 2
 351 869 358 880 394 880 c 0
351 673 m 1
 328 668 l 2
 286 659 229 626 196 593 c 0
 109 506 88 376 143 264 c 0
 161 228 210 175 242 156 c 0
 274 137 324 116 339 116 c 0
 350 116 351 119 351 152 c 0
 351 179 349 187 343 187 c 0
 326 187 277 214 250 238 c 0
 232 255 215 276 204 299 c 0
 187 333 186 339 186 393 c 0
 186 446 188 452 204 485 c 0
 231 539 277 578 342 600 c 0
 350 603 351 610 351 638 c 2
 351 673 l 1
438 670 m 1
 438 637 l 2
 438 610 440 603 448 600 c 0
 511 579 564 534 588 481 c 0
 617 418 610 335 570 275 c 0
 548 241 498 202 463 192 c 2
 438 185 l 1
 438 150 l 1
 438 115 l 1
 458 119 l 2
 469 121 497 131 519 142 c 0
 636 199 700 335 668 460 c 0
 654 514 634 550 592 592 c 0
 550 634 501 661 460 667 c 2
 438 670 l 1
394 514 m 0
 327 514 272 459 272 392 c 0
 272 325 327 271 394 271 c 0
 461 271 516 325 516 392 c 0
 516 459 461 514 394 514 c 0
356 391 m 0
 356 415 375 434 399 434 c 0
 423 434 442 415 442 391 c 0
 442 367 423 348 399 348 c 0
 375 348 356 367 356 391 c 0
356 391 m 0
 356 367 375 348 399 348 c 0
 423 348 442 367 442 391 c 0
 442 415 423 434 399 434 c 0
 375 434 356 415 356 391 c 0
356 391 m 0
 356 415 375 434 399 434 c 0
 423 434 442 415 442 391 c 0
 442 367 423 348 399 348 c 0
 375 348 356 367 356 391 c 0
EndSplineSet
Validated: 37
EndChar

StartChar: Psi
Encoding: 936 936 51
Width: 750
Flags: HW
LayerCount: 2
Fore
SplineSet
366 890 m 0
 380 890 393 886 403 879 c 2
 417 868 l 1
 417 748 l 2
 417 655 419 627 424 627 c 0
 440 627 498 595 518 574 c 0
 530 562 542 552 545 552 c 0
 556 552 595 599 608 627 c 0
 616 644 623 672 625 693 c 0
 630 741 638 752 672 753 c 0
 705 754 718 739 718 702 c 0
 718 619 674 531 608 484 c 2
 582 466 l 1
 581 422 l 2
 580 370 569 335 539 295 c 0
 517 265 474 234 440 223 c 2
 417 216 l 1
 417 135 l 2
 417 43 415 47 467 24 c 0
 489 14 500 6 504 -5 c 0
 512 -26 505 -42 487 -52 c 0
 457 -68 422 -60 390 -30 c 2
 376 -17 l 1
 362 -31 l 2
 335 -58 294 -68 267 -54 c 1
 267 -54 l 1
 247 -44 238 -21 247 -3 c 0
 254 12 261 17 302 35 c 2
 323 44 l 1
 325 131 l 1
 326 217 l 1
 303 224 l 2
 252 238 197 293 175 348 c 0
 167 369 163 390 163 421 c 0
 163 464 162 465 146 473 c 0
 100 495 50 561 31 621 c 0
 25 642 20 670 20 694 c 0
 20 740 29 753 63 753 c 0
 94 753 106 739 112 693 c 0
 119 634 142 588 179 559 c 2
 198 545 l 1
 223 571 l 2
 238 587 263 604 287 615 c 2
 326 633 l 1
 326 753 l 2
 326 871 326 874 338 882 c 0
 345 887 355 890 366 890 c 0
373 544 m 0
 306 544 252 490 252 423 c 0
 252 356 306 301 373 301 c 0
 440 301 495 356 495 423 c 0
 495 490 440 544 373 544 c 0
336 421 m 0
 336 445 354 464 378 464 c 0
 402 464 421 445 421 421 c 0
 421 397 402 378 378 378 c 0
 354 378 336 397 336 421 c 0
336 421 m 0
 336 397 354 378 378 378 c 0
 402 378 421 397 421 421 c 0
 421 445 402 464 378 464 c 0
 354 464 336 445 336 421 c 0
336 421 m 0
 336 445 354 464 378 464 c 0
 402 464 421 445 421 421 c 0
 421 397 402 378 378 378 c 0
 354 378 336 397 336 421 c 0
EndSplineSet
Validated: 37
EndChar

StartChar: uni03A9
Encoding: 937 937 52
Width: 900
Flags: HW
LayerCount: 2
Fore
SplineSet
444 710 m 0
 495 710 532 701 589 673 c 0
 697 621 784 519 806 418 c 0
 814 382 810 295 799 254 c 2
 791 226 l 1
 814 226 l 2
 844 226 857 210 852 176 c 0
 847 140 837 135 765 135 c 0
 707 135 702 136 690 148 c 0
 673 165 674 176 696 231 c 0
 732 321 733 389 699 460 c 0
 663 536 582 603 507 619 c 2
 490 623 l 1
 490 586 l 1
 490 550 l 1
 513 543 l 2
 544 535 590 502 614 470 c 0
 685 377 660 230 561 168 c 0
 519 142 484 133 433 136 c 0
 377 139 332 159 295 199 c 0
 217 282 217 405 295 489 c 0
 317 513 375 547 392 547 c 0
 397 547 399 557 399 585 c 2
 399 623 l 1
 381 620 l 2
 371 618 346 607 324 597 c 0
 276 574 215 517 194 475 c 0
 152 392 153 331 198 222 c 0
 230 145 220 136 112 139 c 2
 112 139 l 2
 49 141 40 147 40 186 c 0
 40 214 52 226 80 226 c 0
 97 226 99 227 96 235 c 0
 94 240 89 263 84 285 c 0
 52 437 146 602 305 676 c 0
 358 701 396 710 444 710 c 0
447 464 m 0
 380 464 325 409 325 342 c 0
 325 275 380 220 447 220 c 0
 514 220 568 275 568 342 c 0
 568 409 514 464 447 464 c 0
409 341 m 0
 409 365 428 383 452 383 c 0
 476 383 494 365 494 341 c 0
 494 317 476 298 452 298 c 0
 428 298 409 317 409 341 c 0
409 341 m 0
 409 317 428 298 452 298 c 0
 476 298 494 317 494 341 c 0
 494 365 476 383 452 383 c 0
 428 383 409 365 409 341 c 0
409 341 m 0
 409 365 428 383 452 383 c 0
 476 383 494 365 494 341 c 0
 494 317 476 298 452 298 c 0
 428 298 409 317 409 341 c 0
EndSplineSet
Validated: 37
EndChar

StartChar: uni0411
Encoding: 1041 1041 54
Width: 500
Flags: HW
LayerCount: 2
Fore
SplineSet
264 760 m 0
 455 760 450 761 463 735 c 0
 477 709 468 671 442 643 c 0
 409 607 332 581 279 587 c 0
 249 590 202 605 172 621 c 0
 160 627 149 633 147 634 c 0
 145 635 144 595 144 546 c 0
 144 497 144 456 145 456 c 0
 146 456 158 462 172 469 c 0
 211 489 255 496 296 490 c 0
 483 463 545 223 394 112 c 0
 357 85 329 75 280 73 c 0
 234 71 212 75 177 93 c 2
 154 105 l 1
 119 70 l 2
 88 39 82 35 69 35 c 0
 61 35 49 39 42 43 c 0
 27 52 17 72 21 88 c 0
 23 94 39 114 57 133 c 2
 91 168 l 1
 78 194 l 2
 71 209 63 231 61 245 c 0
 55 277 54 722 60 737 c 0
 69 760 74 760 264 760 c 0
268 405 m 0
 201 405 146 350 146 283 c 0
 146 216 201 161 268 161 c 0
 335 161 389 216 389 283 c 0
 389 350 335 405 268 405 c 0
230 281 m 0
 230 305 249 324 273 324 c 0
 297 324 315 305 315 281 c 0
 315 257 297 239 273 239 c 0
 249 239 230 257 230 281 c 0
230 281 m 0
 230 257 249 239 273 239 c 0
 297 239 315 257 315 281 c 0
 315 305 297 324 273 324 c 0
 249 324 230 305 230 281 c 0
230 281 m 0
 230 305 249 324 273 324 c 0
 297 324 315 305 315 281 c 0
 315 257 297 239 273 239 c 0
 249 239 230 257 230 281 c 0
EndSplineSet
Validated: 37
EndChar

StartChar: uni0413
Encoding: 1043 1043 56
Width: 600
Flags: HW
LayerCount: 2
Fore
SplineSet
399 760 m 0
 549 760 549 760 561 748 c 0
 569 739 573 729 573 711 c 0
 573 659 536 611 483 596 c 0
 429 580 363 593 334 625 c 0
 328 631 322 637 320 637 c 0
 318 637 315 604 315 564 c 0
 315 500 316 491 324 488 c 0
 386 467 439 423 464 370 c 0
 477 343 479 332 479 282 c 0
 479 231 477 223 463 194 c 0
 443 153 402 111 361 91 c 0
 332 77 324 76 272 76 c 0
 222 76 213 77 187 90 c 2
 157 105 l 1
 121 70 l 2
 78 29 62 25 36 51 c 0
 11 76 14 89 55 132 c 2
 91 169 l 1
 78 200 l 2
 67 226 65 241 65 285 c 0
 65 332 67 343 80 370 c 0
 105 423 158 467 220 488 c 0
 229 491 229 502 229 617 c 0
 229 732 230 743 239 751 c 0
 248 759 267 760 399 760 c 0
273 404 m 0
 206 404 151 349 151 282 c 0
 151 215 206 161 273 161 c 0
 340 161 394 215 394 282 c 0
 394 349 340 404 273 404 c 0
235 281 m 0
 235 305 254 323 278 323 c 0
 302 323 320 305 320 281 c 0
 320 257 302 238 278 238 c 0
 254 238 235 257 235 281 c 0
235 281 m 0
 235 257 254 238 278 238 c 0
 302 238 320 257 320 281 c 0
 320 305 302 323 278 323 c 0
 254 323 235 305 235 281 c 0
235 281 m 0
 235 305 254 323 278 323 c 0
 302 323 320 305 320 281 c 0
 320 257 302 238 278 238 c 0
 254 238 235 257 235 281 c 0
EndSplineSet
Validated: 37
EndChar

StartChar: uni0414
Encoding: 1044 1044 57
Width: 550
Flags: HW
LayerCount: 2
Fore
SplineSet
290 730 m 0
 342 730 395 710 436 669 c 0
 451 654 468 633 474 622 c 0
 497 578 497 575 497 315 c 2
 497 76 l 1
 487 66 l 2
 474 54 443 51 427 60 c 0
 413 68 407 81 407 111 c 0
 407 124 407 136 406 136 c 0
 405 136 397 131 389 125 c 0
 342 93 248 99 207 135 c 0
 203 138 200 140 199 139 c 0
 198 138 191 125 184 110 c 0
 173 87 167 82 153 75 c 0
 113 56 22 71 31 95 c 0
 32 99 44 108 58 116 c 0
 72 124 88 135 93 143 c 0
 114 173 134 253 143 331 c 2
 148 374 l 1
 131 396 l 2
 66 478 71 593 144 667 c 0
 185 709 238 730 290 730 c 0
291 645 m 0
 224 645 169 590 169 523 c 0
 169 456 224 401 291 401 c 0
 358 401 413 456 413 523 c 0
 413 590 358 645 291 645 c 0
405 351 m 0
 404 351 l 0
 354 326 319 317 276 320 c 0
 260 321 243 324 240 325 c 0
 235 327 233 320 227 282 c 0
 223 253 222 234 224 228 c 0
 229 216 248 202 268 197 c 0
 290 191 350 195 370 203 c 0
 379 207 391 215 397 222 c 0
 407 234 407 236 407 293 c 0
 407 324 407 350 405 351 c 0
253 521 m 0
 253 545 272 564 296 564 c 0
 320 564 338 545 338 521 c 0
 338 497 320 479 296 479 c 0
 272 479 253 497 253 521 c 0
253 521 m 0
 253 497 272 479 296 479 c 0
 320 479 339 497 339 521 c 0
 339 545 320 564 296 564 c 0
 272 564 253 545 253 521 c 0
253 521 m 0
 253 545 272 564 296 564 c 0
 320 564 339 545 339 521 c 0
 339 497 320 479 296 479 c 0
 272 479 253 497 253 521 c 0
EndSplineSet
Validated: 37
EndChar

StartChar: uni0416
Encoding: 1046 1046 59
Width: 750
Flags: HW
LayerCount: 2
Fore
SplineSet
366 860 m 0
 380 860 394 856 402 846 c 0
 411 835 412 834 412 718 c 2
 412 601 l 1
 438 592 l 2
 471 580 491 567 516 542 c 2
 537 521 l 1
 559 539 l 2
 595 567 619 611 619 650 c 0
 619 703 648 731 686 715 c 0
 709 705 715 688 712 647 c 0
 706 569 667 503 598 456 c 2
 576 441 l 1
 575 397 l 1
 575 354 l 1
 599 338 l 2
 669 291 713 210 713 130 c 0
 713 92 699 75 664 75 c 0
 636 75 619 101 619 142 c 0
 619 185 588 238 550 262 c 2
 537 270 l 1
 512 246 l 2
 488 223 449 200 423 194 c 2
 412 191 l 1
 412 73 l 1
 412 -45 l 1
 401 -55 l 2
 392 -63 386 -65 368 -65 c 0
 349 -65 343 -63 333 -53 c 2
 321 -41 l 1
 321 75 l 1
 321 191 l 1
 305 196 l 2
 275 206 251 220 224 245 c 2
 197 271 l 1
 180 259 l 2
 141 232 121 195 115 143 c 0
 109 91 98 75 65 75 c 0
 40 75 23 93 20 120 c 0
 17 148 29 204 44 235 c 0
 64 277 112 328 153 351 c 0
 157 353 159 365 160 396 c 2
 162 438 l 1
 138 454 l 2
 68 502 28 568 21 649 c 0
 18 688 24 705 47 715 c 0
 79 728 108 709 112 672 c 0
 121 597 135 568 182 534 c 2
 198 522 l 1
 224 546 l 2
 249 570 274 586 305 596 c 2
 321 601 l 1
 321 714 l 2
 321 776 323 831 325 837 c 0
 330 851 348 860 366 860 c 0
367 519 m 0
 300 519 245 465 245 398 c 0
 245 331 300 276 367 276 c 0
 434 276 488 331 488 398 c 0
 488 465 434 519 367 519 c 0
329 396 m 0
 329 420 348 439 372 439 c 0
 396 439 414 420 414 396 c 0
 414 372 396 353 372 353 c 0
 348 353 329 372 329 396 c 0
329 396 m 0
 329 372 348 353 372 353 c 0
 396 353 414 372 414 396 c 0
 414 420 396 439 372 439 c 0
 348 439 329 420 329 396 c 0
329 396 m 0
 329 420 348 439 372 439 c 0
 396 439 414 420 414 396 c 0
 414 372 396 353 372 353 c 0
 348 353 329 372 329 396 c 0
EndSplineSet
Validated: 37
EndChar

StartChar: uni0417
Encoding: 1047 1047 60
Width: 500
Flags: HW
LayerCount: 2
Fore
SplineSet
190 760 m 4
 228 760 267 756 295 747 c 4
 351 729 384 702 407 655 c 4
 421 625 431 573 427 542 c 4
 425 521 426 515 439 488 c 4
 470 424 470 359 439 299 c 4
 429 280 428 273 427 237 c 4
 426 134 376 69 280 44 c 4
 239 34 154 32 116 41 c 4
 70 52 47 69 41 94 c 4
 35 120 57 148 83 148 c 4
 97 148 134 138 145 131 c 4
 154 125 202 123 226 127 c 4
 261 134 301 154 313 172 c 4
 327 192 326 198 312 193 c 4
 306 191 288 188 272 187 c 4
 171 179 80 244 54 344 c 4
 27 450 92 562 200 594 c 4
 228 602 282 603 308 595 c 4
 325 590 327 590 327 596 c 4
 327 620 288 656 252 667 c 4
 224 675 165 673 136 662 c 4
 87 644 84 643 68 651 c 4
 24 672 36 728 88 746 c 4
 114 755 152 760 190 760 c 4
257 519 m 4
 190 519 135 465 135 398 c 4
 135 331 190 276 257 276 c 4
 324 276 378 331 378 398 c 4
 378 465 324 519 257 519 c 4
219 396 m 4
 219 420 238 439 262 439 c 4
 286 439 304 420 304 396 c 4
 304 372 286 353 262 353 c 4
 238 353 219 372 219 396 c 4
219 396 m 4
 219 372 238 353 262 353 c 4
 286 353 304 372 304 396 c 4
 304 420 286 439 262 439 c 4
 238 439 219 420 219 396 c 4
219 396 m 4
 219 420 238 439 262 439 c 4
 286 439 304 420 304 396 c 4
 304 372 286 353 262 353 c 4
 238 353 219 372 219 396 c 4
EndSplineSet
Validated: 37
EndChar

StartChar: uni0418
Encoding: 1048 1048 61
Width: 800
Flags: HW
LayerCount: 2
Fore
SplineSet
70 730 m 0
 78 730 86 729 93 725 c 0
 120 711 119 722 140 471 c 0
 151 344 160 238 160 235 c 0
 160 232 171 241 186 255 c 2
 212 280 l 1
 201 304 l 2
 163 385 180 474 245 539 c 0
 289 583 331 599 392 599 c 0
 429 599 469 589 493 574 c 2
 505 567 l 1
 571 629 l 2
 607 663 640 693 646 695 c 0
 652 697 662 697 670 696 c 0
 699 691 696 705 725 386 c 0
 739 226 751 92 751 87 c 0
 751 64 717 48 689 58 c 0
 659 69 661 61 639 315 c 0
 628 441 619 547 618 549 c 0
 617 551 606 542 592 528 c 2
 568 503 l 1
 577 484 l 2
 592 454 598 426 598 392 c 0
 598 282 518 195 406 183 c 0
 374 180 329 189 296 206 c 2
 271 218 l 1
 206 154 l 2
 168 117 136 90 130 88 c 0
 116 85 102 87 90 97 c 0
 80 105 84 73 49 465 c 0
 38 593 29 702 30 706 c 0
 35 721 52 730 70 730 c 0
390 514 m 0
 323 514 269 459 269 392 c 0
 269 325 323 271 390 271 c 0
 457 271 512 325 512 392 c 0
 512 459 457 514 390 514 c 0
353 391 m 0
 353 415 371 434 395 434 c 0
 419 434 438 415 438 391 c 0
 438 367 419 348 395 348 c 0
 371 348 353 367 353 391 c 0
353 391 m 0
 353 367 371 348 395 348 c 0
 419 348 438 367 438 391 c 0
 438 415 419 434 395 434 c 0
 371 434 353 415 353 391 c 0
353 391 m 0
 353 415 371 434 395 434 c 0
 419 434 438 415 438 391 c 0
 438 367 419 348 395 348 c 0
 371 348 353 367 353 391 c 0
EndSplineSet
Validated: 37
EndChar

StartChar: uni0419
Encoding: 1049 1049 62
Width: 800
Flags: HW
LayerCount: 2
Fore
SplineSet
536 740 m 0
 542 740 545 737 552 734 c 0
 582 719 590 687 569 667 c 0
 550 649 495 626 450 619 c 0
 435 617 434 616 434 599 c 0
 434 582 435 581 452 576 c 0
 462 573 478 567 488 561 c 2
 506 551 l 1
 527 571 l 2
 538 582 567 609 591 632 c 0
 635 675 651 685 667 681 c 0
 683 677 693 670 696 663 c 0
 699 656 720 439 727 345 c 0
 729 319 735 246 741 184 c 0
 747 112 750 69 748 63 c 0
 740 41 710 34 683 47 c 0
 676 51 666 58 663 64 c 0
 660 70 654 118 649 182 c 0
 644 241 638 307 636 329 c 0
 631 374 620 521 620 533 c 0
 620 539 614 535 594 515 c 2
 567 488 l 1
 577 469 l 2
 618 389 601 291 536 227 c 0
 472 165 379 150 299 189 c 2
 273 202 l 1
 208 139 l 2
 155 89 139 76 127 74 c 0
 108 71 89 79 84 93 c 0
 80 103 30 647 30 678 c 0
 30 685 34 696 39 702 c 0
 47 711 53 713 68 713 c 0
 90 713 110 704 117 691 c 0
 120 686 130 579 141 452 c 0
 152 325 162 220 163 219 c 0
 164 218 176 229 189 242 c 2
 213 266 l 1
 202 290 l 2
 188 320 183 345 183 375 c 0
 183 463 238 543 320 573 c 0
 344 582 344 581 344 598 c 2
 344 615 l 1
 306 624 l 2
 262 635 220 655 208 670 c 0
 198 683 196 710 205 723 c 0
 208 728 220 734 229 737 c 0
 244 741 250 740 284 727 c 0
 356 699 406 698 471 721 c 0
 511 735 526 740 536 740 c 0
389 496 m 0
 322 496 268 442 268 375 c 0
 268 308 322 253 389 253 c 0
 456 253 511 308 511 375 c 0
 511 442 456 496 389 496 c 0
352 373 m 0
 352 397 370 416 394 416 c 0
 418 416 437 397 437 373 c 0
 437 349 418 330 394 330 c 0
 370 330 352 349 352 373 c 0
352 373 m 0
 352 349 370 330 394 330 c 0
 418 330 437 349 437 373 c 0
 437 397 418 416 394 416 c 0
 370 416 352 397 352 373 c 0
352 373 m 0
 352 397 370 416 394 416 c 0
 418 416 437 397 437 373 c 0
 437 349 418 330 394 330 c 0
 370 330 352 349 352 373 c 0
EndSplineSet
Validated: 37
EndChar

StartChar: uni041A
Encoding: 1050 1050 63
Width: 650
Flags: HW
LayerCount: 2
Fore
SplineSet
216 740 m 0
 228 740 239 737 247 731 c 2
 258 723 l 1
 258 656 l 1
 258 590 l 1
 281 582 l 2
 294 578 314 568 327 560 c 0
 351 545 386 508 394 492 c 0
 400 479 402 481 414 501 c 0
 429 526 473 565 501 579 c 0
 571 613 670 569 636 519 c 0
 623 500 610 497 579 502 c 0
 546 507 526 501 499 476 c 0
 481 459 449 410 449 396 c 0
 449 393 455 386 462 379 c 0
 469 372 496 343 523 315 c 0
 567 268 572 261 572 248 c 0
 572 226 550 206 526 206 c 0
 509 206 507 208 460 255 c 0
 433 282 410 304 409 304 c 0
 408 304 400 292 391 279 c 0
 363 236 320 202 275 189 c 2
 258 184 l 1
 258 120 l 2
 258 61 257 56 250 49 c 0
 240 40 207 37 194 43 c 0
 179 51 177 65 177 126 c 2
 177 184 l 1
 153 191 l 2
 62 219 3 311 11 410 c 0
 13 433 21 458 34 480 c 0
 56 527 106 569 159 585 c 2
 177 590 l 1
 177 655 l 2
 177 718 177 720 187 730 c 0
 194 737 204 740 216 740 c 0
216 510 m 0
 149 510 94 455 94 388 c 0
 94 321 149 266 216 266 c 0
 283 266 337 321 337 388 c 0
 337 455 283 510 216 510 c 0
178 386 m 0
 178 410 197 429 221 429 c 0
 245 429 263 410 263 386 c 0
 263 362 245 344 221 344 c 0
 197 344 178 362 178 386 c 0
178 386 m 0
 178 362 197 344 221 344 c 0
 245 344 263 362 263 386 c 0
 263 410 245 429 221 429 c 0
 197 429 178 410 178 386 c 0
178 386 m 0
 178 410 197 429 221 429 c 0
 245 429 263 410 263 386 c 0
 263 362 245 344 221 344 c 0
 197 344 178 362 178 386 c 0
EndSplineSet
Validated: 37
EndChar

StartChar: uni041B
Encoding: 1051 1051 64
Width: 550
Flags: HW
LayerCount: 2
Fore
SplineSet
286 750 m 0
 290 750 296 750 301 750 c 0
 396 748 470 694 500 606 c 0
 509 579 509 574 510 339 c 2
 512 100 l 1
 501 88 l 2
 492 78 489 76 468 76 c 0
 447 76 444 77 435 87 c 2
 425 99 l 1
 425 235 l 2
 425 310 424 370 423 370 c 0
 422 370 410 365 396 358 c 0
 367 343 319 332 292 334 c 2
 273 335 l 1
 271 255 l 2
 269 160 265 145 235 115 c 0
 205 86 183 76 134 75 c 0
 107 74 87 76 76 80 c 0
 41 91 20 115 20 143 c 0
 20 151 24 160 28 165 c 0
 41 180 51 181 79 173 c 0
 133 157 149 158 169 177 c 2
 181 188 l 1
 181 280 l 1
 181 371 l 1
 157 393 l 2
 109 438 87 502 96 574 c 0
 104 638 147 699 207 729 c 0
 241 746 255 750 286 750 c 0
303 665 m 0
 236 665 181 610 181 543 c 0
 181 476 236 422 303 422 c 0
 370 422 425 476 425 543 c 0
 425 610 370 665 303 665 c 0
265 542 m 0
 265 566 284 584 308 584 c 0
 332 584 351 566 351 542 c 0
 351 518 332 499 308 499 c 0
 284 499 265 518 265 542 c 0
265 542 m 0
 265 518 284 499 308 499 c 0
 332 499 351 518 351 542 c 0
 351 566 332 584 308 584 c 0
 284 584 265 566 265 542 c 0
265 542 m 0
 265 566 284 584 308 584 c 0
 332 584 351 566 351 542 c 0
 351 518 332 499 308 499 c 0
 284 499 265 518 265 542 c 0
EndSplineSet
Validated: 37
EndChar

StartChar: uni0423
Encoding: 1059 1059 72
Width: 550
Flags: HW
LayerCount: 2
Fore
SplineSet
70 700 m 0
 80 700 90 693 119 665 c 2
 155 629 l 1
 174 640 l 2
 222 665 283 669 338 651 c 0
 356 645 374 637 379 634 c 0
 387 628 389 630 422 663 c 0
 456 697 459 698 477 698 c 0
 494 698 497 696 510 682 c 0
 534 656 532 646 487 603 c 2
 449 567 l 1
 457 552 l 2
 481 508 490 442 476 396 c 0
 465 360 427 287 395 244 c 0
 337 164 289 117 238 92 c 0
 209 77 205 77 158 76 c 0
 114 75 107 75 95 83 c 0
 81 92 68 111 68 124 c 0
 68 128 72 138 77 145 c 0
 86 159 113 170 128 165 c 0
 140 161 182 173 198 185 c 0
 212 195 237 228 237 235 c 0
 237 237 228 240 217 243 c 0
 137 263 72 337 60 420 c 0
 54 465 64 519 85 555 c 2
 93 568 l 1
 59 601 l 2
 40 619 24 639 22 644 c 0
 13 666 42 700 70 700 c 0
270 570 m 0
 203 570 148 516 148 449 c 0
 148 382 203 327 270 327 c 0
 337 327 392 382 392 449 c 0
 392 516 337 570 270 570 c 0
232 447 m 0
 232 471 251 490 275 490 c 0
 299 490 318 471 318 447 c 0
 318 423 299 404 275 404 c 0
 251 404 232 423 232 447 c 0
232 447 m 0
 232 423 251 404 275 404 c 0
 299 404 318 423 318 447 c 0
 318 471 299 490 275 490 c 0
 251 490 232 471 232 447 c 0
232 447 m 0
 232 471 251 490 275 490 c 0
 299 490 318 471 318 447 c 0
 318 423 299 404 275 404 c 0
 251 404 232 423 232 447 c 0
EndSplineSet
Validated: 37
EndChar

StartChar: uni0426
Encoding: 1062 1062 75
Width: 800
Flags: HW
LayerCount: 2
Fore
SplineSet
310 760 m 0
 333 760 344 747 344 720 c 0
 344 702 343 697 332 688 c 0
 325 682 316 677 313 677 c 0
 310 677 291 669 270 658 c 0
 216 631 168 583 143 533 c 0
 105 455 103 365 139 292 c 0
 173 223 246 163 319 144 c 2
 340 138 l 1
 340 170 l 1
 340 202 l 1
 316 211 l 2
 174 263 133 444 239 552 c 0
 284 598 341 619 407 614 c 0
 438 612 448 609 477 594 c 0
 584 540 625 420 573 312 c 0
 552 268 500 224 453 209 c 2
 431 202 l 1
 431 169 l 1
 431 137 l 1
 444 140 l 2
 525 157 598 212 632 282 c 0
 655 330 663 362 663 414 c 0
 663 463 656 496 637 533 c 0
 606 594 544 647 476 669 c 0
 434 683 422 703 435 739 c 0
 443 763 466 766 512 750 c 0
 605 718 680 654 719 572 c 0
 748 512 754 485 754 411 c 0
 754 364 753 343 747 321 c 0
 738 288 705 217 687 193 c 2
 675 177 l 1
 706 143 l 2
 737 108 742 95 732 76 c 0
 726 64 701 51 686 51 c 0
 674 51 668 55 643 82 c 2
 614 113 l 1
 579 91 l 2
 537 65 481 45 431 39 c 0
 392 34 375 34 336 39 c 1
 336 39 l 1
 221 54 111 133 58 237 c 0
 27 298 14 366 22 434 c 0
 38 572 105 673 219 730 c 0
 259 750 289 760 310 760 c 0
387 525 m 0
 320 525 265 470 265 403 c 0
 265 336 320 281 387 281 c 0
 454 281 509 336 509 403 c 0
 509 470 454 525 387 525 c 0
350 401 m 0
 350 425 368 444 392 444 c 0
 416 444 435 425 435 401 c 0
 435 377 416 359 392 359 c 0
 368 359 350 377 350 401 c 0
350 401 m 0
 350 377 368 359 392 359 c 0
 416 359 435 377 435 401 c 0
 435 425 416 444 392 444 c 0
 368 444 350 425 350 401 c 0
350 401 m 0
 350 425 368 444 392 444 c 0
 416 444 435 425 435 401 c 0
 435 377 416 359 392 359 c 0
 368 359 350 377 350 401 c 0
EndSplineSet
Validated: 37
EndChar

StartChar: uni0427
Encoding: 1063 1063 76
Width: 550
Flags: HW
LayerCount: 2
Fore
SplineSet
448 830 m 0
 476 830 489 822 495 801 c 0
 498 790 499 654 498 376 c 2
 497 5 l 1
 486 -7 l 2
 474 -19 445 -24 429 -17 c 0
 407 -8 406 -5 406 146 c 0
 406 223 405 260 404 260 c 0
 403 260 397 256 389 251 c 0
 348 226 272 218 220 234 c 0
 147 257 92 319 76 396 c 0
 68 433 71 469 85 509 c 2
 95 539 l 1
 70 565 l 2
 31 606 22 652 20 730 c 0
 18 800 24 833 80 824 c 0
 89 823 97 821 102 815 c 0
 109 807 110 802 110 739 c 0
 107 702 106 675 126 645 c 0
 153 606 151 606 188 625 c 0
 249 655 313 657 372 629 c 0
 387 622 399 617 400 617 c 0
 401 617 402 656 402 705 c 2
 402 804 l 1
 414 817 l 2
 424 829 428 830 448 830 c 0
285 557 m 0
 218 557 163 502 163 435 c 0
 163 368 218 313 285 313 c 0
 352 313 406 368 406 435 c 0
 406 502 352 557 285 557 c 0
247 434 m 0
 247 458 266 476 290 476 c 0
 314 476 332 458 332 434 c 0
 332 410 314 391 290 391 c 0
 266 391 247 410 247 434 c 0
247 434 m 0
 247 410 266 391 290 391 c 0
 314 391 332 410 332 434 c 0
 332 458 314 476 290 476 c 0
 266 476 247 458 247 434 c 0
247 434 m 0
 247 458 266 476 290 476 c 0
 314 476 332 458 332 434 c 0
 332 410 314 391 290 391 c 0
 266 391 247 410 247 434 c 0
EndSplineSet
Validated: 37
EndChar

StartChar: uni0428
Encoding: 1064 1064 77
Width: 800
Flags: HW
LayerCount: 2
Fore
SplineSet
319 760 m 0
 342 760 353 747 353 721 c 0
 353 709 354 702 355 705 c 0
 358 714 380 722 397 722 c 0
 409 722 417 720 426 712 c 2
 439 701 l 1
 439 715 l 2
 439 733 453 755 466 758 c 0
 481 762 504 757 538 743 c 0
 590 722 624 699 666 657 c 0
 701 622 709 612 727 574 c 0
 758 510 762 486 762 407 c 0
 762 346 762 338 751 306 c 0
 728 237 697 188 647 139 c 0
 590 83 518 49 439 39 c 0
 400 34 387 34 350 39 c 1
 350 39 l 1
 228 55 120 130 66 237 c 0
 58 252 47 281 41 301 c 0
 32 332 30 345 30 393 c 0
 30 456 37 496 56 545 c 0
 88 626 149 691 231 732 c 0
 270 751 299 760 319 760 c 0
351 697 m 1
 339 687 l 2
 333 682 325 677 322 677 c 0
 319 677 299 669 278 658 c 0
 225 631 176 584 151 533 c 0
 113 455 111 365 147 292 c 0
 180 224 254 162 326 144 c 2
 346 139 l 1
 348 170 l 2
 349 187 348 201 346 203 c 0
 344 205 335 208 326 211 c 0
 287 222 235 266 212 309 c 0
 190 349 182 409 192 454 c 0
 207 519 259 578 322 601 c 0
 333 605 343 610 345 611 c 0
 347 612 348 632 349 655 c 2
 351 697 l 1
442 691 m 0
 439 691 439 683 440 653 c 2
 441 611 l 1
 462 604 l 2
 571 567 630 446 592 337 c 0
 571 277 522 229 461 209 c 2
 439 202 l 1
 439 169 l 1
 439 137 l 1
 453 140 l 2
 460 142 478 147 492 152 c 0
 552 174 610 223 638 276 c 0
 669 334 680 416 666 475 c 0
 646 560 578 634 487 669 c 0
 469 676 450 685 446 689 c 0
 444 691 443 691 442 691 c 0
396 528 m 0
 329 528 274 473 274 406 c 0
 274 339 329 285 396 285 c 0
 463 285 518 339 518 406 c 0
 518 473 463 528 396 528 c 0
359 405 m 0
 359 429 377 448 401 448 c 0
 425 448 444 429 444 405 c 0
 444 381 425 362 401 362 c 0
 377 362 359 381 359 405 c 0
359 405 m 0
 359 381 377 362 401 362 c 0
 425 362 444 381 444 405 c 0
 444 429 425 448 401 448 c 0
 377 448 359 429 359 405 c 0
359 405 m 0
 359 429 377 448 401 448 c 0
 425 448 444 429 444 405 c 0
 444 381 425 362 401 362 c 0
 377 362 359 381 359 405 c 0
EndSplineSet
Validated: 37
EndChar

StartChar: uni0429
Encoding: 1065 1065 78
Width: 800
Flags: HW
LayerCount: 2
Fore
SplineSet
309 760 m 0
 332 760 344 746 344 720 c 0
 344 702 344 702 352 710 c 0
 368 726 403 727 421 710 c 2
 431 701 l 1
 431 714 l 2
 431 730 440 750 451 756 c 0
 465 763 486 760 522 746 c 0
 578 724 614 701 658 657 c 0
 693 622 700 612 719 574 c 0
 749 512 755 483 755 405 c 0
 755 347 754 338 743 306 c 0
 730 265 713 230 691 198 c 2
 676 175 l 1
 706 141 l 2
 737 106 743 93 733 74 c 0
 727 62 702 49 687 49 c 0
 675 49 668 54 643 81 c 2
 614 112 l 1
 595 99 l 2
 566 79 511 55 476 46 c 0
 439 36 373 32 337 37 c 0
 237 51 138 113 80 197 c 0
 62 224 37 278 28 312 c 0
 17 354 18 439 30 488 c 0
 47 557 74 609 119 656 c 0
 172 712 260 760 309 760 c 0
339 694 m 0
 338 694 337 692 334 690 c 0
 329 686 313 677 297 671 c 0
 206 635 138 557 119 467 c 0
 110 422 112 358 126 319 c 0
 154 239 226 171 311 144 c 0
 323 140 335 136 337 136 c 0
 339 136 340 151 340 169 c 2
 340 202 l 1
 325 207 l 2
 259 228 206 283 186 351 c 0
 179 376 177 426 183 454 c 0
 198 520 258 586 317 603 c 0
 328 606 337 611 338 613 c 0
 339 615 340 636 341 658 c 0
 342 685 342 694 339 694 c 0
434 692 m 0
 431 692 431 683 432 653 c 2
 433 611 l 1
 454 604 l 2
 550 572 611 470 593 372 c 0
 579 294 522 228 449 206 c 2
 431 201 l 1
 431 168 l 1
 431 136 l 1
 444 138 l 2
 451 140 466 144 476 147 c 0
 556 173 626 243 650 321 c 0
 697 471 628 610 477 670 c 0
 459 677 442 685 438 689 c 0
 436 691 435 692 434 692 c 0
387 525 m 0
 320 525 266 470 266 403 c 0
 266 336 320 281 387 281 c 0
 454 281 509 336 509 403 c 0
 509 470 454 525 387 525 c 0
350 402 m 0
 350 426 369 444 393 444 c 0
 417 444 435 426 435 402 c 0
 435 378 417 359 393 359 c 0
 369 359 350 378 350 402 c 0
350 402 m 0
 350 378 369 359 393 359 c 0
 417 359 435 378 435 402 c 0
 435 426 417 444 393 444 c 0
 369 444 350 426 350 402 c 0
350 402 m 0
 350 426 369 444 393 444 c 0
 417 444 435 426 435 402 c 0
 435 378 417 359 393 359 c 0
 369 359 350 378 350 402 c 0
EndSplineSet
Validated: 37
EndChar

StartChar: uni042C
Encoding: 1068 1068 79
Width: 500
Flags: HW
LayerCount: 2
Fore
SplineSet
107 760 m 0
 120 760 133 755 140 746 c 0
 148 736 148 730 148 597 c 0
 148 521 150 458 151 458 c 0
 152 458 163 463 175 469 c 0
 210 486 245 493 283 490 c 0
 464 477 546 261 418 135 c 0
 403 120 382 103 370 97 c 0
 311 66 233 65 174 95 c 2
 155 105 l 1
 119 71 l 2
 79 32 67 28 43 44 c 0
 28 54 20 67 20 83 c 0
 20 92 27 102 56 131 c 2
 92 168 l 1
 81 192 l 2
 75 205 68 225 66 235 c 0
 63 247 61 343 61 494 c 0
 61 760 60 748 89 757 c 0
 95 759 101 760 107 760 c 0
272 403 m 0
 205 403 150 349 150 282 c 0
 150 215 205 160 272 160 c 0
 339 160 393 215 393 282 c 0
 393 349 339 403 272 403 c 0
234 280 m 0
 234 304 253 323 277 323 c 0
 301 323 319 304 319 280 c 0
 319 256 301 237 277 237 c 0
 253 237 234 256 234 280 c 0
234 280 m 0
 234 256 253 237 277 237 c 0
 301 237 319 256 319 280 c 0
 319 304 301 323 277 323 c 0
 253 323 234 304 234 280 c 0
234 280 m 0
 234 304 253 323 277 323 c 0
 301 323 319 304 319 280 c 0
 319 256 301 237 277 237 c 0
 253 237 234 256 234 280 c 0
EndSplineSet
Validated: 37
EndChar

StartChar: uni042E
Encoding: 1070 1070 80
Width: 1000
Flags: HW
LayerCount: 2
Fore
SplineSet
607 780 m 0
 661 780 678 778 705 771 c 0
 883 722 1003 543 981 364 c 0
 960 197 836 65 672 36 c 0
 638 30 585 28 560 32 c 0
 504 41 443 64 402 91 c 0
 364 116 315 165 292 201 c 0
 260 251 249 280 234 350 c 2
 232 362 l 1
 175 362 l 1
 118 362 l 1
 118 219 l 1
 118 76 l 1
 107 69 l 2
 100 65 88 61 74 61 c 0
 56 61 50 63 41 71 c 2
 30 81 l 1
 30 396 l 1
 30 711 l 1
 40 723 l 2
 49 733 53 734 75 734 c 0
 94 734 103 732 110 726 c 0
 119 718 118 715 118 584 c 2
 118 450 l 1
 175 450 l 1
 232 450 l 1
 234 462 l 2
 266 621 357 724 504 769 c 0
 537 779 548 780 607 780 c 0
601 690 m 0
 583 690 565 688 546 684 c 0
 489 672 430 636 388 587 c 0
 366 561 336 499 329 467 c 0
 322 434 323 369 331 339 c 0
 343 290 369 245 406 208 c 0
 444 170 475 151 520 136 c 0
 566 121 564 121 564 162 c 2
 564 197 l 1
 542 204 l 2
 495 218 441 263 418 310 c 0
 401 343 396 370 396 409 c 0
 396 449 401 469 420 506 c 0
 474 609 601 648 707 594 c 0
 789 552 834 456 815 366 c 0
 799 289 748 229 676 205 c 2
 655 198 l 1
 654 162 l 1
 653 125 l 1
 666 128 l 2
 770 150 856 233 883 337 c 0
 894 377 893 440 881 482 c 0
 846 609 729 692 601 690 c 0
610 527 m 0
 543 527 488 472 488 405 c 0
 488 338 543 283 610 283 c 0
 677 283 731 338 731 405 c 0
 731 472 677 527 610 527 c 0
572 404 m 0
 572 428 591 446 615 446 c 0
 639 446 657 428 657 404 c 0
 657 380 639 361 615 361 c 0
 591 361 572 380 572 404 c 0
572 404 m 0
 572 380 591 361 615 361 c 0
 639 361 657 380 657 404 c 0
 657 428 639 446 615 446 c 0
 591 446 572 428 572 404 c 0
572 404 m 0
 572 428 591 446 615 446 c 0
 639 446 657 428 657 404 c 0
 657 380 639 361 615 361 c 0
 591 361 572 380 572 404 c 0
EndSplineSet
Validated: 37
EndChar

StartChar: uni042F
Encoding: 1071 1071 81
Width: 550
Flags: HW
LayerCount: 2
Fore
SplineSet
289 730 m 0
 371 731 447 683 482 600 c 0
 497 564 499 523 498 293 c 2
 497 75 l 1
 485 65 l 2
 472 54 442 52 427 60 c 0
 409 70 409 70 409 215 c 2
 409 353 l 1
 387 341 l 2
 329 309 256 309 195 340 c 2
 174 350 l 1
 127 303 l 2
 83 259 79 256 64 256 c 0
 42 256 20 277 20 299 c 0
 20 313 23 318 67 362 c 2
 115 410 l 1
 107 426 l 2
 81 477 76 538 93 588 c 0
 111 641 146 682 193 706 c 0
 224 722 257 730 289 730 c 0
290 647 m 0
 223 647 168 593 168 526 c 0
 168 459 223 404 290 404 c 0
 357 404 412 459 412 526 c 0
 412 593 357 647 290 647 c 0
252 524 m 0
 252 548 271 567 295 567 c 0
 319 567 338 548 338 524 c 0
 338 500 319 481 295 481 c 0
 271 481 252 500 252 524 c 0
252 524 m 0
 252 500 271 481 295 481 c 0
 319 481 338 500 338 524 c 0
 338 548 319 567 295 567 c 0
 271 567 252 548 252 524 c 0
252 524 m 0
 252 548 271 567 295 567 c 0
 319 567 338 548 338 524 c 0
 338 500 319 481 295 481 c 0
 271 481 252 500 252 524 c 0
EndSplineSet
Validated: 37
EndChar

StartChar: period
Encoding: 46 46 82
Width: 450
Flags: HW
LayerCount: 2
Fore
SplineSet
100 375 m 1
 100 308 155 253 222 253 c 1
 222 253 l 1
 155 253 100 308 100 375 c 1
 100 375 l 1
222 586 m 0
 339 586 433 492 433 375 c 0
 433 258 339 164 222 164 c 0
 105 164 11 258 11 375 c 0
 11 492 105 586 222 586 c 0
222 586 m 0
 105 586 11 492 11 375 c 0
 11 258 105 164 222 164 c 0
 339 164 433 258 433 375 c 0
 433 492 339 586 222 586 c 0
326 312 m 1
 337 330 344 352 344 375 c 1
 344 352 337 330 326 312 c 1
222 586 m 0
 339 586 433 492 433 375 c 0
 433 258 339 164 222 164 c 0
 105 164 11 258 11 375 c 0
 11 492 105 586 222 586 c 0
344 375 m 1
 100 375 l 1
 100 308 155 253 222 253 c 0
 289 253 344 308 344 375 c 1
184 374 m 0
 184 398 203 416 227 416 c 0
 251 416 270 398 270 374 c 0
 270 350 251 331 227 331 c 0
 203 331 184 350 184 374 c 0
184 374 m 0
 184 350 203 331 227 331 c 0
 251 331 270 350 270 374 c 0
 270 398 251 416 227 416 c 0
 203 416 184 398 184 374 c 0
184 374 m 0
 184 398 203 416 227 416 c 0
 251 416 270 398 270 374 c 0
 270 350 251 331 227 331 c 0
 203 331 184 350 184 374 c 0
EndSplineSet
Validated: 5
EndChar

StartChar: a
Encoding: 97 97 83
Width: 500
Flags: HW
LayerCount: 2
Fore
SplineSet
248 800 m 0
 262 800 279 791 286 778 c 0
 290 771 296 750 303 719 c 0
 312 678 313 671 318 670 c 0
 321 669 333 663 346 657 c 0
 385 638 418 603 438 560 c 0
 450 534 455 513 457 483 c 0
 460 427 442 373 404 331 c 2
 391 317 l 1
 407 244 l 2
 438 110 451 47 449 36 c 0
 443 3 401 -10 375 13 c 0
 365 22 362 27 351 84 c 2
 343 127 l 1
 326 116 l 2
 277 82 207 84 166 120 c 0
 161 124 157 127 156 126 c 0
 155 125 151 103 146 78 c 0
 135 17 134 15 114 5 c 0
 101 -2 89 -1 74 6 c 0
 59 14 50 27 50 41 c 0
 50 47 57 83 66 122 c 0
 75 161 89 222 96 256 c 2
 108 318 l 1
 91 337 l 2
 72 357 53 392 46 420 c 0
 35 461 39 514 56 554 c 0
 74 597 112 637 153 657 c 0
 166 663 178 669 180 669 c 0
 185 669 186 672 197 723 c 0
 203 750 210 775 213 780 c 0
 219 790 236 800 248 800 c 0
248 593 m 0
 181 593 126 539 126 472 c 0
 126 405 181 350 248 350 c 0
 315 350 370 405 370 472 c 0
 370 539 315 593 248 593 c 0
248 303 m 0
 226 303 205 288 197 260 c 0
 189 231 201 198 227 185 c 0
 236 180 257 180 268 184 c 0
 294 194 309 230 300 262 c 0
 292 290 270 303 248 303 c 0
210 470 m 0
 210 494 229 513 253 513 c 0
 277 513 296 494 296 470 c 0
 296 446 277 427 253 427 c 0
 229 427 210 446 210 470 c 0
210 470 m 0
 210 446 229 427 253 427 c 0
 277 427 296 446 296 470 c 0
 296 494 277 513 253 513 c 0
 229 513 210 494 210 470 c 0
210 470 m 0
 210 494 229 513 253 513 c 0
 277 513 296 494 296 470 c 0
 296 446 277 427 253 427 c 0
 229 427 210 446 210 470 c 0
EndSplineSet
Validated: 37
EndChar

StartChar: b
Encoding: 98 98 84
Width: 550
Flags: HW
LayerCount: 2
Fore
SplineSet
226 800 m 1
 268 800 l 1
 309 800 l 1
 310 787 l 2
 311 775 312 775 321 772 c 0
 326 770 332 769 334 769 c 0
 336 769 348 764 362 757 c 0
 408 734 448 686 462 637 c 2
 466 620 l 1
 486 619 l 2
 507 618 514 614 525 600 c 0
 533 590 533 564 525 554 c 0
 514 540 507 536 486 535 c 2
 466 534 l 1
 460 515 l 2
 442 454 389 401 328 384 c 0
 316 381 312 379 311 375 c 0
 310 370 312 368 324 364 c 0
 354 354 375 342 400 317 c 0
 420 297 427 288 436 270 c 0
 449 243 455 218 455 186 c 0
 455 154 449 128 436 101 c 0
 427 83 420 74 400 54 c 0
 380 34 372 28 353 19 c 0
 319 3 279 -3 242 2 c 1
 242 2 l 1
 172 12 111 63 91 128 c 2
 87 143 l 1
 66 144 l 2
 37 146 22 159 20 183 c 0
 18 209 36 226 68 229 c 2
 87 231 l 1
 91 246 l 2
 107 299 156 346 211 364 c 0
 229 370 230 378 215 382 c 0
 209 384 204 385 202 385 c 0
 200 385 188 390 174 397 c 0
 153 408 145 413 123 435 c 0
 101 457 97 464 86 486 c 0
 69 521 63 545 65 586 c 0
 67 643 83 679 123 719 c 0
 151 747 172 759 206 769 c 2
 225 775 l 1
 226 788 l 1
 226 800 l 1
271 701 m 0
 204 701 149 646 149 579 c 0
 149 512 204 457 271 457 c 0
 338 457 393 512 393 579 c 0
 393 646 338 701 271 701 c 0
268 287 m 0
 246 287 241 286 228 280 c 0
 167 251 149 175 191 122 c 0
 202 109 224 94 241 89 c 0
 260 84 286 85 306 93 c 0
 326 100 348 121 357 140 c 0
 383 192 362 253 311 278 c 0
 295 286 291 287 268 287 c 0
234 578 m 0
 234 602 252 620 276 620 c 0
 300 620 319 602 319 578 c 0
 319 554 300 535 276 535 c 0
 252 535 234 554 234 578 c 0
234 578 m 0
 234 554 252 535 276 535 c 0
 300 535 319 554 319 578 c 0
 319 602 300 620 276 620 c 0
 252 620 234 602 234 578 c 0
234 578 m 0
 234 602 252 620 276 620 c 0
 300 620 319 602 319 578 c 0
 319 554 300 535 276 535 c 0
 252 535 234 554 234 578 c 0
EndSplineSet
Validated: 37
EndChar

StartChar: c
Encoding: 99 99 85
Width: 750
Flags: HW
LayerCount: 2
Fore
SplineSet
374 800 m 0
 421 800 443 797 485 784 c 0
 578 755 657 683 697 595 c 0
 725 533 739 444 723 423 c 0
 709 405 709 405 636 404 c 2
 570 403 l 1
 565 388 l 2
 550 335 502 281 450 260 c 0
 412 245 360 242 320 252 c 0
 267 266 216 307 192 356 c 0
 164 413 164 474 191 531 c 2
 203 556 l 1
 181 579 l 2
 169 592 158 603 157 603 c 0
 155 604 142 584 132 565 c 0
 80 462 104 332 191 251 c 0
 236 209 288 187 352 181 c 0
 388 178 399 174 408 161 c 0
 413 154 414 147 416 113 c 0
 418 65 417 33 411 22 c 0
 402 4 375 -5 357 3 c 1
 357 3 l 1
 347 8 338 17 334 27 c 0
 332 31 332 48 332 65 c 0
 332 95 332 96 326 97 c 0
 323 98 309 101 296 103 c 0
 227 116 164 150 114 203 c 0
 68 252 40 303 26 369 c 0
 18 406 18 479 25 513 c 0
 48 624 114 711 211 761 c 0
 266 790 310 800 374 800 c 0
371 715 m 0
 348 715 325 711 302 705 c 0
 281 699 247 684 228 672 c 2
 216 665 l 1
 241 641 l 1
 265 617 l 1
 284 627 l 2
 337 654 410 655 461 629 c 0
 513 603 551 557 566 505 c 2
 570 489 l 1
 603 489 l 2
 629 489 636 489 636 492 c 0
 636 501 622 545 612 565 c 0
 565 660 471 716 371 715 c 0
374 567 m 0
 307 567 252 513 252 446 c 0
 252 379 307 324 374 324 c 0
 441 324 496 379 496 446 c 0
 496 513 441 567 374 567 c 0
336 444 m 0
 336 468 355 487 379 487 c 0
 403 487 422 468 422 444 c 0
 422 420 403 401 379 401 c 0
 355 401 336 420 336 444 c 0
336 444 m 0
 336 420 355 401 379 401 c 0
 403 401 422 420 422 444 c 0
 422 468 403 487 379 487 c 0
 355 487 336 468 336 444 c 0
336 444 m 0
 336 468 355 487 379 487 c 0
 403 487 422 468 422 444 c 0
 422 420 403 401 379 401 c 0
 355 401 336 420 336 444 c 0
EndSplineSet
Validated: 37
EndChar

StartChar: d
Encoding: 100 100 86
Width: 650
Flags: HW
LayerCount: 2
Fore
SplineSet
248 775 m 0
 251 775 254 775 258 775 c 0
 340 774 424 741 490 684 c 0
 653 543 661 287 509 134 c 0
 451 76 377 40 293 29 c 0
 255 24 234 24 221 30 c 1
 221 30 l 1
 187 45 187 95 221 112 c 0
 225 114 241 117 261 118 c 0
 279 119 303 122 314 125 c 0
 401 146 480 217 511 302 c 0
 532 359 533 433 513 492 c 0
 490 560 434 624 370 655 c 0
 339 670 290 684 288 678 c 0
 288 677 288 661 288 642 c 2
 288 607 l 1
 297 605 l 2
 312 602 341 590 357 580 c 0
 386 562 419 525 434 495 c 0
 451 461 458 418 453 377 c 0
 447 323 428 282 390 246 c 0
 362 219 336 205 299 195 c 0
 270 187 214 187 186 195 c 0
 124 212 76 252 50 308 c 0
 38 335 32 356 30 386 c 0
 24 485 88 577 180 603 c 2
 196 608 l 1
 197 679 l 2
 198 758 199 759 217 770 c 0
 224 775 228 775 248 775 c 0
242 522 m 0
 175 522 120 467 120 400 c 0
 120 333 175 279 242 279 c 0
 309 279 364 333 364 400 c 0
 364 467 309 522 242 522 c 0
205 399 m 0
 205 423 223 442 247 442 c 0
 271 442 290 423 290 399 c 0
 290 375 271 356 247 356 c 0
 223 356 205 375 205 399 c 0
205 399 m 0
 205 375 223 356 247 356 c 0
 271 356 290 375 290 399 c 0
 290 423 271 442 247 442 c 0
 223 442 205 423 205 399 c 0
205 399 m 0
 205 423 223 442 247 442 c 0
 271 442 290 423 290 399 c 0
 290 375 271 356 247 356 c 0
 223 356 205 375 205 399 c 0
EndSplineSet
Validated: 37
EndChar

StartChar: e
Encoding: 101 101 87
Width: 650
Flags: HW
LayerCount: 2
Fore
SplineSet
474 765 m 0
 545 765 549 765 559 760 c 0
 587 747 593 708 570 687 c 0
 555 674 549 673 466 674 c 2
 392 674 l 1
 380 668 l 2
 370 663 366 660 361 649 c 0
 357 642 354 629 353 622 c 2
 352 609 l 1
 368 605 l 2
 401 597 431 580 459 553 c 0
 487 526 503 500 513 465 c 2
 518 447 l 1
 555 447 l 2
 587 447 594 446 602 442 c 0
 614 436 619 431 624 419 c 0
 633 398 623 373 602 362 c 0
 597 359 586 358 557 357 c 2
 518 355 l 1
 514 340 l 2
 495 272 439 218 370 200 c 2
 353 196 l 1
 354 187 l 2
 355 171 360 159 369 149 c 0
 384 131 384 131 473 131 c 2
 551 131 l 1
 563 124 l 2
 583 112 591 86 580 65 c 0
 574 54 568 49 557 44 c 0
 545 39 397 39 374 44 c 1
 374 44 l 1
 349 49 328 61 308 81 c 0
 281 108 269 138 264 183 c 2
 262 199 l 1
 250 202 l 2
 243 204 229 209 218 214 c 0
 166 239 126 287 112 343 c 2
 109 355 l 1
 70 357 l 2
 26 358 18 361 7 377 c 0
 -2 391 -2 412 7 426 c 0
 18 443 29 446 71 446 c 2
 108 446 l 1
 112 462 l 2
 128 524 179 580 243 600 c 2
 265 607 l 1
 265 622 l 2
 265 675 299 728 347 751 c 0
 372 763 390 765 474 765 c 0
314 524 m 0
 247 524 192 469 192 402 c 0
 192 335 247 281 314 281 c 0
 381 281 435 335 435 402 c 0
 435 469 381 524 314 524 c 0
276 401 m 0
 276 425 295 444 319 444 c 0
 343 444 361 425 361 401 c 0
 361 377 343 358 319 358 c 0
 295 358 276 377 276 401 c 0
276 401 m 0
 276 377 295 358 319 358 c 0
 343 358 361 377 361 401 c 0
 361 425 343 444 319 444 c 0
 295 444 276 425 276 401 c 0
276 401 m 0
 276 425 295 444 319 444 c 0
 343 444 361 425 361 401 c 0
 361 377 343 358 319 358 c 0
 295 358 276 377 276 401 c 0
EndSplineSet
Validated: 37
EndChar

StartChar: f
Encoding: 102 102 88
Width: 750
Flags: HW
LayerCount: 2
Fore
SplineSet
237 775 m 0
 260 775 284 772 307 764 c 0
 370 743 423 688 439 626 c 2
 443 608 l 1
 571 607 l 2
 690 606 699 606 708 602 c 0
 719 597 727 584 729 571 c 0
 732 552 727 544 625 440 c 0
 572 386 526 341 522 339 c 0
 513 334 492 334 483 339 c 0
 479 341 457 361 435 384 c 2
 395 425 l 1
 388 418 l 2
 371 398 328 371 300 364 c 2
 286 361 l 1
 285 332 l 1
 285 303 l 1
 335 302 l 2
 393 301 401 299 412 282 c 0
 426 260 420 231 398 218 c 0
 387 212 387 212 336 212 c 2
 285 212 l 1
 285 180 l 2
 285 149 285 148 292 138 c 0
 301 126 312 118 327 116 c 0
 350 112 367 94 367 71 c 0
 367 40 343 21 309 26 c 0
 295 28 270 41 253 53 c 2
 240 62 l 1
 227 53 l 2
 210 40 196 34 178 29 c 0
 161 24 152 24 139 28 c 1
 139 28 l 1
 121 35 110 50 110 70 c 0
 110 84 114 95 125 104 c 0
 133 111 140 113 160 118 c 0
 170 120 187 135 191 144 c 0
 194 151 195 171 195 255 c 2
 195 359 l 1
 169 367 l 2
 104 388 55 441 37 509 c 0
 22 567 32 632 62 679 c 0
 102 740 168 774 237 775 c 0
238 690 m 0
 171 690 116 636 116 569 c 0
 116 502 171 447 238 447 c 0
 305 447 360 502 360 569 c 0
 360 636 305 690 238 690 c 0
499 520 m 0
 475 520 451 520 444 519 c 2
 433 517 l 1
 467 480 l 2
 486 460 503 444 504 444 c 0
 505 444 521 460 539 480 c 1
 539 480 l 1
 573 516 l 1
 558 518 l 2
 548 519 523 520 499 520 c 0
200 567 m 0
 200 591 219 610 243 610 c 0
 267 610 286 591 286 567 c 0
 286 543 267 524 243 524 c 0
 219 524 200 543 200 567 c 0
200 567 m 0
 200 543 219 524 243 524 c 0
 267 524 286 543 286 567 c 0
 286 591 267 610 243 610 c 0
 219 610 200 591 200 567 c 0
200 567 m 0
 200 591 219 610 243 610 c 0
 267 610 286 591 286 567 c 0
 286 543 267 524 243 524 c 0
 219 524 200 543 200 567 c 0
EndSplineSet
Validated: 37
EndChar

StartChar: g
Encoding: 103 103 89
Width: 500
Flags: HW
LayerCount: 2
Fore
SplineSet
251 810 m 0
 276 810 302 809 318 805 c 0
 380 792 452 756 467 731 c 0
 478 713 471 695 430 626 c 0
 421 611 414 598 414 597 c 0
 414 596 419 587 426 577 c 0
 449 542 458 510 458 463 c 0
 458 388 430 333 373 296 c 0
 364 290 315 266 263 241 c 0
 211 216 169 195 169 194 c 0
 169 193 182 186 198 179 c 0
 253 154 410 76 423 68 c 0
 438 59 444 45 444 28 c 0
 444 4 429 -13 406 -15 c 0
 394 -16 384 -12 217 71 c 0
 120 119 38 162 34 165 c 0
 16 181 16 207 33 225 c 0
 37 229 64 244 94 258 c 0
 124 272 149 284 149 285 c 0
 149 286 142 291 133 297 c 0
 99 319 68 361 54 402 c 0
 44 431 42 482 49 512 c 0
 54 535 70 570 83 586 c 2
 91 597 l 1
 70 632 l 2
 29 698 26 709 36 729 c 0
 49 754 121 791 185 805 c 0
 201 809 226 810 251 810 c 0
254 721 m 0
 230 721 205 719 189 715 c 0
 165 709 136 698 136 694 c 0
 136 692 153 661 158 655 c 0
 160 653 164 653 175 658 c 0
 183 661 198 667 209 669 c 0
 247 678 294 673 330 657 c 2
 342 652 l 1
 355 672 l 2
 362 683 367 694 367 695 c 0
 367 698 325 714 304 718 c 0
 291 720 273 721 254 721 c 0
252 588 m 0
 185 588 130 534 130 467 c 0
 130 400 185 345 252 345 c 0
 319 345 374 400 374 467 c 0
 374 534 319 588 252 588 c 0
214 465 m 0
 214 489 233 508 257 508 c 0
 281 508 300 489 300 465 c 0
 300 441 281 422 257 422 c 0
 233 422 214 441 214 465 c 0
214 465 m 0
 214 441 233 422 257 422 c 0
 281 422 300 441 300 465 c 0
 300 489 281 508 257 508 c 0
 233 508 214 489 214 465 c 0
214 465 m 0
 214 489 233 508 257 508 c 0
 281 508 300 489 300 465 c 0
 300 441 281 422 257 422 c 0
 233 422 214 441 214 465 c 0
EndSplineSet
Validated: 37
EndChar

StartChar: h
Encoding: 104 104 90
Width: 800
Flags: HW
LayerCount: 2
Fore
SplineSet
309 750 m 0
 314 750 318 749 323 747 c 0
 340 740 350 725 350 706 c 0
 350 683 338 670 308 660 c 0
 266 646 232 625 202 595 c 0
 180 573 155 537 142 509 c 0
 134 491 122 451 124 446 c 0
 125 444 135 443 158 444 c 2
 190 445 l 1
 195 461 l 2
 197 470 203 485 208 495 c 0
 252 585 356 629 453 598 c 0
 516 578 570 523 587 461 c 2
 591 445 l 1
 624 444 l 1
 658 443 l 1
 658 450 l 2
 658 460 647 497 638 516 c 0
 619 557 580 601 542 626 c 0
 515 643 507 648 477 658 c 0
 463 663 449 669 446 672 c 0
 433 684 428 706 435 723 c 0
 440 735 446 741 457 746 c 0
 470 752 478 752 504 743 c 0
 631 701 721 600 746 468 c 0
 752 438 752 371 746 338 c 0
 726 226 654 128 553 78 c 0
 530 67 484 50 475 50 c 0
 466 50 450 58 443 66 c 0
 434 76 431 94 434 107 c 0
 438 122 450 132 473 140 c 0
 484 144 500 150 509 154 c 0
 559 177 609 226 637 282 c 0
 647 301 657 333 658 347 c 2
 659 357 l 1
 649 357 l 2
 643 357 628 356 615 356 c 2
 591 356 l 1
 589 345 l 2
 588 339 584 327 580 317 c 0
 555 260 500 214 437 199 c 0
 409 192 358 194 332 202 c 0
 284 217 243 246 217 287 c 0
 206 304 195 331 192 347 c 2
 191 355 l 1
 158 356 l 2
 140 357 124 357 123 357 c 0
 121 356 127 327 135 305 c 0
 149 266 172 232 205 201 c 0
 236 171 274 150 314 138 c 0
 348 128 362 96 344 69 c 0
 337 58 321 50 308 50 c 0
 303 50 287 54 274 58 c 1
 274 58 l 1
 189 86 122 142 76 222 c 0
 26 309 16 419 50 521 c 0
 67 573 94 615 136 657 c 0
 177 698 219 724 274 742 c 0
 291 748 301 750 309 750 c 0
390 522 m 0
 323 522 269 467 269 400 c 0
 269 333 323 278 390 278 c 0
 457 278 512 333 512 400 c 0
 512 467 457 522 390 522 c 0
353 399 m 0
 353 423 371 441 395 441 c 0
 419 441 438 423 438 399 c 0
 438 375 419 356 395 356 c 0
 371 356 353 375 353 399 c 0
353 399 m 0
 353 375 371 356 395 356 c 0
 419 356 438 375 438 399 c 0
 438 423 419 441 395 441 c 0
 371 441 353 423 353 399 c 0
353 399 m 0
 353 423 371 441 395 441 c 0
 419 441 438 423 438 399 c 0
 438 375 419 356 395 356 c 0
 371 356 353 375 353 399 c 0
EndSplineSet
Validated: 37
EndChar

StartChar: i
Encoding: 105 105 91
Width: 450
Flags: HW
LayerCount: 2
Fore
SplineSet
221 800 m 0
 235 800 248 794 258 781 c 0
 263 774 263 769 264 687 c 2
 265 601 l 1
 282 596 l 2
 347 578 403 521 422 451 c 0
 428 427 428 373 422 349 c 0
 403 279 347 221 282 203 c 2
 265 199 l 1
 265 114 l 2
 265 31 265 30 259 21 c 0
 256 16 250 9 246 6 c 0
 237 -1 213 -2 202 3 c 1
 202 3 l 1
 191 8 180 21 178 33 c 0
 177 38 177 68 178 99 c 0
 179 130 179 165 178 177 c 2
 176 199 l 1
 154 206 l 2
 123 216 102 229 77 254 c 0
 17 313 -2 396 28 475 c 0
 49 531 100 579 155 595 c 2
 177 601 l 1
 177 683 l 2
 177 762 177 764 183 776 c 0
 191 792 206 800 221 800 c 0
220 522 m 0
 153 522 99 467 99 400 c 0
 99 333 153 278 220 278 c 0
 287 278 342 333 342 400 c 0
 342 467 287 522 220 522 c 0
183 399 m 0
 183 423 201 441 225 441 c 0
 249 441 268 423 268 399 c 0
 268 375 249 356 225 356 c 0
 201 356 183 375 183 399 c 0
183 399 m 0
 183 375 201 356 225 356 c 0
 249 356 268 375 268 399 c 0
 268 423 249 441 225 441 c 0
 201 441 183 423 183 399 c 0
183 399 m 0
 183 423 201 441 225 441 c 0
 249 441 268 423 268 399 c 0
 268 375 249 356 225 356 c 0
 201 356 183 375 183 399 c 0
EndSplineSet
Validated: 37
EndChar

StartChar: j
Encoding: 106 106 92
Width: 550
Flags: HW
LayerCount: 2
Fore
SplineSet
476 765 m 0
 478 765 481 764 483 764 c 0
 497 762 511 751 517 739 c 0
 528 714 522 700 482 662 c 2
 453 634 l 1
 464 614 l 2
 498 550 494 466 454 406 c 0
 429 368 386 337 342 324 c 2
 323 318 l 1
 322 223 l 2
 321 141 320 127 316 115 c 0
 292 42 220 2 142 19 c 0
 88 31 44 74 33 129 c 0
 26 164 30 186 47 198 c 0
 54 203 59 204 75 204 c 0
 90 204 95 203 101 199 c 0
 113 190 117 182 120 164 c 0
 123 140 126 132 136 121 c 0
 148 109 160 104 177 104 c 0
 194 104 209 111 219 124 c 0
 232 140 233 144 234 234 c 2
 235 317 l 1
 228 319 l 2
 191 327 159 343 134 367 c 0
 89 409 70 457 70 522 c 0
 70 596 102 655 163 696 c 0
 225 737 308 741 375 705 c 2
 390 697 l 1
 422 728 l 2
 452 757 462 765 476 765 c 0
278 642 m 0
 211 642 156 587 156 520 c 0
 156 453 211 398 278 398 c 0
 345 398 400 453 400 520 c 0
 400 587 345 642 278 642 c 0
240 519 m 0
 240 543 259 561 283 561 c 0
 307 561 326 543 326 519 c 0
 326 495 307 476 283 476 c 0
 259 476 240 495 240 519 c 0
240 519 m 0
 240 495 259 476 283 476 c 0
 307 476 326 495 326 519 c 0
 326 543 307 561 283 561 c 0
 259 561 240 543 240 519 c 0
240 519 m 0
 240 543 259 561 283 561 c 0
 307 561 326 543 326 519 c 0
 326 495 307 476 283 476 c 0
 259 476 240 495 240 519 c 0
EndSplineSet
Validated: 37
EndChar

StartChar: k
Encoding: 107 107 93
Width: 600
Flags: HW
LayerCount: 2
Fore
SplineSet
217 750 m 0
 228 750 240 746 248 738 c 0
 261 725 262 720 262 658 c 2
 262 601 l 1
 272 599 l 2
 326 585 372 548 398 498 c 2
 408 480 l 1
 456 528 l 2
 482 554 507 577 511 579 c 0
 527 587 547 582 560 568 c 0
 569 559 572 551 572 539 c 0
 572 522 565 512 507 456 c 2
 451 401 l 1
 506 346 l 2
 573 279 579 270 568 245 c 0
 557 221 531 212 508 223 c 0
 502 226 481 244 453 273 c 0
 428 298 408 318 408 318 c 0
 408 318 403 309 397 298 c 0
 373 252 324 214 274 202 c 2
 262 199 l 1
 262 143 l 2
 262 81 261 76 248 63 c 0
 237 52 217 47 202 53 c 0
 191 57 182 65 178 74 c 0
 174 82 173 90 173 141 c 2
 173 198 l 1
 157 203 l 2
 124 211 95 229 69 256 c 0
 42 285 26 312 17 348 c 0
 -12 460 57 576 167 600 c 2
 173 601 l 1
 173 659 l 2
 173 711 174 717 178 726 c 0
 185 741 201 750 217 750 c 0
216 522 m 0
 149 522 95 467 95 400 c 0
 95 333 149 278 216 278 c 0
 283 278 338 333 338 400 c 0
 338 467 283 522 216 522 c 0
179 399 m 0
 179 423 197 441 221 441 c 0
 245 441 264 423 264 399 c 0
 264 375 245 356 221 356 c 0
 197 356 179 375 179 399 c 0
179 399 m 0
 179 375 197 356 221 356 c 0
 245 356 264 375 264 399 c 0
 264 423 245 441 221 441 c 0
 197 441 179 423 179 399 c 0
179 399 m 0
 179 423 197 441 221 441 c 0
 245 441 264 423 264 399 c 0
 264 375 245 356 221 356 c 0
 197 356 179 375 179 399 c 0
EndSplineSet
Validated: 37
EndChar

StartChar: l
Encoding: 108 108 94
Width: 600
Flags: HW
LayerCount: 2
Fore
SplineSet
67 760 m 0
 81 760 92 752 122 722 c 2
 153 691 l 1
 173 701 l 2
 200 716 223 721 257 723 c 0
 320 726 370 708 413 667 c 0
 443 638 462 610 473 572 c 0
 478 556 478 548 478 514 c 0
 478 473 476 462 465 431 c 0
 444 374 388 324 330 309 c 2
 313 305 l 1
 312 258 l 2
 311 232 310 198 310 184 c 2
 310 158 l 1
 323 169 l 2
 353 193 388 205 431 205 c 0
 478 205 506 195 534 167 c 0
 572 129 583 69 557 46 c 0
 545 35 541 35 397 35 c 0
 314 35 257 37 252 38 c 0
 239 42 231 48 227 59 c 0
 224 68 223 84 223 187 c 2
 223 304 l 1
 206 309 l 2
 151 323 101 364 75 419 c 0
 46 478 50 562 83 615 c 2
 90 626 l 1
 57 659 l 2
 22 694 19 702 21 720 c 0
 24 740 41 757 61 760 c 0
 63 760 65 760 67 760 c 0
267 633 m 0
 200 633 145 579 145 512 c 0
 145 445 200 390 267 390 c 0
 334 390 388 445 388 512 c 0
 388 579 334 633 267 633 c 0
229 510 m 0
 229 534 248 553 272 553 c 0
 296 553 314 534 314 510 c 0
 314 486 296 467 272 467 c 0
 248 467 229 486 229 510 c 0
229 510 m 0
 229 486 248 467 272 467 c 0
 296 467 314 486 314 510 c 0
 314 534 296 553 272 553 c 0
 248 553 229 534 229 510 c 0
229 510 m 0
 229 534 248 553 272 553 c 0
 296 553 314 534 314 510 c 0
 314 486 296 467 272 467 c 0
 248 467 229 486 229 510 c 0
EndSplineSet
Validated: 37
EndChar

StartChar: m
Encoding: 109 109 95
Width: 800
Flags: HW
LayerCount: 2
Fore
SplineSet
400 670 m 0
 421 670 442 669 457 666 c 0
 505 657 554 637 595 609 c 2
 618 593 l 1
 638 613 l 2
 662 639 671 644 688 644 c 0
 709 644 724 632 731 612 c 0
 737 593 729 577 701 550 c 2
 680 530 l 1
 685 525 l 2
 702 506 726 460 739 421 c 0
 770 329 763 234 720 144 c 0
 703 109 690 97 668 97 c 0
 648 97 631 111 625 129 c 0
 621 142 622 150 639 184 c 0
 658 224 666 252 668 295 c 0
 671 372 651 430 600 489 c 0
 561 535 512 562 444 577 c 2
 437 579 l 1
 437 545 l 1
 437 511 l 1
 444 509 l 2
 488 499 529 473 557 438 c 0
 575 415 584 399 593 372 c 0
 601 349 601 348 601 306 c 0
 601 269 601 262 596 245 c 0
 579 185 531 132 474 110 c 0
 443 98 396 92 367 97 c 1
 367 97 l 2
 348 100 323 106 310 111 c 0
 274 126 234 161 214 195 c 0
 172 266 176 364 224 429 c 0
 254 469 289 494 331 506 c 0
 341 509 349 511 349 511 c 0
 350 512 351 576 350 577 c 0
 347 580 300 566 278 556 c 0
 236 536 202 509 174 471 c 0
 137 422 120 370 120 306 c 0
 120 253 128 226 152 177 c 0
 169 143 170 128 155 112 c 0
 134 89 99 93 81 121 c 0
 62 151 43 201 35 244 c 0
 28 279 29 341 36 374 c 0
 47 424 65 467 92 508 c 2
 107 530 l 1
 84 554 l 2
 69 569 60 580 59 585 c 0
 58 589 57 594 56 596 c 0
 52 609 69 635 84 641 c 0
 105 650 121 643 150 614 c 2
 171 594 l 1
 190 607 l 2
 229 634 275 653 325 664 c 0
 344 668 373 670 400 670 c 0
394 425 m 0
 327 425 272 371 272 304 c 0
 272 237 327 182 394 182 c 0
 461 182 516 237 516 304 c 0
 516 371 461 425 394 425 c 0
356 302 m 0
 356 326 375 345 399 345 c 0
 423 345 442 326 442 302 c 0
 442 278 423 259 399 259 c 0
 375 259 356 278 356 302 c 0
356 302 m 0
 356 278 375 259 399 259 c 0
 423 259 442 278 442 302 c 0
 442 326 423 345 399 345 c 0
 375 345 356 326 356 302 c 0
356 302 m 0
 356 326 375 345 399 345 c 0
 423 345 442 326 442 302 c 0
 442 278 423 259 399 259 c 0
 375 259 356 278 356 302 c 0
EndSplineSet
Validated: 37
EndChar

StartChar: n
Encoding: 110 110 96
Width: 800
Flags: HW
LayerCount: 2
Fore
SplineSet
708 720 m 0
 720 720 732 715 740 705 c 0
 750 692 750 685 745 627 c 0
 739 561 727 420 713 247 c 0
 707 175 701 111 700 107 c 0
 697 90 675 76 655 76 c 0
 639 76 631 83 569 146 c 2
 508 209 l 1
 501 204 l 2
 447 166 359 161 297 192 c 0
 243 219 199 271 184 328 c 0
 180 343 179 353 179 380 c 0
 179 420 182 437 198 470 c 2
 209 493 l 1
 184 518 l 2
 168 534 159 541 158 539 c 0
 157 537 156 523 155 506 c 0
 152 441 130 187 121 107 c 0
 119 90 116 74 114 70 c 0
 103 48 76 39 53 49 c 0
 42 54 35 64 31 76 c 0
 29 83 32 138 52 365 c 0
 65 519 77 649 78 654 c 0
 82 681 112 697 138 686 c 0
 144 684 169 660 209 620 c 2
 271 558 l 1
 280 564 l 2
 313 584 348 593 388 593 c 0
 419 593 438 590 464 581 c 0
 517 562 566 514 585 463 c 0
 596 434 599 410 598 374 c 0
 597 337 593 322 579 292 c 2
 569 272 l 1
 594 247 l 2
 608 233 619 223 620 223 c 0
 621 223 622 233 623 247 c 0
 632 379 657 671 661 687 c 0
 666 708 688 720 708 720 c 0
389 504 m 0
 322 504 268 449 268 382 c 0
 268 315 322 261 389 261 c 0
 456 261 511 315 511 382 c 0
 511 449 456 504 389 504 c 0
352 381 m 0
 352 405 370 424 394 424 c 0
 418 424 437 405 437 381 c 0
 437 357 418 338 394 338 c 0
 370 338 352 357 352 381 c 0
352 381 m 0
 352 357 370 338 394 338 c 0
 418 338 437 357 437 381 c 0
 437 405 418 424 394 424 c 0
 370 424 352 405 352 381 c 0
352 381 m 0
 352 405 370 424 394 424 c 0
 418 424 437 405 437 381 c 0
 437 357 418 338 394 338 c 0
 370 338 352 357 352 381 c 0
EndSplineSet
Validated: 37
EndChar

StartChar: o
Encoding: 111 111 97
Width: 800
Flags: HW
LayerCount: 2
Fore
SplineSet
396 780 m 0
 470 780 543 758 607 716 c 0
 634 698 676 658 697 630 c 0
 747 563 774 473 770 388 c 0
 765 290 728 207 660 139 c 0
 606 85 544 51 468 36 c 0
 435 29 375 28 343 33 c 0
 258 46 188 81 129 139 c 0
 74 194 41 256 26 333 c 0
 18 371 18 434 25 471 c 0
 50 603 138 710 263 756 c 0
 306 772 351 780 396 780 c 0
405 688 m 0
 376 688 342 685 322 680 c 0
 276 668 239 646 202 611 c 0
 160 571 133 527 119 473 c 0
 80 325 173 168 323 129 c 0
 352 121 350 119 350 160 c 2
 350 196 l 1
 334 200 l 2
 267 219 210 274 190 340 c 0
 180 374 179 423 187 460 c 0
 203 531 261 591 334 611 c 0
 369 621 425 620 458 610 c 0
 523 590 577 539 598 475 c 0
 620 410 612 343 576 289 c 0
 547 246 499 211 450 199 c 2
 440 197 l 1
 440 160 l 2
 440 131 440 124 443 124 c 0
 453 124 499 138 517 147 c 0
 591 182 648 250 669 328 c 0
 677 357 681 397 678 428 c 0
 667 555 564 665 439 685 c 0
 430 687 418 688 405 688 c 0
395 527 m 0
 328 527 273 472 273 405 c 0
 273 338 328 283 395 283 c 0
 462 283 517 338 517 405 c 0
 517 472 462 527 395 527 c 0
357 404 m 0
 357 428 376 446 400 446 c 0
 424 446 443 428 443 404 c 0
 443 380 424 361 400 361 c 0
 376 361 357 380 357 404 c 0
357 404 m 0
 357 380 376 361 400 361 c 0
 424 361 443 380 443 404 c 0
 443 428 424 446 400 446 c 0
 376 446 357 428 357 404 c 0
357 404 m 0
 357 428 376 446 400 446 c 0
 424 446 443 428 443 404 c 0
 443 380 424 361 400 361 c 0
 376 361 357 380 357 404 c 0
EndSplineSet
Validated: 37
EndChar

StartChar: p
Encoding: 112 112 98
Width: 500
Flags: HW
LayerCount: 2
Fore
SplineSet
66 750 m 0
 71 750 76 749 81 747 c 0
 89 744 99 736 122 712 c 0
 144 689 154 680 156 682 c 0
 163 688 194 702 211 707 c 0
 234 713 276 716 300 712 c 0
 343 705 381 686 414 655 c 0
 461 610 483 556 479 492 c 0
 476 432 454 385 412 346 c 0
 372 309 325 291 267 291 c 0
 227 291 191 301 157 322 c 2
 146 329 l 1
 145 192 l 1
 144 55 l 1
 138 45 l 2
 126 27 101 20 81 29 c 1
 81 29 l 1
 69 34 59 47 57 57 c 0
 56 61 56 172 56 304 c 2
 57 544 l 1
 63 562 l 2
 66 572 73 588 78 599 c 2
 88 618 l 1
 58 648 l 2
 24 680 18 689 20 707 c 0
 22 732 44 750 66 750 c 0
267 623 m 0
 200 623 145 569 145 502 c 0
 145 435 200 380 267 380 c 0
 334 380 389 435 389 502 c 0
 389 569 334 623 267 623 c 0
229 500 m 0
 229 524 248 543 272 543 c 0
 296 543 315 524 315 500 c 0
 315 476 296 457 272 457 c 0
 248 457 229 476 229 500 c 0
229 500 m 0
 229 476 248 457 272 457 c 0
 296 457 315 476 315 500 c 0
 315 524 296 543 272 543 c 0
 248 543 229 524 229 500 c 0
229 500 m 0
 229 524 248 543 272 543 c 0
 296 543 315 524 315 500 c 0
 315 476 296 457 272 457 c 0
 248 457 229 476 229 500 c 0
EndSplineSet
Validated: 37
EndChar

StartChar: q
Encoding: 113 113 99
Width: 600
Flags: HW
LayerCount: 2
Fore
SplineSet
221 680 m 0
 253 680 283 672 312 658 c 0
 367 631 404 585 420 522 c 0
 426 499 426 455 421 432 c 0
 416 412 409 390 399 374 c 2
 391 361 l 1
 433 319 l 2
 456 296 475 278 476 278 c 0
 477 278 485 285 494 294 c 0
 504 305 515 312 521 315 c 0
 559 333 598 294 579 257 c 0
 577 253 567 242 557 232 c 2
 539 214 l 1
 558 194 l 2
 584 168 589 157 583 137 c 0
 578 120 557 105 540 105 c 0
 536 105 529 107 524 109 c 0
 517 112 493 135 422 206 c 2
 329 299 l 1
 319 293 l 2
 305 284 284 276 265 271 c 0
 251 267 244 267 218 267 c 0
 191 267 185 268 168 273 c 0
 62 302 -4 399 12 505 c 0
 19 554 36 587 71 621 c 0
 109 658 152 677 207 680 c 0
 212 680 216 680 221 680 c 0
217 596 m 0
 150 596 95 541 95 474 c 0
 95 407 150 352 217 352 c 0
 284 352 339 407 339 474 c 0
 339 541 284 596 217 596 c 0
180 472 m 0
 180 496 198 515 222 515 c 0
 246 515 265 496 265 472 c 0
 265 448 246 430 222 430 c 0
 198 430 180 448 180 472 c 0
180 472 m 0
 180 448 198 430 222 430 c 0
 246 430 265 448 265 472 c 0
 265 496 246 515 222 515 c 0
 198 515 180 496 180 472 c 0
180 472 m 0
 180 496 198 515 222 515 c 0
 246 515 265 496 265 472 c 0
 265 448 246 430 222 430 c 0
 198 430 180 448 180 472 c 0
EndSplineSet
Validated: 37
EndChar

StartChar: r
Encoding: 114 114 100
Width: 550
Flags: HW
LayerCount: 2
Fore
SplineSet
251 720 m 0
 290 720 308 716 339 701 c 0
 362 690 374 682 393 664 c 0
 412 646 426 628 438 602 c 0
 454 569 456 557 456 515 c 0
 456 472 452 456 434 422 c 2
 423 401 l 1
 464 361 l 2
 516 310 522 297 511 273 c 0
 501 250 470 240 449 252 c 0
 447 253 426 273 403 296 c 2
 361 338 l 1
 339 327 l 2
 307 311 287 305 251 305 c 0
 208 305 174 314 143 334 c 0
 136 338 129 342 129 342 c 0
 129 342 130 284 130 214 c 0
 131 123 130 84 128 77 c 0
 121 53 96 39 70 47 c 1
 70 47 l 2
 59 50 45 64 42 76 c 0
 40 84 39 141 40 318 c 2
 41 549 l 1
 46 567 l 2
 67 641 124 697 197 715 c 0
 213 719 223 720 251 720 c 0
249 632 m 0
 182 632 128 578 128 511 c 0
 128 444 182 389 249 389 c 0
 316 389 371 444 371 511 c 0
 371 578 316 632 249 632 c 0
212 509 m 0
 212 533 231 552 255 552 c 0
 279 552 297 533 297 509 c 0
 297 485 279 466 255 466 c 0
 231 466 212 485 212 509 c 0
212 509 m 0
 212 485 231 466 255 466 c 0
 279 466 297 485 297 509 c 0
 297 533 279 552 255 552 c 0
 231 552 212 533 212 509 c 0
212 509 m 0
 212 533 231 552 255 552 c 0
 279 552 297 533 297 509 c 0
 297 485 279 466 255 466 c 0
 231 466 212 485 212 509 c 0
EndSplineSet
Validated: 37
EndChar

StartChar: s
Encoding: 115 115 101
Width: 700
Flags: HW
LayerCount: 2
Fore
SplineSet
350 825 m 0
 365 825 379 819 388 806 c 0
 394 797 394 793 394 743 c 0
 394 696 394 690 389 682 c 0
 378 664 343 655 328 667 c 0
 319 674 309 673 280 666 c 0
 224 652 169 616 134 571 c 2
 125 559 l 1
 149 543 l 2
 162 534 174 527 176 526 c 0
 178 525 186 533 194 542 c 0
 218 571 251 594 291 605 c 0
 323 614 378 614 408 605 c 0
 479 583 529 533 553 461 c 0
 559 444 560 435 560 400 c 2
 560 359 l 1
 585 343 l 2
 661 293 676 280 679 262 c 0
 682 247 678 234 655 200 c 0
 601 118 518 63 420 43 c 2
 395 38 l 1
 394 20 l 2
 392 -7 376 -23 352 -25 c 0
 341 -26 337 -24 328 -19 c 2
 328 -19 l 1
 309 -8 306 0 305 60 c 0
 305 109 305 113 311 121 c 0
 319 132 332 139 348 141 c 0
 360 142 363 141 372 135 c 0
 385 126 395 126 432 138 c 0
 477 152 510 174 547 212 c 0
 561 227 573 240 572 242 c 0
 571 244 560 252 547 261 c 2
 523 277 l 1
 503 256 l 2
 468 218 427 197 373 190 c 0
 316 183 258 201 213 239 c 0
 191 258 175 279 161 308 c 0
 144 343 140 359 140 403 c 2
 140 442 l 1
 88 478 l 2
 59 498 32 517 28 522 c 0
 13 541 18 560 47 603 c 0
 100 683 192 743 285 759 c 2
 305 762 l 1
 306 779 l 2
 308 800 315 813 330 820 c 0
 337 823 343 825 350 825 c 0
350 522 m 0
 283 522 228 467 228 400 c 0
 228 333 283 278 350 278 c 0
 417 278 472 333 472 400 c 0
 472 467 417 522 350 522 c 0
312 399 m 0
 312 423 331 441 355 441 c 0
 379 441 398 423 398 399 c 0
 398 375 379 356 355 356 c 0
 331 356 312 375 312 399 c 0
312 399 m 0
 312 375 331 356 355 356 c 0
 379 356 398 375 398 399 c 0
 398 423 379 441 355 441 c 0
 331 441 312 423 312 399 c 0
312 399 m 0
 312 423 331 441 355 441 c 0
 379 441 398 423 398 399 c 0
 398 375 379 356 355 356 c 0
 331 356 312 375 312 399 c 0
EndSplineSet
Validated: 37
EndChar

StartChar: t
Encoding: 116 116 102
Width: 500
Flags: HW
LayerCount: 2
Fore
SplineSet
248 710 m 0
 346 710 442 710 448 708 c 0
 459 705 473 693 477 681 c 0
 484 663 477 641 461 629 c 2
 451 622 l 1
 370 621 l 1
 288 620 l 1
 288 546 l 1
 288 471 l 1
 306 466 l 2
 369 448 420 397 442 332 c 0
 450 309 452 289 451 257 c 0
 449 216 440 187 420 155 c 0
 406 133 375 102 353 89 c 0
 311 64 256 54 208 63 c 1
 208 63 l 1
 185 67 169 72 151 81 c 0
 97 108 58 156 43 213 c 0
 38 231 37 239 37 267 c 0
 37 314 46 346 68 381 c 0
 96 424 136 454 182 466 c 2
 199 471 l 1
 201 512 l 2
 202 535 202 568 202 586 c 2
 201 620 l 1
 120 621 l 2
 50 622 38 623 32 626 c 0
 -3 646 5 699 45 708 c 0
 52 710 150 710 248 710 c 0
245 388 m 0
 178 388 123 333 123 266 c 0
 123 199 178 144 245 144 c 0
 312 144 367 199 367 266 c 0
 367 333 312 388 245 388 c 0
207 265 m 0
 207 289 226 307 250 307 c 0
 274 307 292 289 292 265 c 0
 292 241 274 222 250 222 c 0
 226 222 207 241 207 265 c 0
207 265 m 0
 207 241 226 222 250 222 c 0
 274 222 293 241 293 265 c 0
 293 289 274 307 250 307 c 0
 226 307 207 289 207 265 c 0
207 265 m 0
 207 289 226 307 250 307 c 0
 274 307 292 289 292 265 c 0
 292 241 274 222 250 222 c 0
 226 222 207 241 207 265 c 0
EndSplineSet
Validated: 37
EndChar

StartChar: u
Encoding: 117 117 103
Width: 800
Flags: HW
LayerCount: 2
Fore
SplineSet
394 700 m 0
 401 700 407 699 414 696 c 0
 426 690 435 681 438 667 c 0
 441 657 441 656 455 653 c 0
 474 649 511 630 530 615 c 0
 563 589 592 542 603 499 c 0
 615 450 607 391 582 349 c 2
 574 335 l 1
 600 310 l 2
 614 296 625 284 626 285 c 0
 652 317 675 378 677 426 c 0
 679 463 682 474 693 484 c 0
 701 491 717 498 725 498 c 0
 733 498 748 492 756 484 c 0
 772 470 774 451 767 400 c 0
 756 315 722 246 662 186 c 0
 602 126 531 90 445 78 c 0
 422 75 380 74 358 76 c 0
 297 83 235 105 184 139 c 0
 151 161 104 208 83 240 c 0
 45 297 25 357 21 427 c 0
 19 458 22 472 34 484 c 0
 54 504 90 500 105 476 c 0
 109 469 111 462 113 436 c 0
 117 384 129 341 151 305 c 0
 157 295 163 286 164 285 c 0
 165 284 177 296 191 310 c 2
 217 336 l 1
 209 350 l 2
 160 433 182 549 259 614 c 0
 279 631 314 649 335 653 c 0
 349 656 351 657 352 664 c 0
 356 685 374 699 394 700 c 0
395 572 m 0
 328 572 274 518 274 451 c 0
 274 384 328 329 395 329 c 0
 462 329 517 384 517 451 c 0
 517 518 462 572 395 572 c 0
281 271 m 1
 255 247 l 2
 241 234 230 222 230 221 c 0
 230 217 267 195 289 187 c 0
 307 180 340 170 347 170 c 0
 349 170 350 179 350 206 c 2
 350 241 l 1
 336 246 l 2
 328 248 312 255 301 261 c 2
 281 271 l 1
510 270 m 1
 491 261 l 2
 480 256 465 249 456 246 c 2
 440 241 l 1
 440 206 l 2
 440 186 442 170 443 170 c 0
 444 170 453 172 464 175 c 0
 502 185 536 200 560 219 c 0
 560 219 550 231 536 245 c 2
 510 270 l 1
358 446 m 0
 358 470 376 488 400 488 c 0
 424 488 443 470 443 446 c 0
 443 422 424 403 400 403 c 0
 376 403 358 422 358 446 c 0
358 446 m 0
 358 422 376 403 400 403 c 0
 424 403 443 422 443 446 c 0
 443 470 424 488 400 488 c 0
 376 488 358 470 358 446 c 0
358 446 m 0
 358 470 376 488 400 488 c 0
 424 488 443 470 443 446 c 0
 443 422 424 403 400 403 c 0
 376 403 358 422 358 446 c 0
EndSplineSet
Validated: 37
EndChar

StartChar: v
Encoding: 118 118 104
Width: 700
Flags: HW
LayerCount: 2
Fore
SplineSet
286 770 m 0
 294 770 301 770 309 770 c 0
 382 767 442 749 486 719 c 0
 495 713 504 708 505 708 c 0
 506 708 519 718 534 728 c 0
 549 738 571 751 582 756 c 0
 600 765 604 766 616 765 c 0
 634 764 645 756 653 739 c 0
 665 715 654 691 627 678 c 0
 607 669 558 639 554 635 c 0
 552 633 552 626 554 614 c 0
 558 581 549 539 528 498 c 0
 509 461 483 430 447 407 c 0
 436 400 426 394 426 394 c 0
 426 394 433 385 442 375 c 0
 540 274 513 105 389 42 c 0
 378 36 360 29 349 26 c 0
 323 19 278 18 252 23 c 0
 174 38 111 95 89 171 c 0
 84 188 84 197 84 231 c 0
 84 269 84 272 92 295 c 0
 103 328 119 354 141 376 c 0
 156 391 159 395 155 396 c 0
 152 397 144 402 136 407 c 0
 49 463 6 587 45 665 c 0
 77 728 172 769 286 770 c 0
294 680 m 0
 241 680 188 670 156 651 c 0
 128 634 120 624 120 600 c 0
 120 505 213 438 322 453 c 0
 385 462 436 500 455 552 c 0
 458 561 461 577 463 589 c 0
 466 609 466 610 461 621 c 0
 455 633 440 645 419 656 c 0
 387 672 341 680 294 680 c 0
290 354 m 0
 223 354 169 299 169 232 c 0
 169 165 223 110 290 110 c 0
 357 110 412 165 412 232 c 0
 412 299 357 354 290 354 c 0
253 230 m 0
 253 254 271 273 295 273 c 0
 319 273 338 254 338 230 c 0
 338 206 319 188 295 188 c 0
 271 188 253 206 253 230 c 0
253 230 m 0
 253 206 271 188 295 188 c 0
 319 188 338 206 338 230 c 0
 338 254 319 273 295 273 c 0
 271 273 253 254 253 230 c 0
253 230 m 0
 253 254 271 273 295 273 c 0
 319 273 338 254 338 230 c 0
 338 206 319 188 295 188 c 0
 271 188 253 206 253 230 c 0
EndSplineSet
Validated: 37
EndChar

StartChar: w
Encoding: 119 119 105
Width: 750
Flags: HW
LayerCount: 2
Fore
SplineSet
369 730 m 0
 389 730 409 716 414 700 c 0
 415 695 416 647 416 582 c 2
 416 471 l 1
 426 469 l 2
 461 460 495 440 521 412 c 2
 539 392 l 1
 555 405 l 2
 596 438 621 482 625 535 c 0
 627 562 628 566 636 575 c 0
 646 587 655 591 671 591 c 0
 687 591 697 587 707 575 c 0
 720 561 722 545 716 506 c 0
 705 433 662 367 597 324 c 0
 583 315 577 309 577 306 c 0
 577 304 578 289 579 273 c 0
 582 210 561 159 516 115 c 0
 488 87 456 69 418 60 c 0
 397 55 354 53 333 57 c 1
 333 57 l 1
 286 66 241 91 213 124 c 0
 178 165 162 205 160 258 c 0
 159 275 161 293 162 298 c 2
 164 308 l 1
 144 321 l 2
 82 362 35 434 23 506 c 0
 17 543 19 559 30 574 c 0
 45 595 88 596 104 575 c 0
 110 567 112 557 115 528 c 0
 120 477 144 435 183 404 c 0
 191 398 198 392 199 392 c 0
 200 392 205 397 210 404 c 0
 232 432 273 459 313 469 c 2
 323 471 l 1
 323 583 l 2
 323 656 323 697 325 701 c 0
 331 717 351 730 369 730 c 0
370 389 m 0
 303 389 248 334 248 267 c 0
 248 200 303 145 370 145 c 0
 437 145 492 200 492 267 c 0
 492 334 437 389 370 389 c 0
332 266 m 0
 332 290 351 308 375 308 c 0
 399 308 418 290 418 266 c 0
 418 242 399 223 375 223 c 0
 351 223 332 242 332 266 c 0
332 266 m 0
 332 242 351 223 375 223 c 0
 399 223 418 242 418 266 c 0
 418 290 399 308 375 308 c 0
 351 308 332 290 332 266 c 0
332 266 m 0
 332 290 351 308 375 308 c 0
 399 308 418 290 418 266 c 0
 418 242 399 223 375 223 c 0
 351 223 332 242 332 266 c 0
EndSplineSet
Validated: 37
EndChar

StartChar: x
Encoding: 120 120 106
Width: 650
Flags: HW
LayerCount: 2
Fore
SplineSet
554 650 m 0
 561 650 568 649 574 646 c 0
 583 641 591 632 596 623 c 0
 601 614 601 596 596 586 c 0
 594 582 574 560 547 532 c 2
 502 486 l 1
 511 470 l 2
 528 438 536 404 534 366 c 0
 532 330 525 301 509 275 c 2
 501 263 l 1
 547 217 l 2
 593 172 598 166 600 152 c 0
 603 130 585 106 561 101 c 0
 553 99 550 99 541 102 c 0
 530 106 527 107 467 169 c 2
 438 199 l 1
 432 195 l 2
 371 157 280 157 222 194 c 2
 212 201 l 1
 195 183 l 2
 137 122 122 108 113 104 c 0
 104 100 94 99 85 102 c 2
 85 102 l 1
 59 110 43 137 52 160 c 0
 55 167 63 177 102 216 c 2
 149 262 l 1
 141 277 l 2
 131 294 126 306 121 327 c 0
 115 350 115 399 121 422 c 0
 126 442 134 463 143 477 c 2
 149 488 l 1
 103 534 l 2
 78 559 56 583 54 586 c 0
 40 614 64 650 96 650 c 0
 114 650 120 644 169 594 c 2
 212 550 l 1
 221 556 l 2
 280 593 366 593 426 557 c 2
 438 550 l 1
 482 595 l 2
 506 620 529 642 534 645 c 0
 539 648 547 650 554 650 c 0
325 497 m 0
 258 497 204 442 204 375 c 0
 204 308 258 253 325 253 c 0
 392 253 447 308 447 375 c 0
 447 442 392 497 325 497 c 0
288 374 m 0
 288 398 306 416 330 416 c 0
 354 416 373 398 373 374 c 0
 373 350 354 331 330 331 c 0
 306 331 288 350 288 374 c 0
288 374 m 0
 288 350 306 331 330 331 c 0
 354 331 373 350 373 374 c 0
 373 398 354 416 330 416 c 0
 306 416 288 398 288 374 c 0
288 374 m 0
 288 398 306 416 330 416 c 0
 354 416 373 398 373 374 c 0
 373 350 354 331 330 331 c 0
 306 331 288 350 288 374 c 0
EndSplineSet
Validated: 37
EndChar

StartChar: y
Encoding: 121 121 107
Width: 550
Flags: HW
LayerCount: 2
Fore
SplineSet
75 760 m 0
 89 760 103 749 131 722 c 2
 162 692 l 1
 183 703 l 2
 243 733 316 731 373 700 c 2
 388 692 l 1
 420 723 l 2
 454 757 463 762 482 759 c 0
 502 756 520 734 520 714 c 0
 520 699 514 689 483 658 c 2
 452 628 l 1
 462 608 l 2
 476 581 481 557 483 522 c 0
 484 488 481 463 470 435 c 0
 446 374 390 325 332 313 c 2
 320 310 l 1
 320 232 l 2
 321 155 321 154 327 145 c 0
 333 135 345 129 361 126 c 0
 385 122 402 106 404 85 c 0
 407 57 387 35 358 35 c 0
 336 35 296 52 284 67 c 0
 279 73 278 73 265 63 c 0
 250 51 235 44 217 39 c 0
 199 34 187 34 174 39 c 1
 174 39 l 1
 162 43 151 53 148 66 c 0
 141 92 159 116 193 126 c 0
 214 132 225 141 228 153 c 0
 229 158 230 193 230 236 c 2
 230 309 l 1
 212 315 l 2
 177 325 138 350 115 378 c 0
 82 417 66 461 66 512 c 0
 66 551 75 588 92 616 c 2
 98 627 l 1
 68 658 l 2
 51 676 36 693 34 698 c 0
 24 721 34 744 58 755 c 0
 64 758 69 760 75 760 c 0
275 638 m 0
 208 638 153 584 153 517 c 0
 153 450 208 395 275 395 c 0
 342 395 397 450 397 517 c 0
 397 584 342 638 275 638 c 0
238 515 m 0
 238 539 256 558 280 558 c 0
 304 558 323 539 323 515 c 0
 323 491 304 473 280 473 c 0
 256 473 238 491 238 515 c 0
238 515 m 0
 238 491 256 472 280 472 c 0
 304 472 323 491 323 515 c 0
 323 539 304 558 280 558 c 0
 256 558 238 539 238 515 c 0
238 515 m 0
 238 539 256 558 280 558 c 0
 304 558 323 539 323 515 c 0
 323 491 304 473 280 473 c 0
 256 473 238 491 238 515 c 0
EndSplineSet
Validated: 37
EndChar

StartChar: z
Encoding: 122 122 108
Width: 500
Flags: HW
LayerCount: 2
Fore
SplineSet
142 760 m 0
 176 760 181 750 286 645 c 0
 348 584 403 527 409 519 c 0
 442 473 455 411 444 358 c 0
 435 314 418 280 390 251 c 0
 363 223 324 200 293 195 c 0
 288 194 282 194 280 193 c 0
 278 192 288 180 310 158 c 2
 343 124 l 1
 369 126 l 2
 406 128 421 121 430 101 c 0
 440 79 433 54 413 42 c 0
 402 36 400 36 358 35 c 0
 320 34 314 35 306 39 c 0
 294 45 84 253 69 274 c 0
 55 294 42 321 35 345 c 0
 31 361 30 371 30 398 c 0
 30 428 31 435 37 454 c 0
 55 514 91 558 142 584 c 0
 160 593 188 602 197 602 c 0
 203 602 200 606 170 636 c 2
 136 670 l 1
 106 670 l 2
 67 670 56 675 47 697 c 0
 39 717 45 739 62 751 c 0
 72 758 74 758 113 759 c 0
 125 759 134 760 142 760 c 0
239 519 m 0
 172 519 117 465 117 398 c 0
 117 331 172 276 239 276 c 0
 306 276 361 331 361 398 c 0
 361 465 306 519 239 519 c 0
201 396 m 0
 201 420 220 439 244 439 c 0
 268 439 287 420 287 396 c 0
 287 372 268 353 244 353 c 0
 220 353 201 372 201 396 c 0
201 396 m 0
 201 372 220 353 244 353 c 0
 268 353 287 372 287 396 c 0
 287 420 268 439 244 439 c 0
 220 439 201 420 201 396 c 0
201 396 m 0
 201 420 220 439 244 439 c 0
 268 439 287 420 287 396 c 0
 287 372 268 353 244 353 c 0
 220 353 201 372 201 396 c 0
EndSplineSet
Validated: 37
EndChar

StartChar: delta
Encoding: 948 948 112
Width: 1050
Flags: HW
LayerCount: 2
Fore
SplineSet
892.0859375 64.076171875 m 0
 894.2109375 39.64453125 881.725585938 33.7216796875 807.311523438 24.025390625 c 0
 775.803710938 19.9208984375 707.856445312 14.8984375 656.32421875 12.8671875 c 2
 656.32421875 12.8671875 562.000976562 10.8642578125 561.684570312 10.8388671875 c 0
 561.665039062 10.8583984375 656.325195312 12.8291015625 656.325195312 12.8291015625 c 2
 707.859375 14.861328125 775.806640625 19.8828125 807.31640625 23.9892578125 c 0
 881.705078125 33.681640625 894.251953125 39.6025390625 892.123046875 64.0791015625 c 0
 890.274414062 85.2978515625 875.043945312 134.610351562 853.115234375 190.35546875 c 0
 839.607421875 224.693359375 776.633789062 355.594726562 770.725585938 361.607421875 c 0
 770.72265625 361.610351562 765.661132812 369.736328125 765.661132812 369.736328125 c 1
 724.6796875 346.059570312 l 1
 751.700195312 231.130859375 677.700195312 116.356445312 561.665039062 93.447265625 c 1
 561.702148438 93.447265625 l 1
 677.795898438 116.368164062 751.731445312 231.162109375 724.715820312 346.068359375 c 1
 765.6796875 369.704101562 l 1
 770.693359375 361.587890625 l 1
 776.5859375 355.591796875 839.575195312 224.672851562 853.081054688 190.342773438 c 0
 875.008789062 134.599609375 890.23828125 85.28515625 892.0859375 64.076171875 c 0
437.595703125 11.4501953125 m 0
 437.595703125 11.4501953125 4681.47558594 -69.865234375 479.614257812 10.6455078125 c 1
 437.596679688 11.48828125 l 2
 368.307617188 13.1083984375 248.252929688 21.0166015625 207.208007812 26.6630859375 c 0
 153.37890625 34.072265625 130.05859375 41.4306640625 130.05859375 50.9501953125 c 0
 130.05859375 65.384765625 162.99609375 161.099609375 188.23828125 220.000976562 c 0
 227.986328125 308.442382812 265.008789062 376.915039062 264.828125 377.008789062 c 0
 237.5078125 325.078125 211.155273438 271.083007812 188.204101562 220.015625 c 0
 162.959960938 161.110351562 130.021484375 65.404296875 130.021484375 50.9501953125 c 0
 130.021484375 41.380859375 153.391601562 34.0322265625 207.203125 26.626953125 c 0
 248.251953125 20.978515625 368.3046875 13.0712890625 437.595703125 11.4501953125 c 1024
521.061523438 419.489257812 m 0
 588.270507812 419.489257812 642.752929688 365.005859375 642.752929688 297.797851562 c 0
 642.752929688 230.588867188 588.26953125 176.106445312 521.061523438 176.106445312 c 0
 453.853515625 176.106445312 399.369140625 230.588867188 399.369140625 297.797851562 c 0
 399.369140625 365.005859375 453.853515625 419.489257812 521.061523438 419.489257812 c 0
521.061523438 419.52734375 m 0
 453.833007812 419.52734375 399.33203125 365.026367188 399.33203125 297.797851562 c 0
 399.33203125 230.568359375 453.833007812 176.068359375 521.061523438 176.068359375 c 0
 588.290039062 176.068359375 642.790039062 230.568359375 642.790039062 297.797851562 c 0
 642.790039062 365.026367188 588.291015625 419.52734375 521.061523438 419.52734375 c 0
516.061523438 734.42578125 m 0
 526.484375 734.42578125 562.153320312 691.456054688 608.478515625 623.040039062 c 1
 608.478515625 623.040039062 722.513671875 439.278320312 722.831054688 438.802734375 c 0
 722.82421875 438.776367188 608.508789062 623.060546875 608.508789062 623.060546875 c 1
 562.1875 691.470703125 526.524414062 734.463867188 516.061523438 734.463867188 c 0
 500.584960938 734.463867188 396.4609375 600.91015625 337.383789062 505.31640625 c 0
 326.317382812 487.352539062 315.072265625 468.112304688 303.807617188 448.299804688 c 1
 303.80078125 448.325195312 351.994140625 420.498046875 351.994140625 420.498046875 c 1
 435.29296875 536.090820312 607.747070312 535.94140625 690.895507812 420.342773438 c 1
 690.876953125 420.346679688 709.416015625 431.055664062 718.251953125 436.158203125 c 1
 709.440429688 431.072265625 690.895507812 420.37109375 690.876953125 420.375 c 0
 607.670898438 536.053710938 435.229492188 536.06640625 351.963867188 420.520507812 c 1
 351.963867188 420.520507812 303.833007812 448.306640625 303.826171875 448.33203125 c 0
 315.090820312 468.14453125 326.349609375 487.333984375 337.416015625 505.297851562 c 0
 396.49609375 600.895507812 500.62890625 734.42578125 516.061523438 734.42578125 c 0
489.791992188 841.119140625 m 0
 513.364257812 852.53125 514.21484375 852.564453125 538.561523438 843.266601562 c 0
 654.235351562 799.090820312 950.65625 313.040039062 1008.14160156 73.26171875 c 0
 1022.30859375 14.1611328125 1021.71191406 0.478515625 1004.12109375 -20.2685546875 c 0
 970.576171875 -59.837890625 865.000976562 -84.00390625 675.515625 -95.4716796875 c 0
 587.08203125 -100.826171875 517.348632812 -102.174804688 393.463867188 -95.283203125 c 0
 380.557617188 -94.669921875 367.073242188 -94.2265625 353.139648438 -93.767578125 c 0
 252.831054688 -90.462890625 129.280273438 -86.3916015625 30.9248046875 -12.966796875 c 1
 5.91796875 25.1982421875 49.513671875 163.588867188 151.072265625 364.576171875 c 0
 268.999023438 597.953125 416.688476562 805.731445312 489.791992188 841.119140625 c 0
23.982421875 18.259765625 m 0
 23.982421875 4.5888671875 26.263671875 -5.91796875 30.90234375 -12.9970703125 c 0
 129.26953125 -86.4306640625 252.831054688 -90.5 353.138671875 -93.8046875 c 0
 367.071289062 -94.263671875 380.555664062 -94.7080078125 393.461914062 -95.3203125 c 0
 490.689453125 -100.728515625 563.299804688 -102.302734375 675.518554688 -95.5087890625 c 0
 865.001953125 -84.0419921875 970.588867188 -59.8818359375 1004.14941406 -20.29296875 c 0
 1021.75976562 0.4775390625 1022.33984375 14.19140625 1008.17773438 73.2705078125 c 0
 950.690429688 313.056640625 654.276367188 799.115234375 538.57421875 843.30078125 c 0
 514.208007812 852.607421875 513.352539062 852.56640625 489.775390625 841.153320312 c 0
 416.65234375 805.755859375 268.966796875 597.971679688 151.0390625 364.592773438 c 0
 68.6630859375 201.567382812 23.982421875 78.8115234375 23.982421875 18.259765625 c 0
561.68359375 17.4384765625 m 1
 561.68359375 13.6181640625 561.684570312 11.2001953125 561.68359375 10.876953125 c 1
 561.68359375 10.876953125 561.68359375 13.3486328125 561.68359375 17.4384765625 c 1
270.469726562 373.752929688 m 1
 284.09375 365.884765625 317.819335938 346.407226562 317.826171875 346.390625 c 0
 290.395507812 231.373046875 364.52734375 116.508789062 480.434570312 93.47265625 c 1
 480.434570312 93.47265625 480.438476562 10.91015625 480.456054688 10.6298828125 c 0
 480.4375 10.6103515625 480.44140625 93.5087890625 480.44140625 93.5087890625 c 1
 364.29296875 116.592773438 290.483398438 231.697265625 317.844726562 346.422851562 c 1
 317.8515625 346.40625 284.127929688 365.870117188 270.469726562 373.752929688 c 1
722.798828125 438.783203125 m 1
 722.798828125 438.783203125 720.998046875 437.743164062 718.251953125 436.158203125 c 1
 720.801757812 437.630859375 722.543945312 438.63671875 722.798828125 438.783203125 c 1
513.881835938 849.978515625 m 0
 520.0859375 850.251953125 526.388671875 847.935546875 538.567382812 843.284179688 c 0
 654.255859375 799.103515625 950.672851562 313.048828125 1008.15917969 73.2666015625 c 0
 1022.32421875 14.1767578125 1021.73535156 0.478515625 1004.13476562 -20.2802734375 c 0
 970.58203125 -59.859375 865.000976562 -84.0224609375 675.516601562 -95.490234375 c 0
 575.456054688 -101.547851562 505.265625 -101.520507812 393.462890625 -95.3017578125 c 0
 287.641601562 -90.2734375 142.9375 -96.6103515625 30.9130859375 -12.9814453125 c 1
 5.7470703125 25.4267578125 50.0810546875 164.75390625 151.055664062 364.584960938 c 0
 268.982421875 597.962890625 416.669921875 805.744140625 489.783203125 841.13671875 c 0
 501.5703125 846.842773438 507.676757812 849.705078125 513.881835938 849.978515625 c 0
516.061523438 734.4453125 m 0
 500.606445312 734.4453125 396.478515625 600.903320312 337.399414062 505.307617188 c 0
 326.333007812 487.34375 315.081054688 468.12890625 303.81640625 448.31640625 c 1
 351.978515625 420.509765625 l 1
 391.188476562 474.920898438 454.123046875 507.217773438 521.190429688 507.344726562 c 0
 588.455078125 507.337890625 651.608398438 474.965820312 690.885742188 420.359375 c 1
 722.814453125 438.79296875 l 1
 608.493164062 623.05078125 l 2
 562.169921875 691.463867188 526.50390625 734.4453125 516.061523438 734.4453125 c 0
521.061523438 419.508789062 m 0
 453.842773438 419.508789062 399.350585938 365.016601562 399.350585938 297.797851562 c 0
 399.350585938 230.579101562 453.842773438 176.087890625 521.061523438 176.087890625 c 0
 588.279296875 176.087890625 642.771484375 230.579101562 642.771484375 297.797851562 c 0
 642.771484375 365.016601562 588.280273438 419.508789062 521.061523438 419.508789062 c 0
264.844726562 377.000976562 m 1
 237.524414062 325.0703125 211.171875 271.076171875 188.220703125 220.008789062 c 0
 162.977539062 161.10546875 130.040039062 65.39453125 130.040039062 50.9501953125 c 0
 130.040039062 41.40625 153.384765625 34.052734375 207.205078125 26.6455078125 c 0
 248.251953125 20.998046875 368.305664062 13.08984375 437.595703125 11.4697265625 c 2
 480.4375 10.6298828125 l 1
 480.4375 93.4912109375 l 1
 382.6953125 112.916992188 312.251953125 198.6328125 312.131835938 298.287109375 c 0
 312.161132812 314.494140625 314.075195312 330.642578125 317.834960938 346.407226562 c 1
 264.844726562 377.000976562 l 1
765.669921875 369.720703125 m 1
 724.697265625 346.064453125 l 1
 728.37890625 330.405273438 730.23828125 314.373046875 730.248046875 298.287109375 c 0
 730.124023438 198.536132812 659.544921875 112.768554688 561.68359375 93.447265625 c 1
 561.68359375 10.8583984375 l 1
 656.32421875 12.8486328125 l 2
 707.857421875 14.8798828125 775.8046875 19.90234375 807.313476562 24.0078125 c 0
 881.70703125 33.701171875 894.231445312 39.62109375 892.104492188 64.078125 c 0
 890.255859375 85.2919921875 875.026367188 134.60546875 853.09765625 190.349609375 c 0
 839.590820312 224.68359375 776.609375 355.59375 770.708984375 361.59765625 c 2
 765.669921875 369.720703125 l 1
483.400390625 296.34375 m 0
 483.400390625 319.915039062 502.508789062 339.022460938 526.079101562 339.022460938 c 0
 549.649414062 339.022460938 568.756835938 319.915039062 568.756835938 296.34375 c 0
 568.756835938 272.772460938 549.649414062 253.666015625 526.079101562 253.666015625 c 0
 502.508789062 253.666015625 483.400390625 272.772460938 483.400390625 296.34375 c 0
483.389648438 296.34375 m 0
 483.389648438 272.767578125 502.502929688 253.655273438 526.079101562 253.655273438 c 0
 549.655273438 253.655273438 568.767578125 272.767578125 568.767578125 296.34375 c 0
 568.767578125 319.919921875 549.655273438 339.033203125 526.079101562 339.033203125 c 0
 502.502929688 339.033203125 483.389648438 319.919921875 483.389648438 296.34375 c 0
483.395507812 296.34375 m 0
 483.395507812 319.916992188 502.505859375 339.02734375 526.079101562 339.02734375 c 0
 549.65234375 339.02734375 568.762695312 319.916992188 568.762695312 296.34375 c 0
 568.762695312 272.76953125 549.65234375 253.66015625 526.079101562 253.66015625 c 0
 502.505859375 253.66015625 483.395507812 272.76953125 483.395507812 296.34375 c 0
EndSplineSet
Validated: 43
EndChar

StartChar: theta
Encoding: 952 952 116
Width: 800
Flags: HW
LayerCount: 2
Fore
SplineSet
406 770 m 0
 627 770 805 582 780 352 c 0
 763 196 647 63 496 28 c 0
 453 18 357 17 318 27 c 1
 318 27 l 1
 208 55 120 126 71 225 c 0
 5 358 19 507 109 626 c 0
 157 690 245 745 323 761 c 0
 351 767 379 770 406 770 c 0
406 681 m 0
 331 681 256 652 200 594 c 0
 54 444 113 194 311 123 c 0
 327 117 345 113 352 113 c 0
 364 113 365 114 363 149 c 1
 363 149 l 1
 362 185 l 1
 332 196 l 2
 272 218 227 264 206 322 c 2
 196 351 l 1
 168 352 l 2
 142 354 140 355 134 374 c 0
 129 389 129 398 134 414 c 0
 140 434 141 435 168 437 c 0
 196 439 196 439 204 463 c 0
 221 513 272 569 319 590 c 0
 351 604 420 609 460 600 c 0
 523 586 581 532 606 466 c 2
 618 434 l 1
 639 437 l 2
 651 439 663 438 668 434 c 0
 680 425 685 390 677 370 c 0
 671 356 667 353 645 352 c 0
 629 351 618 347 616 342 c 0
 591 287 574 258 558 242 c 0
 541 225 488 195 462 187 c 0
 454 185 452 177 452 147 c 2
 452 111 l 1
 475 115 l 2
 534 124 615 184 651 243 c 0
 722 360 702 511 603 603 c 0
 547 655 476 681 406 681 c 0
406 517 m 0
 339 517 284 462 284 395 c 0
 284 328 339 273 406 273 c 0
 473 273 528 328 528 395 c 0
 528 462 473 517 406 517 c 0
368 394 m 0
 368 418 387 436 411 436 c 0
 435 436 454 418 454 394 c 0
 454 370 435 351 411 351 c 0
 387 351 368 370 368 394 c 0
368 394 m 0
 368 370 387 351 411 351 c 0
 435 351 454 370 454 394 c 0
 454 418 435 436 411 436 c 0
 387 436 368 418 368 394 c 0
368 394 m 0
 368 418 387 436 411 436 c 0
 435 436 454 418 454 394 c 0
 454 370 435 351 411 351 c 0
 387 351 368 370 368 394 c 0
EndSplineSet
Validated: 37
EndChar

StartChar: lambda
Encoding: 955 955 119
Width: 700
Flags: HW
LayerCount: 2
Fore
SplineSet
292 770 m 0
 341 770 349 769 382 753 c 0
 428 731 463 696 485 650 c 0
 501 617 502 609 502 560 c 0
 502 512 500 503 487 476 c 0
 479 459 461 434 448 419 c 2
 424 392 l 1
 458 368 l 2
 498 339 515 319 535 281 c 0
 547 258 550 245 552 202 c 0
 554 150 554 150 572 136 c 0
 582 128 602 116 617 109 c 0
 654 92 661 86 661 65 c 0
 661 43 640 20 620 20 c 0
 603 20 570 37 535 62 c 2
 510 80 l 1
 465 58 l 2
 440 45 404 33 380 28 c 0
 332 18 252 18 206 27 c 1
 206 27 l 1
 129 42 69 77 44 120 c 0
 32 140 30 151 30 178 c 0
 30 261 71 330 155 387 c 2
 168 396 l 1
 157 404 l 2
 137 419 108 463 96 497 c 0
 61 600 110 710 211 757 c 0
 233 767 247 770 292 770 c 0
295 685 m 0
 228 685 174 630 174 563 c 0
 174 496 228 441 295 441 c 0
 362 441 417 496 417 563 c 0
 417 630 362 685 295 685 c 0
295 334 m 0
 260 334 250 332 219 317 c 0
 114 265 84 166 161 126 c 0
 205 103 289 95 359 106 c 0
 453 121 490 168 459 232 c 0
 442 266 413 293 367 317 c 0
 339 331 330 334 295 334 c 0
258 562 m 0
 258 586 276 604 300 604 c 0
 324 604 343 586 343 562 c 0
 343 538 324 519 300 519 c 0
 276 519 258 538 258 562 c 0
258 562 m 0
 258 538 276 519 300 519 c 0
 324 519 343 538 343 562 c 0
 343 586 324 604 300 604 c 0
 276 604 258 586 258 562 c 0
258 562 m 0
 258 586 276 604 300 604 c 0
 324 604 343 586 343 562 c 0
 343 538 324 519 300 519 c 0
 276 519 258 538 258 562 c 0
EndSplineSet
Validated: 37
EndChar

StartChar: xi
Encoding: 958 958 122
Width: 700
Flags: HW
LayerCount: 2
Fore
SplineSet
370 830 m 0
 554 830 566 829 577 818 c 0
 584 811 588 799 588 785 c 0
 588 771 584 760 577 753 c 0
 567 743 559 743 478 743 c 2
 389 743 l 1
 389 671 l 1
 389 600 l 1
 418 590 l 2
 476 570 525 521 543 465 c 2
 552 436 l 1
 594 436 l 2
 646 436 658 428 658 391 c 0
 658 359 649 354 597 351 c 2
 554 348 l 1
 543 320 l 2
 520 261 475 216 418 197 c 2
 389 187 l 1
 389 127 l 1
 389 66 l 1
 475 66 l 2
 553 66 561 65 574 55 c 0
 591 42 594 11 580 -8 c 2
 571 -20 l 1
 350 -20 l 2
 146 -20 127 -20 120 -11 c 1
 120 -11 l 1
 101 11 105 49 129 60 c 0
 137 64 174 66 223 66 c 2
 303 66 l 1
 303 127 l 1
 303 189 l 1
 283 194 l 2
 265 199 228 220 206 239 c 0
 187 254 160 297 151 323 c 2
 142 351 l 1
 97 351 l 2
 55 351 51 352 41 365 c 0
 26 384 27 407 43 423 c 0
 55 435 61 436 99 436 c 2
 142 436 l 1
 148 458 l 2
 157 490 195 543 225 563 c 0
 239 573 263 586 277 591 c 2
 303 600 l 1
 303 671 l 1
 303 743 l 1
 218 743 l 2
 143 743 132 743 121 752 c 0
 105 765 103 803 119 819 c 0
 129 829 138 830 280 830 c 0
 314 830 344 830 370 830 c 0
344 516 m 0
 277 516 222 461 222 394 c 0
 222 327 277 273 344 273 c 0
 411 273 466 327 466 394 c 0
 466 461 411 516 344 516 c 0
306 393 m 0
 306 417 325 436 349 436 c 0
 373 436 392 417 392 393 c 0
 392 369 373 350 349 350 c 0
 325 350 306 369 306 393 c 0
306 393 m 0
 306 369 325 350 349 350 c 0
 373 350 392 369 392 393 c 0
 392 417 373 436 349 436 c 0
 325 436 306 417 306 393 c 0
306 393 m 0
 306 417 325 436 349 436 c 0
 373 436 392 417 392 393 c 0
 392 369 373 350 349 350 c 0
 325 350 306 369 306 393 c 0
EndSplineSet
Validated: 37
EndChar

StartChar: pi
Encoding: 960 960 124
Width: 800
Flags: HW
LayerCount: 2
Fore
SplineSet
380 770 m 0
 388 770 397 769 406 769 c 0
 505 764 571 736 645 662 c 0
 686 621 697 606 718 563 c 0
 757 483 769 399 751 314 c 0
 742 271 707 196 680 163 c 0
 643 118 558 65 496 49 c 0
 461 40 443 46 434 73 c 0
 424 105 433 117 481 136 c 0
 528 155 580 190 606 222 c 0
 692 327 683 493 584 592 c 0
 552 624 481 664 449 666 c 2
 430 667 l 1
 430 638 l 2
 430 606 429 608 477 587 c 0
 558 552 610 451 593 364 c 0
 567 230 436 157 307 205 c 0
 283 214 267 225 240 252 c 0
 194 298 181 332 180 400 c 0
 180 446 180 451 199 489 c 0
 227 545 268 580 333 602 c 0
 341 605 342 611 342 637 c 0
 342 655 340 670 338 670 c 0
 323 670 266 645 237 626 c 0
 156 573 112 494 112 400 c 0
 112 288 169 196 269 146 c 0
 292 134 314 125 318 125 c 0
 322 125 331 118 337 110 c 0
 349 94 349 67 336 52 c 0
 327 41 291 43 254 57 c 1
 254 57 l 1
 143 100 62 190 31 305 c 0
 23 336 20 362 20 410 c 0
 20 467 21 479 35 519 c 0
 66 611 134 688 222 731 c 0
 278 759 321 770 380 770 c 0
390 519 m 0
 323 519 268 464 268 397 c 0
 268 330 323 275 390 275 c 0
 457 275 511 330 511 397 c 0
 511 464 457 519 390 519 c 0
352 395 m 0
 352 419 371 438 395 438 c 0
 419 438 437 419 437 395 c 0
 437 371 419 353 395 353 c 0
 371 353 352 371 352 395 c 0
352 395 m 0
 352 371 371 353 395 353 c 0
 419 353 437 371 437 395 c 0
 437 419 419 438 395 438 c 0
 371 438 352 419 352 395 c 0
352 395 m 0
 352 419 371 438 395 438 c 0
 419 438 437 419 437 395 c 0
 437 371 419 353 395 353 c 0
 371 353 352 371 352 395 c 0
EndSplineSet
Validated: 37
EndChar

StartChar: sigma1
Encoding: 962 962 126
Width: 550
Flags: HW
LayerCount: 2
Fore
SplineSet
246 760 m 0
 292 760 339 750 379 731 c 2
 410 717 l 1
 426 736 l 2
 446 760 459 764 480 753 c 0
 499 743 507 730 507 711 c 0
 507 697 446 609 432 602 c 0
 417 595 393 607 386 625 c 0
 372 662 256 686 183 668 c 0
 169 665 156 659 155 655 c 0
 154 651 158 635 165 620 c 0
 175 596 178 593 188 597 c 0
 194 599 222 601 249 601 c 0
 309 601 345 585 388 545 c 0
 498 442 467 261 329 197 c 0
 303 185 290 182 249 182 c 0
 222 182 193 184 185 186 c 0
 172 190 170 188 161 165 c 0
 150 136 152 134 193 125 c 0
 243 114 288 119 350 142 c 0
 373 150 382 156 384 166 c 0
 388 184 411 197 428 193 c 0
 446 188 507 101 507 80 c 0
 507 59 484 38 461 38 c 0
 447 38 440 42 427 58 c 2
 411 78 l 1
 379 64 l 2
 322 39 266 30 201 38 c 1
 201 38 l 1
 159 43 96 60 65 76 c 0
 38 90 38 102 66 174 c 0
 78 205 88 232 88 235 c 0
 88 238 80 253 70 268 c 0
 35 322 23 375 34 428 c 0
 41 464 65 515 82 530 c 0
 88 536 94 542 94 546 c 0
 94 550 83 581 69 616 c 0
 38 694 38 706 72 722 c 0
 108 739 177 755 227 759 c 0
 233 759 239 760 246 760 c 0
245 513 m 0
 178 513 123 458 123 391 c 0
 123 324 178 270 245 270 c 0
 312 270 367 324 367 391 c 0
 367 458 312 513 245 513 c 0
207 390 m 0
 207 414 226 433 250 433 c 0
 274 433 293 414 293 390 c 0
 293 366 274 347 250 347 c 0
 226 347 207 366 207 390 c 0
207 390 m 0
 207 366 226 347 250 347 c 0
 274 347 293 366 293 390 c 0
 293 414 274 433 250 433 c 0
 226 433 207 414 207 390 c 0
207 390 m 0
 207 414 226 433 250 433 c 0
 274 433 293 414 293 390 c 0
 293 366 274 347 250 347 c 0
 226 347 207 366 207 390 c 0
EndSplineSet
Validated: 37
EndChar

StartChar: sigma
Encoding: 963 963 127
Width: 550
Flags: HW
LayerCount: 2
Fore
SplineSet
246 760 m 0
 292 760 339 750 379 731 c 2
 410 717 l 1
 426 736 l 2
 446 760 459 764 480 753 c 0
 499 743 507 730 507 711 c 0
 507 697 446 609 432 602 c 0
 417 595 393 607 386 625 c 0
 372 662 256 686 183 668 c 0
 169 665 156 659 155 655 c 0
 154 651 158 635 165 620 c 0
 175 596 178 593 188 597 c 0
 194 599 222 601 249 601 c 0
 309 601 345 585 388 545 c 0
 498 442 467 261 329 197 c 0
 303 185 290 182 249 182 c 0
 222 182 193 184 185 186 c 0
 172 190 170 188 161 165 c 0
 150 136 152 134 193 125 c 0
 243 114 288 119 350 142 c 0
 373 150 382 156 384 166 c 0
 388 184 411 197 428 193 c 0
 446 188 507 101 507 80 c 0
 507 59 484 38 461 38 c 0
 447 38 440 42 427 58 c 2
 411 78 l 1
 379 64 l 2
 322 39 266 30 201 38 c 1
 201 38 l 1
 159 43 96 60 65 76 c 0
 38 90 38 102 66 174 c 0
 78 205 88 232 88 235 c 0
 88 238 80 253 70 268 c 0
 35 322 23 375 34 428 c 0
 41 464 65 515 82 530 c 0
 88 536 94 542 94 546 c 0
 94 550 83 581 69 616 c 0
 38 694 38 706 72 722 c 0
 108 739 177 755 227 759 c 0
 233 759 239 760 246 760 c 0
245 513 m 0
 178 513 123 458 123 391 c 0
 123 324 178 270 245 270 c 0
 312 270 367 324 367 391 c 0
 367 458 312 513 245 513 c 0
207 390 m 0
 207 414 226 433 250 433 c 0
 274 433 293 414 293 390 c 0
 293 366 274 347 250 347 c 0
 226 347 207 366 207 390 c 0
207 390 m 0
 207 366 226 347 250 347 c 0
 274 347 293 366 293 390 c 0
 293 414 274 433 250 433 c 0
 226 433 207 414 207 390 c 0
207 390 m 0
 207 414 226 433 250 433 c 0
 274 433 293 414 293 390 c 0
 293 366 274 347 250 347 c 0
 226 347 207 366 207 390 c 0
EndSplineSet
Validated: 37
EndChar

StartChar: phi
Encoding: 966 966 130
Width: 800
Flags: HW
LayerCount: 2
Fore
SplineSet
394 880 m 0
 432 880 438 871 438 814 c 2
 438 768 l 1
 478 759 l 2
 646 723 768 570 768 396 c 0
 768 288 735 208 660 132 c 0
 599 71 540 39 453 22 c 2
 438 19 l 1
 438 -29 l 2
 438 -68 436 -79 428 -86 c 0
 414 -99 376 -98 362 -84 c 1
 362 -84 l 1
 353 -75 351 -66 351 -28 c 2
 351 18 l 1
 311 27 l 2
 144 64 21 217 20 389 c 0
 19 492 52 577 120 651 c 0
 169 704 262 754 326 763 c 2
 351 767 l 1
 351 811 l 2
 351 869 358 880 394 880 c 0
351 673 m 1
 328 668 l 2
 286 659 229 626 196 593 c 0
 109 506 88 376 143 264 c 0
 161 228 210 175 242 156 c 0
 274 137 324 116 339 116 c 0
 350 116 351 119 351 152 c 0
 351 179 349 187 343 187 c 0
 326 187 277 214 250 238 c 0
 232 255 215 276 204 299 c 0
 187 333 186 339 186 393 c 0
 186 446 188 452 204 485 c 0
 231 539 277 578 342 600 c 0
 350 603 351 610 351 638 c 2
 351 673 l 1
438 670 m 1
 438 637 l 2
 438 610 440 603 448 600 c 0
 511 579 564 534 588 481 c 0
 617 418 610 335 570 275 c 0
 548 241 498 202 463 192 c 2
 438 185 l 1
 438 150 l 1
 438 115 l 1
 458 119 l 2
 469 121 497 131 519 142 c 0
 636 199 700 335 668 460 c 0
 654 514 634 550 592 592 c 0
 550 634 501 661 460 667 c 2
 438 670 l 1
394 514 m 0
 327 514 272 459 272 392 c 0
 272 325 327 271 394 271 c 0
 461 271 516 325 516 392 c 0
 516 459 461 514 394 514 c 0
356 391 m 0
 356 415 375 434 399 434 c 0
 423 434 442 415 442 391 c 0
 442 367 423 348 399 348 c 0
 375 348 356 367 356 391 c 0
356 391 m 0
 356 367 375 348 399 348 c 0
 423 348 442 367 442 391 c 0
 442 415 423 434 399 434 c 0
 375 434 356 415 356 391 c 0
356 391 m 0
 356 415 375 434 399 434 c 0
 423 434 442 415 442 391 c 0
 442 367 423 348 399 348 c 0
 375 348 356 367 356 391 c 0
EndSplineSet
Validated: 37
EndChar

StartChar: psi
Encoding: 968 968 132
Width: 750
Flags: HW
LayerCount: 2
Fore
SplineSet
366 890 m 0
 380 890 393 886 403 879 c 2
 417 868 l 1
 417 748 l 2
 417 655 419 627 424 627 c 0
 440 627 498 595 518 574 c 0
 530 562 542 552 545 552 c 0
 556 552 595 599 608 627 c 0
 616 644 623 672 625 693 c 0
 630 741 638 752 672 753 c 0
 705 754 718 739 718 702 c 0
 718 619 674 531 608 484 c 2
 582 466 l 1
 581 422 l 2
 580 370 569 335 539 295 c 0
 517 265 474 234 440 223 c 2
 417 216 l 1
 417 135 l 2
 417 43 415 47 467 24 c 0
 489 14 500 6 504 -5 c 0
 512 -26 505 -42 487 -52 c 0
 457 -68 422 -60 390 -30 c 2
 376 -17 l 1
 362 -31 l 2
 335 -58 294 -68 267 -54 c 1
 267 -54 l 1
 247 -44 238 -21 247 -3 c 0
 254 12 261 17 302 35 c 2
 323 44 l 1
 325 131 l 1
 326 217 l 1
 303 224 l 2
 252 238 197 293 175 348 c 0
 167 369 163 390 163 421 c 0
 163 464 162 465 146 473 c 0
 100 495 50 561 31 621 c 0
 25 642 20 670 20 694 c 0
 20 740 29 753 63 753 c 0
 94 753 106 739 112 693 c 0
 119 634 142 588 179 559 c 2
 198 545 l 1
 223 571 l 2
 238 587 263 604 287 615 c 2
 326 633 l 1
 326 753 l 2
 326 871 326 874 338 882 c 0
 345 887 355 890 366 890 c 0
373 544 m 0
 306 544 252 490 252 423 c 0
 252 356 306 301 373 301 c 0
 440 301 495 356 495 423 c 0
 495 490 440 544 373 544 c 0
336 421 m 0
 336 445 354 464 378 464 c 0
 402 464 421 445 421 421 c 0
 421 397 402 378 378 378 c 0
 354 378 336 397 336 421 c 0
336 421 m 0
 336 397 354 378 378 378 c 0
 402 378 421 397 421 421 c 0
 421 445 402 464 378 464 c 0
 354 464 336 445 336 421 c 0
336 421 m 0
 336 445 354 464 378 464 c 0
 402 464 421 445 421 421 c 0
 421 397 402 378 378 378 c 0
 354 378 336 397 336 421 c 0
EndSplineSet
Validated: 37
EndChar

StartChar: omega
Encoding: 969 969 133
Width: 900
Flags: HW
LayerCount: 2
Fore
SplineSet
444 710 m 0
 495 710 532 701 589 673 c 0
 697 621 784 519 806 418 c 0
 814 382 810 295 799 254 c 2
 791 226 l 1
 814 226 l 2
 844 226 857 210 852 176 c 0
 847 140 837 135 765 135 c 0
 707 135 702 136 690 148 c 0
 673 165 674 176 696 231 c 0
 732 321 733 389 699 460 c 0
 663 536 582 603 507 619 c 2
 490 623 l 1
 490 586 l 1
 490 550 l 1
 513 543 l 2
 544 535 590 502 614 470 c 0
 685 377 660 230 561 168 c 0
 519 142 484 133 433 136 c 0
 377 139 332 159 295 199 c 0
 217 282 217 405 295 489 c 0
 317 513 375 547 392 547 c 0
 397 547 399 557 399 585 c 2
 399 623 l 1
 381 620 l 2
 371 618 346 607 324 597 c 0
 276 574 215 517 194 475 c 0
 152 392 153 331 198 222 c 0
 230 145 220 136 112 139 c 2
 112 139 l 2
 49 141 40 147 40 186 c 0
 40 214 52 226 80 226 c 0
 97 226 99 227 96 235 c 0
 94 240 89 263 84 285 c 0
 52 437 146 602 305 676 c 0
 358 701 396 710 444 710 c 0
447 464 m 0
 380 464 325 409 325 342 c 0
 325 275 380 220 447 220 c 0
 514 220 568 275 568 342 c 0
 568 409 514 464 447 464 c 0
409 341 m 0
 409 365 428 383 452 383 c 0
 476 383 494 365 494 341 c 0
 494 317 476 298 452 298 c 0
 428 298 409 317 409 341 c 0
409 341 m 0
 409 317 428 298 452 298 c 0
 476 298 494 317 494 341 c 0
 494 365 476 383 452 383 c 0
 428 383 409 365 409 341 c 0
409 341 m 0
 409 365 428 383 452 383 c 0
 476 383 494 365 494 341 c 0
 494 317 476 298 452 298 c 0
 428 298 409 317 409 341 c 0
EndSplineSet
Validated: 37
EndChar

StartChar: uni0431
Encoding: 1073 1073 135
Width: 500
Flags: HW
LayerCount: 2
Fore
SplineSet
264 760 m 0
 455 760 450 761 463 735 c 0
 477 709 468 671 442 643 c 0
 409 607 332 581 279 587 c 0
 249 590 202 605 172 621 c 0
 160 627 149 633 147 634 c 0
 145 635 144 595 144 546 c 0
 144 497 144 456 145 456 c 0
 146 456 158 462 172 469 c 0
 211 489 255 496 296 490 c 0
 483 463 545 223 394 112 c 0
 357 85 329 75 280 73 c 0
 234 71 212 75 177 93 c 2
 154 105 l 1
 119 70 l 2
 88 39 82 35 69 35 c 0
 61 35 49 39 42 43 c 0
 27 52 17 72 21 88 c 0
 23 94 39 114 57 133 c 2
 91 168 l 1
 78 194 l 2
 71 209 63 231 61 245 c 0
 55 277 54 722 60 737 c 0
 69 760 74 760 264 760 c 0
268 405 m 0
 201 405 146 350 146 283 c 0
 146 216 201 161 268 161 c 0
 335 161 389 216 389 283 c 0
 389 350 335 405 268 405 c 0
230 281 m 0
 230 305 249 324 273 324 c 0
 297 324 315 305 315 281 c 0
 315 257 297 239 273 239 c 0
 249 239 230 257 230 281 c 0
230 281 m 0
 230 257 249 239 273 239 c 0
 297 239 315 257 315 281 c 0
 315 305 297 324 273 324 c 0
 249 324 230 305 230 281 c 0
230 281 m 0
 230 305 249 324 273 324 c 0
 297 324 315 305 315 281 c 0
 315 257 297 239 273 239 c 0
 249 239 230 257 230 281 c 0
EndSplineSet
Validated: 37
EndChar

StartChar: uni0433
Encoding: 1075 1075 137
Width: 600
Flags: HW
LayerCount: 2
Fore
SplineSet
399 760 m 0
 549 760 549 760 561 748 c 0
 569 739 573 729 573 711 c 0
 573 659 536 611 483 596 c 0
 429 580 363 593 334 625 c 0
 328 631 322 637 320 637 c 0
 318 637 315 604 315 564 c 0
 315 500 316 491 324 488 c 0
 386 467 439 423 464 370 c 0
 477 343 479 332 479 282 c 0
 479 231 477 223 463 194 c 0
 443 153 402 111 361 91 c 0
 332 77 324 76 272 76 c 0
 222 76 213 77 187 90 c 2
 157 105 l 1
 121 70 l 2
 78 29 62 25 36 51 c 0
 11 76 14 89 55 132 c 2
 91 169 l 1
 78 200 l 2
 67 226 65 241 65 285 c 0
 65 332 67 343 80 370 c 0
 105 423 158 467 220 488 c 0
 229 491 229 502 229 617 c 0
 229 732 230 743 239 751 c 0
 248 759 267 760 399 760 c 0
273 404 m 0
 206 404 151 349 151 282 c 0
 151 215 206 161 273 161 c 0
 340 161 394 215 394 282 c 0
 394 349 340 404 273 404 c 0
235 281 m 0
 235 305 254 323 278 323 c 0
 302 323 320 305 320 281 c 0
 320 257 302 238 278 238 c 0
 254 238 235 257 235 281 c 0
235 281 m 0
 235 257 254 238 278 238 c 0
 302 238 320 257 320 281 c 0
 320 305 302 323 278 323 c 0
 254 323 235 305 235 281 c 0
235 281 m 0
 235 305 254 323 278 323 c 0
 302 323 320 305 320 281 c 0
 320 257 302 238 278 238 c 0
 254 238 235 257 235 281 c 0
EndSplineSet
Validated: 37
EndChar

StartChar: uni0434
Encoding: 1076 1076 138
Width: 550
Flags: HW
LayerCount: 2
Fore
SplineSet
290 730 m 0
 342 730 395 710 436 669 c 0
 451 654 468 633 474 622 c 0
 497 578 497 575 497 315 c 2
 497 76 l 1
 487 66 l 2
 474 54 443 51 427 60 c 0
 413 68 407 81 407 111 c 0
 407 124 407 136 406 136 c 0
 405 136 397 131 389 125 c 0
 342 93 248 99 207 135 c 0
 203 138 200 140 199 139 c 0
 198 138 191 125 184 110 c 0
 173 87 167 82 153 75 c 0
 113 56 22 71 31 95 c 0
 32 99 44 108 58 116 c 0
 72 124 88 135 93 143 c 0
 114 173 134 253 143 331 c 2
 148 374 l 1
 131 396 l 2
 66 478 71 593 144 667 c 0
 185 709 238 730 290 730 c 0
291 645 m 0
 224 645 169 590 169 523 c 0
 169 456 224 401 291 401 c 0
 358 401 413 456 413 523 c 0
 413 590 358 645 291 645 c 0
405 351 m 0
 404 351 l 0
 354 326 319 317 276 320 c 0
 260 321 243 324 240 325 c 0
 235 327 233 320 227 282 c 0
 223 253 222 234 224 228 c 0
 229 216 248 202 268 197 c 0
 290 191 350 195 370 203 c 0
 379 207 391 215 397 222 c 0
 407 234 407 236 407 293 c 0
 407 324 407 350 405 351 c 0
253 521 m 0
 253 545 272 564 296 564 c 0
 320 564 338 545 338 521 c 0
 338 497 320 479 296 479 c 0
 272 479 253 497 253 521 c 0
253 521 m 0
 253 497 272 479 296 479 c 0
 320 479 339 497 339 521 c 0
 339 545 320 564 296 564 c 0
 272 564 253 545 253 521 c 0
253 521 m 0
 253 545 272 564 296 564 c 0
 320 564 339 545 339 521 c 0
 339 497 320 479 296 479 c 0
 272 479 253 497 253 521 c 0
EndSplineSet
Validated: 37
EndChar

StartChar: uni0436
Encoding: 1078 1078 140
Width: 750
Flags: HW
LayerCount: 2
Fore
SplineSet
366 860 m 0
 380 860 394 856 402 846 c 0
 411 835 412 834 412 718 c 2
 412 601 l 1
 438 592 l 2
 471 580 491 567 516 542 c 2
 537 521 l 1
 559 539 l 2
 595 567 619 611 619 650 c 0
 619 703 648 731 686 715 c 0
 709 705 715 688 712 647 c 0
 706 569 667 503 598 456 c 2
 576 441 l 1
 575 397 l 1
 575 354 l 1
 599 338 l 2
 669 291 713 210 713 130 c 0
 713 92 699 75 664 75 c 0
 636 75 619 101 619 142 c 0
 619 185 588 238 550 262 c 2
 537 270 l 1
 512 246 l 2
 488 223 449 200 423 194 c 2
 412 191 l 1
 412 73 l 1
 412 -45 l 1
 401 -55 l 2
 392 -63 386 -65 368 -65 c 0
 349 -65 343 -63 333 -53 c 2
 321 -41 l 1
 321 75 l 1
 321 191 l 1
 305 196 l 2
 275 206 251 220 224 245 c 2
 197 271 l 1
 180 259 l 2
 141 232 121 195 115 143 c 0
 109 91 98 75 65 75 c 0
 40 75 23 93 20 120 c 0
 17 148 29 204 44 235 c 0
 64 277 112 328 153 351 c 0
 157 353 159 365 160 396 c 2
 162 438 l 1
 138 454 l 2
 68 502 28 568 21 649 c 0
 18 688 24 705 47 715 c 0
 79 728 108 709 112 672 c 0
 121 597 135 568 182 534 c 2
 198 522 l 1
 224 546 l 2
 249 570 274 586 305 596 c 2
 321 601 l 1
 321 714 l 2
 321 776 323 831 325 837 c 0
 330 851 348 860 366 860 c 0
367 519 m 0
 300 519 245 465 245 398 c 0
 245 331 300 276 367 276 c 0
 434 276 488 331 488 398 c 0
 488 465 434 519 367 519 c 0
329 396 m 0
 329 420 348 439 372 439 c 0
 396 439 414 420 414 396 c 0
 414 372 396 353 372 353 c 0
 348 353 329 372 329 396 c 0
329 396 m 0
 329 372 348 353 372 353 c 0
 396 353 414 372 414 396 c 0
 414 420 396 439 372 439 c 0
 348 439 329 420 329 396 c 0
329 396 m 0
 329 420 348 439 372 439 c 0
 396 439 414 420 414 396 c 0
 414 372 396 353 372 353 c 0
 348 353 329 372 329 396 c 0
EndSplineSet
Validated: 37
EndChar

StartChar: uni0437
Encoding: 1079 1079 141
Width: 500
Flags: HW
LayerCount: 2
Fore
SplineSet
190 760 m 4
 228 760 267 756 295 747 c 4
 351 729 384 702 407 655 c 4
 421 625 431 573 427 542 c 4
 425 521 426 515 439 488 c 4
 470 424 470 359 439 299 c 4
 429 280 428 273 427 237 c 4
 426 134 376 69 280 44 c 4
 239 34 154 32 116 41 c 4
 70 52 47 69 41 94 c 4
 35 120 57 148 83 148 c 4
 97 148 134 138 145 131 c 4
 154 125 202 123 226 127 c 4
 261 134 301 154 313 172 c 4
 327 192 326 198 312 193 c 4
 306 191 288 188 272 187 c 4
 171 179 80 244 54 344 c 4
 27 450 92 562 200 594 c 4
 228 602 282 603 308 595 c 4
 325 590 327 590 327 596 c 4
 327 620 288 656 252 667 c 4
 224 675 165 673 136 662 c 4
 87 644 84 643 68 651 c 4
 24 672 36 728 88 746 c 4
 114 755 152 760 190 760 c 4
257 519 m 4
 190 519 135 465 135 398 c 4
 135 331 190 276 257 276 c 4
 324 276 378 331 378 398 c 4
 378 465 324 519 257 519 c 4
219 396 m 4
 219 420 238 439 262 439 c 4
 286 439 304 420 304 396 c 4
 304 372 286 353 262 353 c 4
 238 353 219 372 219 396 c 4
219 396 m 4
 219 372 238 353 262 353 c 4
 286 353 304 372 304 396 c 4
 304 420 286 439 262 439 c 4
 238 439 219 420 219 396 c 4
219 396 m 4
 219 420 238 439 262 439 c 4
 286 439 304 420 304 396 c 4
 304 372 286 353 262 353 c 4
 238 353 219 372 219 396 c 4
EndSplineSet
Validated: 37
EndChar

StartChar: uni0438
Encoding: 1080 1080 142
Width: 800
Flags: HW
LayerCount: 2
Fore
SplineSet
70 730 m 0
 78 730 86 729 93 725 c 0
 120 711 119 722 140 471 c 0
 151 344 160 238 160 235 c 0
 160 232 171 241 186 255 c 2
 212 280 l 1
 201 304 l 2
 163 385 180 474 245 539 c 0
 289 583 331 599 392 599 c 0
 429 599 469 589 493 574 c 2
 505 567 l 1
 571 629 l 2
 607 663 640 693 646 695 c 0
 652 697 662 697 670 696 c 0
 699 691 696 705 725 386 c 0
 739 226 751 92 751 87 c 0
 751 64 717 48 689 58 c 0
 659 69 661 61 639 315 c 0
 628 441 619 547 618 549 c 0
 617 551 606 542 592 528 c 2
 568 503 l 1
 577 484 l 2
 592 454 598 426 598 392 c 0
 598 282 518 195 406 183 c 0
 374 180 329 189 296 206 c 2
 271 218 l 1
 206 154 l 2
 168 117 136 90 130 88 c 0
 116 85 102 87 90 97 c 0
 80 105 84 73 49 465 c 0
 38 593 29 702 30 706 c 0
 35 721 52 730 70 730 c 0
390 514 m 0
 323 514 269 459 269 392 c 0
 269 325 323 271 390 271 c 0
 457 271 512 325 512 392 c 0
 512 459 457 514 390 514 c 0
353 391 m 0
 353 415 371 434 395 434 c 0
 419 434 438 415 438 391 c 0
 438 367 419 348 395 348 c 0
 371 348 353 367 353 391 c 0
353 391 m 0
 353 367 371 348 395 348 c 0
 419 348 438 367 438 391 c 0
 438 415 419 434 395 434 c 0
 371 434 353 415 353 391 c 0
353 391 m 0
 353 415 371 434 395 434 c 0
 419 434 438 415 438 391 c 0
 438 367 419 348 395 348 c 0
 371 348 353 367 353 391 c 0
EndSplineSet
Validated: 37
EndChar

StartChar: uni0439
Encoding: 1081 1081 143
Width: 800
Flags: HW
LayerCount: 2
Fore
SplineSet
536 740 m 0
 542 740 545 737 552 734 c 0
 582 719 590 687 569 667 c 0
 550 649 495 626 450 619 c 0
 435 617 434 616 434 599 c 0
 434 582 435 581 452 576 c 0
 462 573 478 567 488 561 c 2
 506 551 l 1
 527 571 l 2
 538 582 567 609 591 632 c 0
 635 675 651 685 667 681 c 0
 683 677 693 670 696 663 c 0
 699 656 720 439 727 345 c 0
 729 319 735 246 741 184 c 0
 747 112 750 69 748 63 c 0
 740 41 710 34 683 47 c 0
 676 51 666 58 663 64 c 0
 660 70 654 118 649 182 c 0
 644 241 638 307 636 329 c 0
 631 374 620 521 620 533 c 0
 620 539 614 535 594 515 c 2
 567 488 l 1
 577 469 l 2
 618 389 601 291 536 227 c 0
 472 165 379 150 299 189 c 2
 273 202 l 1
 208 139 l 2
 155 89 139 76 127 74 c 0
 108 71 89 79 84 93 c 0
 80 103 30 647 30 678 c 0
 30 685 34 696 39 702 c 0
 47 711 53 713 68 713 c 0
 90 713 110 704 117 691 c 0
 120 686 130 579 141 452 c 0
 152 325 162 220 163 219 c 0
 164 218 176 229 189 242 c 2
 213 266 l 1
 202 290 l 2
 188 320 183 345 183 375 c 0
 183 463 238 543 320 573 c 0
 344 582 344 581 344 598 c 2
 344 615 l 1
 306 624 l 2
 262 635 220 655 208 670 c 0
 198 683 196 710 205 723 c 0
 208 728 220 734 229 737 c 0
 244 741 250 740 284 727 c 0
 356 699 406 698 471 721 c 0
 511 735 526 740 536 740 c 0
389 496 m 0
 322 496 268 442 268 375 c 0
 268 308 322 253 389 253 c 0
 456 253 511 308 511 375 c 0
 511 442 456 496 389 496 c 0
352 373 m 0
 352 397 370 416 394 416 c 0
 418 416 437 397 437 373 c 0
 437 349 418 330 394 330 c 0
 370 330 352 349 352 373 c 0
352 373 m 0
 352 349 370 330 394 330 c 0
 418 330 437 349 437 373 c 0
 437 397 418 416 394 416 c 0
 370 416 352 397 352 373 c 0
352 373 m 0
 352 397 370 416 394 416 c 0
 418 416 437 397 437 373 c 0
 437 349 418 330 394 330 c 0
 370 330 352 349 352 373 c 0
EndSplineSet
Validated: 37
EndChar

StartChar: uni043A
Encoding: 1082 1082 144
Width: 650
Flags: HW
LayerCount: 2
Fore
SplineSet
216 740 m 0
 228 740 239 737 247 731 c 2
 258 723 l 1
 258 656 l 1
 258 590 l 1
 281 582 l 2
 294 578 314 568 327 560 c 0
 351 545 386 508 394 492 c 0
 400 479 402 481 414 501 c 0
 429 526 473 565 501 579 c 0
 571 613 670 569 636 519 c 0
 623 500 610 497 579 502 c 0
 546 507 526 501 499 476 c 0
 481 459 449 410 449 396 c 0
 449 393 455 386 462 379 c 0
 469 372 496 343 523 315 c 0
 567 268 572 261 572 248 c 0
 572 226 550 206 526 206 c 0
 509 206 507 208 460 255 c 0
 433 282 410 304 409 304 c 0
 408 304 400 292 391 279 c 0
 363 236 320 202 275 189 c 2
 258 184 l 1
 258 120 l 2
 258 61 257 56 250 49 c 0
 240 40 207 37 194 43 c 0
 179 51 177 65 177 126 c 2
 177 184 l 1
 153 191 l 2
 62 219 3 311 11 410 c 0
 13 433 21 458 34 480 c 0
 56 527 106 569 159 585 c 2
 177 590 l 1
 177 655 l 2
 177 718 177 720 187 730 c 0
 194 737 204 740 216 740 c 0
216 510 m 0
 149 510 94 455 94 388 c 0
 94 321 149 266 216 266 c 0
 283 266 337 321 337 388 c 0
 337 455 283 510 216 510 c 0
178 386 m 0
 178 410 197 429 221 429 c 0
 245 429 263 410 263 386 c 0
 263 362 245 344 221 344 c 0
 197 344 178 362 178 386 c 0
178 386 m 0
 178 362 197 344 221 344 c 0
 245 344 263 362 263 386 c 0
 263 410 245 429 221 429 c 0
 197 429 178 410 178 386 c 0
178 386 m 0
 178 410 197 429 221 429 c 0
 245 429 263 410 263 386 c 0
 263 362 245 344 221 344 c 0
 197 344 178 362 178 386 c 0
EndSplineSet
Validated: 37
EndChar

StartChar: uni043B
Encoding: 1083 1083 145
Width: 550
Flags: HW
LayerCount: 2
Fore
SplineSet
286 750 m 0
 290 750 296 750 301 750 c 0
 396 748 470 694 500 606 c 0
 509 579 509 574 510 339 c 2
 512 100 l 1
 501 88 l 2
 492 78 489 76 468 76 c 0
 447 76 444 77 435 87 c 2
 425 99 l 1
 425 235 l 2
 425 310 424 370 423 370 c 0
 422 370 410 365 396 358 c 0
 367 343 319 332 292 334 c 2
 273 335 l 1
 271 255 l 2
 269 160 265 145 235 115 c 0
 205 86 183 76 134 75 c 0
 107 74 87 76 76 80 c 0
 41 91 20 115 20 143 c 0
 20 151 24 160 28 165 c 0
 41 180 51 181 79 173 c 0
 133 157 149 158 169 177 c 2
 181 188 l 1
 181 280 l 1
 181 371 l 1
 157 393 l 2
 109 438 87 502 96 574 c 0
 104 638 147 699 207 729 c 0
 241 746 255 750 286 750 c 0
303 665 m 0
 236 665 181 610 181 543 c 0
 181 476 236 422 303 422 c 0
 370 422 425 476 425 543 c 0
 425 610 370 665 303 665 c 0
265 542 m 0
 265 566 284 584 308 584 c 0
 332 584 351 566 351 542 c 0
 351 518 332 499 308 499 c 0
 284 499 265 518 265 542 c 0
265 542 m 0
 265 518 284 499 308 499 c 0
 332 499 351 518 351 542 c 0
 351 566 332 584 308 584 c 0
 284 584 265 566 265 542 c 0
265 542 m 0
 265 566 284 584 308 584 c 0
 332 584 351 566 351 542 c 0
 351 518 332 499 308 499 c 0
 284 499 265 518 265 542 c 0
EndSplineSet
Validated: 37
EndChar

StartChar: uni0443
Encoding: 1091 1091 153
Width: 550
Flags: HW
LayerCount: 2
Fore
SplineSet
70 700 m 0
 80 700 90 693 119 665 c 2
 155 629 l 1
 174 640 l 2
 222 665 283 669 338 651 c 0
 356 645 374 637 379 634 c 0
 387 628 389 630 422 663 c 0
 456 697 459 698 477 698 c 0
 494 698 497 696 510 682 c 0
 534 656 532 646 487 603 c 2
 449 567 l 1
 457 552 l 2
 481 508 490 442 476 396 c 0
 465 360 427 287 395 244 c 0
 337 164 289 117 238 92 c 0
 209 77 205 77 158 76 c 0
 114 75 107 75 95 83 c 0
 81 92 68 111 68 124 c 0
 68 128 72 138 77 145 c 0
 86 159 113 170 128 165 c 0
 140 161 182 173 198 185 c 0
 212 195 237 228 237 235 c 0
 237 237 228 240 217 243 c 0
 137 263 72 337 60 420 c 0
 54 465 64 519 85 555 c 2
 93 568 l 1
 59 601 l 2
 40 619 24 639 22 644 c 0
 13 666 42 700 70 700 c 0
270 570 m 0
 203 570 148 516 148 449 c 0
 148 382 203 327 270 327 c 0
 337 327 392 382 392 449 c 0
 392 516 337 570 270 570 c 0
232 447 m 0
 232 471 251 490 275 490 c 0
 299 490 318 471 318 447 c 0
 318 423 299 404 275 404 c 0
 251 404 232 423 232 447 c 0
232 447 m 0
 232 423 251 404 275 404 c 0
 299 404 318 423 318 447 c 0
 318 471 299 490 275 490 c 0
 251 490 232 471 232 447 c 0
232 447 m 0
 232 471 251 490 275 490 c 0
 299 490 318 471 318 447 c 0
 318 423 299 404 275 404 c 0
 251 404 232 423 232 447 c 0
EndSplineSet
Validated: 37
EndChar

StartChar: uni0446
Encoding: 1094 1094 156
Width: 800
Flags: HW
LayerCount: 2
Fore
SplineSet
310 760 m 0
 333 760 344 747 344 720 c 0
 344 702 343 697 332 688 c 0
 325 682 316 677 313 677 c 0
 310 677 291 669 270 658 c 0
 216 631 168 583 143 533 c 0
 105 455 103 365 139 292 c 0
 173 223 246 163 319 144 c 2
 340 138 l 1
 340 170 l 1
 340 202 l 1
 316 211 l 2
 174 263 133 444 239 552 c 0
 284 598 341 619 407 614 c 0
 438 612 448 609 477 594 c 0
 584 540 625 420 573 312 c 0
 552 268 500 224 453 209 c 2
 431 202 l 1
 431 169 l 1
 431 137 l 1
 444 140 l 2
 525 157 598 212 632 282 c 0
 655 330 663 362 663 414 c 0
 663 463 656 496 637 533 c 0
 606 594 544 647 476 669 c 0
 434 683 422 703 435 739 c 0
 443 763 466 766 512 750 c 0
 605 718 680 654 719 572 c 0
 748 512 754 485 754 411 c 0
 754 364 753 343 747 321 c 0
 738 288 705 217 687 193 c 2
 675 177 l 1
 706 143 l 2
 737 108 742 95 732 76 c 0
 726 64 701 51 686 51 c 0
 674 51 668 55 643 82 c 2
 614 113 l 1
 579 91 l 2
 537 65 481 45 431 39 c 0
 392 34 375 34 336 39 c 1
 336 39 l 1
 221 54 111 133 58 237 c 0
 27 298 14 366 22 434 c 0
 38 572 105 673 219 730 c 0
 259 750 289 760 310 760 c 0
387 525 m 0
 320 525 265 470 265 403 c 0
 265 336 320 281 387 281 c 0
 454 281 509 336 509 403 c 0
 509 470 454 525 387 525 c 0
350 401 m 0
 350 425 368 444 392 444 c 0
 416 444 435 425 435 401 c 0
 435 377 416 359 392 359 c 0
 368 359 350 377 350 401 c 0
350 401 m 0
 350 377 368 359 392 359 c 0
 416 359 435 377 435 401 c 0
 435 425 416 444 392 444 c 0
 368 444 350 425 350 401 c 0
350 401 m 0
 350 425 368 444 392 444 c 0
 416 444 435 425 435 401 c 0
 435 377 416 359 392 359 c 0
 368 359 350 377 350 401 c 0
EndSplineSet
Validated: 37
EndChar

StartChar: uni0447
Encoding: 1095 1095 157
Width: 550
Flags: HW
LayerCount: 2
Fore
SplineSet
448 830 m 0
 476 830 489 822 495 801 c 0
 498 790 499 654 498 376 c 2
 497 5 l 1
 486 -7 l 2
 474 -19 445 -24 429 -17 c 0
 407 -8 406 -5 406 146 c 0
 406 223 405 260 404 260 c 0
 403 260 397 256 389 251 c 0
 348 226 272 218 220 234 c 0
 147 257 92 319 76 396 c 0
 68 433 71 469 85 509 c 2
 95 539 l 1
 70 565 l 2
 31 606 22 652 20 730 c 0
 18 800 24 833 80 824 c 0
 89 823 97 821 102 815 c 0
 109 807 110 802 110 739 c 0
 107 702 106 675 126 645 c 0
 153 606 151 606 188 625 c 0
 249 655 313 657 372 629 c 0
 387 622 399 617 400 617 c 0
 401 617 402 656 402 705 c 2
 402 804 l 1
 414 817 l 2
 424 829 428 830 448 830 c 0
285 557 m 0
 218 557 163 502 163 435 c 0
 163 368 218 313 285 313 c 0
 352 313 406 368 406 435 c 0
 406 502 352 557 285 557 c 0
247 434 m 0
 247 458 266 476 290 476 c 0
 314 476 332 458 332 434 c 0
 332 410 314 391 290 391 c 0
 266 391 247 410 247 434 c 0
247 434 m 0
 247 410 266 391 290 391 c 0
 314 391 332 410 332 434 c 0
 332 458 314 476 290 476 c 0
 266 476 247 458 247 434 c 0
247 434 m 0
 247 458 266 476 290 476 c 0
 314 476 332 458 332 434 c 0
 332 410 314 391 290 391 c 0
 266 391 247 410 247 434 c 0
EndSplineSet
Validated: 37
EndChar

StartChar: uni0448
Encoding: 1096 1096 158
Width: 800
Flags: HW
LayerCount: 2
Fore
SplineSet
319 760 m 0
 342 760 353 747 353 721 c 0
 353 709 354 702 355 705 c 0
 358 714 380 722 397 722 c 0
 409 722 417 720 426 712 c 2
 439 701 l 1
 439 715 l 2
 439 733 453 755 466 758 c 0
 481 762 504 757 538 743 c 0
 590 722 624 699 666 657 c 0
 701 622 709 612 727 574 c 0
 758 510 762 486 762 407 c 0
 762 346 762 338 751 306 c 0
 728 237 697 188 647 139 c 0
 590 83 518 49 439 39 c 0
 400 34 387 34 350 39 c 1
 350 39 l 1
 228 55 120 130 66 237 c 0
 58 252 47 281 41 301 c 0
 32 332 30 345 30 393 c 0
 30 456 37 496 56 545 c 0
 88 626 149 691 231 732 c 0
 270 751 299 760 319 760 c 0
351 697 m 1
 339 687 l 2
 333 682 325 677 322 677 c 0
 319 677 299 669 278 658 c 0
 225 631 176 584 151 533 c 0
 113 455 111 365 147 292 c 0
 180 224 254 162 326 144 c 2
 346 139 l 1
 348 170 l 2
 349 187 348 201 346 203 c 0
 344 205 335 208 326 211 c 0
 287 222 235 266 212 309 c 0
 190 349 182 409 192 454 c 0
 207 519 259 578 322 601 c 0
 333 605 343 610 345 611 c 0
 347 612 348 632 349 655 c 2
 351 697 l 1
442 691 m 0
 439 691 439 683 440 653 c 2
 441 611 l 1
 462 604 l 2
 571 567 630 446 592 337 c 0
 571 277 522 229 461 209 c 2
 439 202 l 1
 439 169 l 1
 439 137 l 1
 453 140 l 2
 460 142 478 147 492 152 c 0
 552 174 610 223 638 276 c 0
 669 334 680 416 666 475 c 0
 646 560 578 634 487 669 c 0
 469 676 450 685 446 689 c 0
 444 691 443 691 442 691 c 0
396 528 m 0
 329 528 274 473 274 406 c 0
 274 339 329 285 396 285 c 0
 463 285 518 339 518 406 c 0
 518 473 463 528 396 528 c 0
359 405 m 0
 359 429 377 448 401 448 c 0
 425 448 444 429 444 405 c 0
 444 381 425 362 401 362 c 0
 377 362 359 381 359 405 c 0
359 405 m 0
 359 381 377 362 401 362 c 0
 425 362 444 381 444 405 c 0
 444 429 425 448 401 448 c 0
 377 448 359 429 359 405 c 0
359 405 m 0
 359 429 377 448 401 448 c 0
 425 448 444 429 444 405 c 0
 444 381 425 362 401 362 c 0
 377 362 359 381 359 405 c 0
EndSplineSet
Validated: 37
EndChar

StartChar: uni0449
Encoding: 1097 1097 159
Width: 800
Flags: HW
LayerCount: 2
Fore
SplineSet
309 760 m 0
 332 760 344 746 344 720 c 0
 344 702 344 702 352 710 c 0
 368 726 403 727 421 710 c 2
 431 701 l 1
 431 714 l 2
 431 730 440 750 451 756 c 0
 465 763 486 760 522 746 c 0
 578 724 614 701 658 657 c 0
 693 622 700 612 719 574 c 0
 749 512 755 483 755 405 c 0
 755 347 754 338 743 306 c 0
 730 265 713 230 691 198 c 2
 676 175 l 1
 706 141 l 2
 737 106 743 93 733 74 c 0
 727 62 702 49 687 49 c 0
 675 49 668 54 643 81 c 2
 614 112 l 1
 595 99 l 2
 566 79 511 55 476 46 c 0
 439 36 373 32 337 37 c 0
 237 51 138 113 80 197 c 0
 62 224 37 278 28 312 c 0
 17 354 18 439 30 488 c 0
 47 557 74 609 119 656 c 0
 172 712 260 760 309 760 c 0
339 694 m 0
 338 694 337 692 334 690 c 0
 329 686 313 677 297 671 c 0
 206 635 138 557 119 467 c 0
 110 422 112 358 126 319 c 0
 154 239 226 171 311 144 c 0
 323 140 335 136 337 136 c 0
 339 136 340 151 340 169 c 2
 340 202 l 1
 325 207 l 2
 259 228 206 283 186 351 c 0
 179 376 177 426 183 454 c 0
 198 520 258 586 317 603 c 0
 328 606 337 611 338 613 c 0
 339 615 340 636 341 658 c 0
 342 685 342 694 339 694 c 0
434 692 m 0
 431 692 431 683 432 653 c 2
 433 611 l 1
 454 604 l 2
 550 572 611 470 593 372 c 0
 579 294 522 228 449 206 c 2
 431 201 l 1
 431 168 l 1
 431 136 l 1
 444 138 l 2
 451 140 466 144 476 147 c 0
 556 173 626 243 650 321 c 0
 697 471 628 610 477 670 c 0
 459 677 442 685 438 689 c 0
 436 691 435 692 434 692 c 0
387 525 m 0
 320 525 266 470 266 403 c 0
 266 336 320 281 387 281 c 0
 454 281 509 336 509 403 c 0
 509 470 454 525 387 525 c 0
350 402 m 0
 350 426 369 444 393 444 c 0
 417 444 435 426 435 402 c 0
 435 378 417 359 393 359 c 0
 369 359 350 378 350 402 c 0
350 402 m 0
 350 378 369 359 393 359 c 0
 417 359 435 378 435 402 c 0
 435 426 417 444 393 444 c 0
 369 444 350 426 350 402 c 0
350 402 m 0
 350 426 369 444 393 444 c 0
 417 444 435 426 435 402 c 0
 435 378 417 359 393 359 c 0
 369 359 350 378 350 402 c 0
EndSplineSet
Validated: 37
EndChar

StartChar: uni044C
Encoding: 1100 1100 160
Width: 500
Flags: HW
LayerCount: 2
Fore
SplineSet
107 760 m 0
 120 760 133 755 140 746 c 0
 148 736 148 730 148 597 c 0
 148 521 150 458 151 458 c 0
 152 458 163 463 175 469 c 0
 210 486 245 493 283 490 c 0
 464 477 546 261 418 135 c 0
 403 120 382 103 370 97 c 0
 311 66 233 65 174 95 c 2
 155 105 l 1
 119 71 l 2
 79 32 67 28 43 44 c 0
 28 54 20 67 20 83 c 0
 20 92 27 102 56 131 c 2
 92 168 l 1
 81 192 l 2
 75 205 68 225 66 235 c 0
 63 247 61 343 61 494 c 0
 61 760 60 748 89 757 c 0
 95 759 101 760 107 760 c 0
272 403 m 0
 205 403 150 349 150 282 c 0
 150 215 205 160 272 160 c 0
 339 160 393 215 393 282 c 0
 393 349 339 403 272 403 c 0
234 280 m 0
 234 304 253 323 277 323 c 0
 301 323 319 304 319 280 c 0
 319 256 301 237 277 237 c 0
 253 237 234 256 234 280 c 0
234 280 m 0
 234 256 253 237 277 237 c 0
 301 237 319 256 319 280 c 0
 319 304 301 323 277 323 c 0
 253 323 234 304 234 280 c 0
234 280 m 0
 234 304 253 323 277 323 c 0
 301 323 319 304 319 280 c 0
 319 256 301 237 277 237 c 0
 253 237 234 256 234 280 c 0
EndSplineSet
Validated: 37
EndChar

StartChar: uni044E
Encoding: 1102 1102 161
Width: 1000
Flags: HW
LayerCount: 2
Fore
SplineSet
607 780 m 0
 661 780 678 778 705 771 c 0
 883 722 1003 543 981 364 c 0
 960 197 836 65 672 36 c 0
 638 30 585 28 560 32 c 0
 504 41 443 64 402 91 c 0
 364 116 315 165 292 201 c 0
 260 251 249 280 234 350 c 2
 232 362 l 1
 175 362 l 1
 118 362 l 1
 118 219 l 1
 118 76 l 1
 107 69 l 2
 100 65 88 61 74 61 c 0
 56 61 50 63 41 71 c 2
 30 81 l 1
 30 396 l 1
 30 711 l 1
 40 723 l 2
 49 733 53 734 75 734 c 0
 94 734 103 732 110 726 c 0
 119 718 118 715 118 584 c 2
 118 450 l 1
 175 450 l 1
 232 450 l 1
 234 462 l 2
 266 621 357 724 504 769 c 0
 537 779 548 780 607 780 c 0
601 690 m 0
 583 690 565 688 546 684 c 0
 489 672 430 636 388 587 c 0
 366 561 336 499 329 467 c 0
 322 434 323 369 331 339 c 0
 343 290 369 245 406 208 c 0
 444 170 475 151 520 136 c 0
 566 121 564 121 564 162 c 2
 564 197 l 1
 542 204 l 2
 495 218 441 263 418 310 c 0
 401 343 396 370 396 409 c 0
 396 449 401 469 420 506 c 0
 474 609 601 648 707 594 c 0
 789 552 834 456 815 366 c 0
 799 289 748 229 676 205 c 2
 655 198 l 1
 654 162 l 1
 653 125 l 1
 666 128 l 2
 770 150 856 233 883 337 c 0
 894 377 893 440 881 482 c 0
 846 609 729 692 601 690 c 0
610 527 m 0
 543 527 488 472 488 405 c 0
 488 338 543 283 610 283 c 0
 677 283 731 338 731 405 c 0
 731 472 677 527 610 527 c 0
572 404 m 0
 572 428 591 446 615 446 c 0
 639 446 657 428 657 404 c 0
 657 380 639 361 615 361 c 0
 591 361 572 380 572 404 c 0
572 404 m 0
 572 380 591 361 615 361 c 0
 639 361 657 380 657 404 c 0
 657 428 639 446 615 446 c 0
 591 446 572 428 572 404 c 0
572 404 m 0
 572 428 591 446 615 446 c 0
 639 446 657 428 657 404 c 0
 657 380 639 361 615 361 c 0
 591 361 572 380 572 404 c 0
EndSplineSet
Validated: 37
EndChar

StartChar: uni044F
Encoding: 1103 1103 162
Width: 550
Flags: HW
LayerCount: 2
Fore
SplineSet
289 730 m 0
 371 731 447 683 482 600 c 0
 497 564 499 523 498 293 c 2
 497 75 l 1
 485 65 l 2
 472 54 442 52 427 60 c 0
 409 70 409 70 409 215 c 2
 409 353 l 1
 387 341 l 2
 329 309 256 309 195 340 c 2
 174 350 l 1
 127 303 l 2
 83 259 79 256 64 256 c 0
 42 256 20 277 20 299 c 0
 20 313 23 318 67 362 c 2
 115 410 l 1
 107 426 l 2
 81 477 76 538 93 588 c 0
 111 641 146 682 193 706 c 0
 224 722 257 730 289 730 c 0
290 647 m 0
 223 647 168 593 168 526 c 0
 168 459 223 404 290 404 c 0
 357 404 412 459 412 526 c 0
 412 593 357 647 290 647 c 0
252 524 m 0
 252 548 271 567 295 567 c 0
 319 567 338 548 338 524 c 0
 338 500 319 481 295 481 c 0
 271 481 252 500 252 524 c 0
252 524 m 0
 252 500 271 481 295 481 c 0
 319 481 338 500 338 524 c 0
 338 548 319 567 295 567 c 0
 271 567 252 548 252 524 c 0
252 524 m 0
 252 548 271 567 295 567 c 0
 319 567 338 548 338 524 c 0
 338 500 319 481 295 481 c 0
 271 481 252 500 252 524 c 0
EndSplineSet
Validated: 37
EndChar

StartChar: .notdef
Encoding: 65536 -1 163
Width: 450
Flags: HW
LayerCount: 2
Fore
SplineSet
100 375 m 1
 100 308 155 253 222 253 c 1
 222 253 l 1
 155 253 100 308 100 375 c 1
 100 375 l 1
222 586 m 0
 339 586 433 492 433 375 c 0
 433 258 339 164 222 164 c 0
 105 164 11 258 11 375 c 0
 11 492 105 586 222 586 c 0
222 586 m 0
 105 586 11 492 11 375 c 0
 11 258 105 164 222 164 c 0
 339 164 433 258 433 375 c 0
 433 492 339 586 222 586 c 0
326 312 m 1
 337 330 344 352 344 375 c 1
 344 352 337 330 326 312 c 1
222 586 m 0
 339 586 433 492 433 375 c 0
 433 258 339 164 222 164 c 0
 105 164 11 258 11 375 c 0
 11 492 105 586 222 586 c 0
344 375 m 1
 100 375 l 1
 100 308 155 253 222 253 c 0
 289 253 344 308 344 375 c 1
184 374 m 0
 184 398 203 416 227 416 c 0
 251 416 270 398 270 374 c 0
 270 350 251 331 227 331 c 0
 203 331 184 350 184 374 c 0
184 374 m 0
 184 350 203 331 227 331 c 0
 251 331 270 350 270 374 c 0
 270 398 251 416 227 416 c 0
 203 416 184 398 184 374 c 0
184 374 m 0
 184 398 203 416 227 416 c 0
 251 416 270 398 270 374 c 0
 270 350 251 331 227 331 c 0
 203 331 184 350 184 374 c 0
EndSplineSet
Validated: 5
EndChar

StartChar: dotlessi
Encoding: 305 305 276
Width: 450
Flags: HW
LayerCount: 2
Fore
SplineSet
221 800 m 0
 235 800 248 794 258 781 c 0
 263 774 263 769 264 687 c 2
 265 601 l 1
 282 596 l 2
 347 578 403 521 422 451 c 0
 428 427 428 373 422 349 c 0
 403 279 347 221 282 203 c 2
 265 199 l 1
 265 114 l 2
 265 31 265 30 259 21 c 0
 256 16 250 9 246 6 c 0
 237 -1 213 -2 202 3 c 1
 202 3 l 1
 191 8 180 21 178 33 c 0
 177 38 177 68 178 99 c 0
 179 130 179 165 178 177 c 2
 176 199 l 1
 154 206 l 2
 123 216 102 229 77 254 c 0
 17 313 -2 396 28 475 c 0
 49 531 100 579 155 595 c 2
 177 601 l 1
 177 683 l 2
 177 762 177 764 183 776 c 0
 191 792 206 800 221 800 c 0
220 522 m 0
 153 522 99 467 99 400 c 0
 99 333 153 278 220 278 c 0
 287 278 342 333 342 400 c 0
 342 467 287 522 220 522 c 0
183 399 m 0
 183 423 201 441 225 441 c 0
 249 441 268 423 268 399 c 0
 268 375 249 356 225 356 c 0
 201 356 183 375 183 399 c 0
183 399 m 0
 183 375 201 356 225 356 c 0
 249 356 268 375 268 399 c 0
 268 423 249 441 225 441 c 0
 201 441 183 423 183 399 c 0
183 399 m 0
 183 423 201 441 225 441 c 0
 249 441 268 423 268 399 c 0
 268 375 249 356 225 356 c 0
 201 356 183 375 183 399 c 0
EndSplineSet
Validated: 37
EndChar

StartChar: uni0237
Encoding: 567 567 277
Width: 550
Flags: HW
LayerCount: 2
Fore
SplineSet
476 765 m 0
 478 765 481 764 483 764 c 0
 497 762 511 751 517 739 c 0
 528 714 522 700 482 662 c 2
 453 634 l 1
 464 614 l 2
 498 550 494 466 454 406 c 0
 429 368 386 337 342 324 c 2
 323 318 l 1
 322 223 l 2
 321 141 320 127 316 115 c 0
 292 42 220 2 142 19 c 0
 88 31 44 74 33 129 c 0
 26 164 30 186 47 198 c 0
 54 203 59 204 75 204 c 0
 90 204 95 203 101 199 c 0
 113 190 117 182 120 164 c 0
 123 140 126 132 136 121 c 0
 148 109 160 104 177 104 c 0
 194 104 209 111 219 124 c 0
 232 140 233 144 234 234 c 2
 235 317 l 1
 228 319 l 2
 191 327 159 343 134 367 c 0
 89 409 70 457 70 522 c 0
 70 596 102 655 163 696 c 0
 225 737 308 741 375 705 c 2
 390 697 l 1
 422 728 l 2
 452 757 462 765 476 765 c 0
278 642 m 0
 211 642 156 587 156 520 c 0
 156 453 211 398 278 398 c 0
 345 398 400 453 400 520 c 0
 400 587 345 642 278 642 c 0
240 519 m 0
 240 543 259 561 283 561 c 0
 307 561 326 543 326 519 c 0
 326 495 307 476 283 476 c 0
 259 476 240 495 240 519 c 0
240 519 m 0
 240 495 259 476 283 476 c 0
 307 476 326 495 326 519 c 0
 326 543 307 561 283 561 c 0
 259 561 240 543 240 519 c 0
240 519 m 0
 240 543 259 561 283 561 c 0
 307 561 326 543 326 519 c 0
 326 495 307 476 283 476 c 0
 259 476 240 495 240 519 c 0
EndSplineSet
Validated: 37
EndChar

StartChar: comma
Encoding: 44 44 281
Width: 450
Flags: HW
LayerCount: 2
Fore
SplineSet
100 375 m 1
 100 308 155 253 222 253 c 1
 222 253 l 1
 155 253 100 308 100 375 c 1
 100 375 l 1
222 586 m 0
 339 586 433 492 433 375 c 0
 433 258 339 164 222 164 c 0
 105 164 11 258 11 375 c 0
 11 492 105 586 222 586 c 0
222 586 m 0
 105 586 11 492 11 375 c 0
 11 258 105 164 222 164 c 0
 339 164 433 258 433 375 c 0
 433 492 339 586 222 586 c 0
326 312 m 1
 337 330 344 352 344 375 c 1
 344 352 337 330 326 312 c 1
222 586 m 0
 339 586 433 492 433 375 c 0
 433 258 339 164 222 164 c 0
 105 164 11 258 11 375 c 0
 11 492 105 586 222 586 c 0
344 375 m 1
 100 375 l 1
 100 308 155 253 222 253 c 0
 289 253 344 308 344 375 c 1
184 374 m 0
 184 398 203 416 227 416 c 0
 251 416 270 398 270 374 c 0
 270 350 251 331 227 331 c 0
 203 331 184 350 184 374 c 0
184 374 m 0
 184 350 203 331 227 331 c 0
 251 331 270 350 270 374 c 0
 270 398 251 416 227 416 c 0
 203 416 184 398 184 374 c 0
184 374 m 0
 184 398 203 416 227 416 c 0
 251 416 270 398 270 374 c 0
 270 350 251 331 227 331 c 0
 203 331 184 350 184 374 c 0
EndSplineSet
Validated: 5
EndChar

StartChar: Oslash
Encoding: 216 216 284
Width: 800
Flags: HW
LayerCount: 2
Fore
SplineSet
396 780 m 0
 470 780 543 758 607 716 c 0
 634 698 676 658 697 630 c 0
 747 563 774 473 770 388 c 0
 765 290 728 207 660 139 c 0
 606 85 544 51 468 36 c 0
 435 29 375 28 343 33 c 0
 258 46 188 81 129 139 c 0
 74 194 41 256 26 333 c 0
 18 371 18 434 25 471 c 0
 50 603 138 710 263 756 c 0
 306 772 351 780 396 780 c 0
405 688 m 0
 376 688 342 685 322 680 c 0
 276 668 239 646 202 611 c 0
 160 571 133 527 119 473 c 0
 80 325 173 168 323 129 c 0
 352 121 350 119 350 160 c 2
 350 196 l 1
 334 200 l 2
 267 219 210 274 190 340 c 0
 180 374 179 423 187 460 c 0
 203 531 261 591 334 611 c 0
 369 621 425 620 458 610 c 0
 523 590 577 539 598 475 c 0
 620 410 612 343 576 289 c 0
 547 246 499 211 450 199 c 2
 440 197 l 1
 440 160 l 2
 440 131 440 124 443 124 c 0
 453 124 499 138 517 147 c 0
 591 182 648 250 669 328 c 0
 677 357 681 397 678 428 c 0
 667 555 564 665 439 685 c 0
 430 687 418 688 405 688 c 0
395 527 m 0
 328 527 273 472 273 405 c 0
 273 338 328 283 395 283 c 0
 462 283 517 338 517 405 c 0
 517 472 462 527 395 527 c 0
357 404 m 0
 357 428 376 446 400 446 c 0
 424 446 443 428 443 404 c 0
 443 380 424 361 400 361 c 0
 376 361 357 380 357 404 c 0
357 404 m 0
 357 380 376 361 400 361 c 0
 424 361 443 380 443 404 c 0
 443 428 424 446 400 446 c 0
 376 446 357 428 357 404 c 0
357 404 m 0
 357 428 376 446 400 446 c 0
 424 446 443 428 443 404 c 0
 443 380 424 361 400 361 c 0
 376 361 357 380 357 404 c 0
EndSplineSet
Validated: 37
EndChar

StartChar: oslash
Encoding: 248 248 285
Width: 800
Flags: HW
LayerCount: 2
Fore
SplineSet
396 780 m 0
 470 780 543 758 607 716 c 0
 634 698 676 658 697 630 c 0
 747 563 774 473 770 388 c 0
 765 290 728 207 660 139 c 0
 606 85 544 51 468 36 c 0
 435 29 375 28 343 33 c 0
 258 46 188 81 129 139 c 0
 74 194 41 256 26 333 c 0
 18 371 18 434 25 471 c 0
 50 603 138 710 263 756 c 0
 306 772 351 780 396 780 c 0
405 688 m 0
 376 688 342 685 322 680 c 0
 276 668 239 646 202 611 c 0
 160 571 133 527 119 473 c 0
 80 325 173 168 323 129 c 0
 352 121 350 119 350 160 c 2
 350 196 l 1
 334 200 l 2
 267 219 210 274 190 340 c 0
 180 374 179 423 187 460 c 0
 203 531 261 591 334 611 c 0
 369 621 425 620 458 610 c 0
 523 590 577 539 598 475 c 0
 620 410 612 343 576 289 c 0
 547 246 499 211 450 199 c 2
 440 197 l 1
 440 160 l 2
 440 131 440 124 443 124 c 0
 453 124 499 138 517 147 c 0
 591 182 648 250 669 328 c 0
 677 357 681 397 678 428 c 0
 667 555 564 665 439 685 c 0
 430 687 418 688 405 688 c 0
395 527 m 0
 328 527 273 472 273 405 c 0
 273 338 328 283 395 283 c 0
 462 283 517 338 517 405 c 0
 517 472 462 527 395 527 c 0
357 404 m 0
 357 428 376 446 400 446 c 0
 424 446 443 428 443 404 c 0
 443 380 424 361 400 361 c 0
 376 361 357 380 357 404 c 0
357 404 m 0
 357 380 376 361 400 361 c 0
 424 361 443 380 443 404 c 0
 443 428 424 446 400 446 c 0
 376 446 357 428 357 404 c 0
357 404 m 0
 357 428 376 446 400 446 c 0
 424 446 443 428 443 404 c 0
 443 380 424 361 400 361 c 0
 376 361 357 380 357 404 c 0
EndSplineSet
Validated: 37
EndChar

StartChar: dollar
Encoding: 36 36 286
Width: 700
Flags: HW
LayerCount: 2
Fore
SplineSet
340.4921875 799.979492188 m 2
 340.49609375 799.977539062 l 1
 355.10546875 800.416992188 368.670898438 793.655273438 377.58984375 780.587890625 c 0
 383.647460938 771.71484375 383.973632812 768.537109375 383.963867188 718.462890625 c 0
 383.953125 671.633789062 383.341796875 664.6953125 378.565429688 656.857421875 c 0
 367.423828125 638.584960938 332.836914062 629.865234375 317.94921875 641.576171875 c 0
 308.797851562 648.774414062 298.48828125 648.723632812 269.551757812 641.329101562 c 0
 213.931640625 627.127929688 158.453125 590.943359375 123.626953125 546.153320312 c 2
 114.508789062 534.423828125 l 1
 138.564453125 518.416992188 l 2
 151.795898438 509.61328125 164.232421875 501.893554688 166.202148438 501.262695312 c 0
 168.172851562 500.629882812 175.9609375 507.770507812 183.509765625 517.12890625 c 0
 207.239257812 546.549804688 241.072265625 568.301757812 280.966796875 579.787109375 c 0
 313.23828125 589.078125 368.096679688 588.993164062 398.159179688 579.604492188 c 0
 469.315429688 557.385742188 519.443359375 507.665039062 543.047851562 435.890625 c 0
 548.590820312 419.0390625 549.609375 409.829101562 549.779296875 375.06640625 c 2
 549.983398438 334.099609375 l 1
 574.887695312 317.755859375 l 2
 650.693359375 268.012695312 665.967773438 254.9453125 669.34375 236.948242188 c 0
 672.180664062 221.82421875 667.01953125 208.876953125 644.515625 174.668945312 c 0
 590.509765625 92.5712890625 508.228515625 37.412109375 410.260742188 17.6298828125 c 2
 385.39453125 12.6103515625 l 1
 383.9765625 -4.6279296875 l 2
 381.780273438 -31.314453125 366.645507812 -47.71484375 342.34375 -49.740234375 c 0
 331.770507812 -50.619140625 326.131835938 -49.3974609375 317.559570312 -44.3798828125 c 2
 317.548828125 -44.3701171875 l 1
 298.076171875 -32.9609375 295.693359375 -24.4765625 295.110351562 35.4990234375 c 0
 294.638671875 84.740234375 294.959960938 88.3662109375 300.573242188 95.9306640625 c 0
 308.87890625 107.125 321.440429688 113.833007812 337.59375 115.698242188 c 0
 349.313476562 117.051757812 352.95703125 116.181640625 362.29296875 109.795898438 c 0
 375.1640625 100.993164062 384.94140625 101.543945312 422.265625 113.171875 c 0
 467.2265625 127.1796875 500.8515625 148.724609375 537.381835938 186.9375 c 0
 551.466796875 201.671875 562.508789062 215.205078125 561.91796875 217.010742188 c 0
 561.328125 218.815429688 550.088867188 227.515625 536.9453125 236.344726562 c 2
 513.046875 252.395507812 l 1
 493.188476562 230.862304688 l 2
 457.766601562 192.453125 416.78125 171.694335938 363.235351562 165.040039062 c 0
 306.58984375 158.000976562 248.10546875 175.85546875 202.80078125 214.016601562 c 0
 180.819335938 232.532226562 164.971679688 253.549804688 151.0078125 282.705078125 c 0
 134.016601562 318.177734375 130.577148438 334.055664062 130.29296875 378.305664062 c 2
 130.046875 417.16796875 l 1
 77.5712890625 452.69140625 l 2
 48.7099609375 472.228515625 22.1123046875 492.016601562 18.4638671875 496.662109375 c 0
 3.490234375 515.733398438 7.7041015625 534.673828125 36.568359375 578.055664062 c 0
 89.6142578125 657.77734375 181.870117188 718.040039062 274.748046875 733.635742188 c 2
 294.606445312 736.971679688 l 1
 296.047851562 753.815429688 l 2
 297.85546875 774.935546875 305.336914062 787.607421875 320.263671875 794.833007812 c 0
 326.99609375 798.092773438 333.852539062 799.780273438 340.4921875 799.979492188 c 2
461.735351562 375 m 1
 218.314453125 375 l 1
 218.314453125 307.78125 272.805664062 253.290039062 340.024414062 253.290039062 c 0
 407.243164062 253.290039062 461.735351562 307.78125 461.735351562 375 c 1
302.365234375 373.544921875 m 0
 302.365234375 397.116210938 321.47265625 416.223632812 345.04296875 416.223632812 c 0
 368.614257812 416.223632812 387.721679688 397.116210938 387.721679688 373.544921875 c 0
 387.721679688 349.974609375 368.614257812 330.866210938 345.04296875 330.866210938 c 0
 321.47265625 330.866210938 302.365234375 349.974609375 302.365234375 373.544921875 c 0
302.354492188 373.544921875 m 0
 302.354492188 349.96875 321.467773438 330.856445312 345.04296875 330.856445312 c 0
 368.619140625 330.856445312 387.732421875 349.96875 387.732421875 373.544921875 c 0
 387.732421875 397.122070312 368.619140625 416.233398438 345.04296875 416.233398438 c 0
 321.467773438 416.233398438 302.354492188 397.122070312 302.354492188 373.544921875 c 0
302.359375 373.544921875 m 0
 302.359375 397.119140625 321.469726562 416.228515625 345.04296875 416.228515625 c 0
 368.616210938 416.228515625 387.7265625 397.119140625 387.7265625 373.544921875 c 0
 387.7265625 349.971679688 368.616210938 330.861328125 345.04296875 330.861328125 c 0
 321.469726562 330.861328125 302.359375 349.971679688 302.359375 373.544921875 c 0
EndSplineSet
Validated: 37
EndChar

